<svg width="4378" height="2699" xmlns="http://www.w3.org/2000/svg" xmlns:xlink="http://www.w3.org/1999/xlink" xml:space="preserve" overflow="hidden"><g transform="translate(-3 -59)"><rect x="20.5001" y="1073.5" width="1702" height="1617" stroke="#000000" stroke-width="6.875" stroke-miterlimit="8" stroke-dasharray="27.5 20.625" fill="#FFFFFF"/><rect x="919.5" y="67.4999" width="1701" height="779" stroke="#000000" stroke-width="6.875" stroke-miterlimit="8" stroke-dasharray="27.5 20.625" fill="#FFFFFF"/><rect x="1015.5" y="190.5" width="623" height="505" stroke="#000000" stroke-width="4.58333" stroke-miterlimit="8" fill="#C4B7D7"/><text font-family="Consolas,Consolas_MSFontService,sans-serif" font-weight="400" font-size="83" transform="matrix(1 0 0 1 1048.39 322)">...</text><text font-family="Consolas,Consolas_MSFontService,sans-serif" font-weight="400" font-size="83" transform="matrix(1 0 0 1 1048.39 421)">ftype</text><text font-family="Consolas,Consolas_MSFontService,sans-serif" font-weight="400" font-size="83" transform="matrix(1 0 0 1 1274.69 421)">: DIR</text><text font-family="Consolas,Consolas_MSFontService,sans-serif" font-weight="400" font-size="83" transform="matrix(1 0 0 1 1048.39 520)">pointer[0]:</text><text font-family="Consolas,Consolas_MSFontService,sans-serif" font-weight="400" font-size="83" transform="matrix(1 0 0 1 1048.39 619)">...</text><rect x="1881.5" y="190.5" width="622" height="505" stroke="#000000" stroke-width="4.58333" stroke-miterlimit="8" fill="#705697"/><rect x="1881.5" y="190.5" width="162" height="505" stroke="#000000" stroke-width="4.58333" stroke-miterlimit="8" fill="#EFF0F1"/><text font-family="Consolas,Consolas_MSFontService,sans-serif" font-weight="400" font-size="83" transform="matrix(-1.83697e-16 -1 1 -1.83697e-16 1990.24 578)">dentry</text><rect x="2043.5" y="190.5" width="162" height="505" stroke="#000000" stroke-width="4.58333" stroke-miterlimit="8" fill="#EFF0F1"/><text font-family="Consolas,Consolas_MSFontService,sans-serif" font-weight="400" font-size="83" transform="matrix(-1.83697e-16 -1 1 -1.83697e-16 2152.27 578)">dentry</text><rect x="2205.5" y="190.5" width="162" height="505" stroke="#000000" stroke-width="4.58333" stroke-miterlimit="8" fill="#EFF0F1"/><text font-family="Consolas,Consolas_MSFontService,sans-serif" font-weight="400" font-size="83" transform="matrix(-1.83697e-16 -1 1 -1.83697e-16 2314.3 578)">dentry</text><path d="M1586 493.854 1849.45 493.854 1849.45 496.146 1586 496.146ZM1586 508.75C1578.41 508.75 1572.25 502.594 1572.25 495 1572.25 487.406 1578.41 481.25 1586 481.25 1593.59 481.25 1599.75 487.406 1599.75 495 1599.75 502.594 1593.59 508.75 1586 508.75ZM1844.87 481.25 1872.37 495 1844.87 508.75Z"/><text font-family="Microsoft YaHei,Microsoft YaHei_MSFontService,sans-serif" font-style="oblique" font-weight="400" font-size="73" transform="matrix(1 0 0 1 1069.97 153)">根目录</text><text fill="#C00000" font-family="Microsoft YaHei,Microsoft YaHei_MSFontService,sans-serif" font-style="oblique" font-weight="700" font-size="73" transform="matrix(1 0 0 1 1289.97 153)">索引节点</text><text font-family="Microsoft YaHei,Microsoft YaHei_MSFontService,sans-serif" font-weight="700" font-size="83" transform="matrix(1 0 0 1 1007.91 807)">根目录</text><text font-family="Calibri,Calibri_MSFontService,sans-serif" font-weight="700" font-size="83" transform="matrix(1 0 0 1 1255.41 807)">“/”</text><text font-family="Microsoft YaHei,Microsoft YaHei_MSFontService,sans-serif" font-weight="700" font-size="83" transform="matrix(1 0 0 1 1363.12 807)">结构</text><text font-family="Microsoft YaHei,Microsoft YaHei_MSFontService,sans-serif" font-style="oblique" font-weight="400" font-size="73" transform="matrix(1 0 0 1 1971.97 153)">根目录</text><text fill="#C00000" font-family="Microsoft YaHei,Microsoft YaHei_MSFontService,sans-serif" font-style="oblique" font-weight="700" font-size="73" transform="matrix(1 0 0 1 2191.97 153)">数据块</text><path d="M2.50264-2.35652 21.3548 17.6646 16.3495 22.3777-2.50264 2.35652ZM35.4939 32.6805 40.207 37.6858 35.2017 42.3988 30.4886 37.3935ZM54.3461 52.7016 73.1982 72.7227 68.193 77.4358 49.3408 57.4146ZM87.3374 87.7386 92.0504 92.7439 87.0451 97.4569 82.3321 92.4516ZM106.19 107.76 125.042 127.781 120.036 132.494 101.184 112.473ZM139.181 142.797 143.894 147.802 138.889 152.515 134.176 147.51ZM158.033 162.818 176.885 182.839 171.88 187.552 153.028 167.531ZM191.024 197.855 195.737 202.86 190.732 207.573 186.019 202.568ZM209.876 217.876 228.729 237.897 223.723 242.61 204.871 222.589ZM242.868 252.913 247.581 257.918 242.575 262.631 237.862 257.626ZM261.72 272.934 280.572 292.955 275.567 297.668 256.715 277.647ZM294.711 307.971 299.424 312.976 294.419 317.689 289.706 312.684ZM313.563 327.992 332.415 348.013 327.41 352.726 308.558 332.705ZM346.555 363.029 351.268 368.035 346.262 372.748 341.549 367.742ZM365.407 383.05 384.259 403.072 379.254 407.785 360.401 387.763ZM398.398 418.087 403.111 423.093 398.106 427.806 393.393 422.8ZM417.25 438.108 436.102 458.13 431.097 462.843 412.245 442.822ZM450.242 473.145 454.955 478.151 449.949 482.864 445.236 477.859ZM469.094 493.167 487.946 513.188 482.941 517.901 464.088 497.88ZM502.085 528.204 506.798 533.209 501.793 537.922 497.08 532.917ZM520.937 548.225 539.789 568.246 534.784 572.959 515.932 552.938ZM553.928 583.262 558.641 588.267 553.636 592.98 548.923 587.975ZM572.781 603.283 591.633 623.304 586.627 628.017 567.775 607.996ZM605.772 638.32 610.485 643.325 605.48 648.038 600.767 643.033ZM-10.0106 9.42609C-15.2164 3.89742-14.9548-4.80467-9.42609-10.0106-3.89742-15.2164 4.80467-14.9548 10.0106-9.42609 15.2164-3.89742 14.9548 4.80467 9.42609 10.0106 3.89742 15.2164-4.80467 14.9548-10.0106 9.42609ZM626.258 645.034 635.1 674.481 606.237 663.886Z" transform="matrix(-1 0 0 1 1962.6 695.5)"/><rect x="1015.5" y="1369.5" width="623" height="658" stroke="#000000" stroke-width="4.58333" stroke-miterlimit="8" fill="#C4B7D7"/><text font-family="Consolas,Consolas_MSFontService,sans-serif" font-weight="400" font-size="83" transform="matrix(1 0 0 1 1048.39 1479)">...</text><text font-family="Consolas,Consolas_MSFontService,sans-serif" font-weight="400" font-size="83" transform="matrix(1 0 0 1 1048.39 1578)">ino: 111</text><text font-family="Consolas,Consolas_MSFontService,sans-serif" font-weight="400" font-size="83" transform="matrix(1 0 0 1 1048.39 1677)">ftype</text><text font-family="Consolas,Consolas_MSFontService,sans-serif" font-weight="400" font-size="83" transform="matrix(1 0 0 1 1274.69 1677)">: FILE</text><text font-family="Consolas,Consolas_MSFontService,sans-serif" font-weight="400" font-size="83" transform="matrix(1 0 0 1 1048.39 1776)">pointer[0]:8 </text><text font-family="Consolas,Consolas_MSFontService,sans-serif" font-weight="400" font-size="83" transform="matrix(1 0 0 1 1048.39 1875)">pointer[1]:6</text><text font-family="Consolas,Consolas_MSFontService,sans-serif" font-weight="400" font-size="83" transform="matrix(1 0 0 1 1048.39 1974)">...</text><rect x="97.5001" y="1227.5" width="569" height="575" stroke="#FFFFFF" stroke-width="4.58333" stroke-miterlimit="8" fill="#705697"/><text fill="#FFFFFF" font-family="Times New Roman,Times New Roman_MSFontService,sans-serif" font-weight="700" font-size="83" transform="matrix(1 0 0 1 143.579 1446)">Lorem ipsum </text><text fill="#FFFFFF" font-family="Times New Roman,Times New Roman_MSFontService,sans-serif" font-weight="700" font-size="83" transform="matrix(1 0 0 1 129.096 1545)">dolor sit </text><text fill="#FFFFFF" font-family="Times New Roman,Times New Roman_MSFontService,sans-serif" font-weight="700" font-size="83" transform="matrix(1 0 0 1 439.273 1545)">amet</text><text fill="#FFFFFF" font-family="Times New Roman,Times New Roman_MSFontService,sans-serif" font-weight="700" font-size="83" transform="matrix(1 0 0 1 613.44 1545)">, </text><text fill="#FFFFFF" font-family="Times New Roman,Times New Roman_MSFontService,sans-serif" font-weight="700" font-size="83" transform="matrix(1 0 0 1 137.117 1644)">consectetur</text><text fill="#FFFFFF" font-family="Times New Roman,Times New Roman_MSFontService,sans-serif" font-weight="700" font-size="83" transform="matrix(1 0 0 1 540.45 1644)">…</text><path d="M1015.01 1744.57 684.526 1527.54 685.784 1525.62 1016.27 1742.65ZM1023.19 1732.12C1029.53 1736.28 1031.3 1744.81 1027.13 1751.16 1022.96 1757.5 1014.44 1759.27 1008.09 1755.1 1001.74 1750.93 999.977 1742.41 1004.15 1736.06 1008.31 1729.71 1016.84 1727.95 1023.19 1732.12ZM681.439 1540.59 666 1514 696.534 1517.6Z"/><text font-family="Times New Roman,Times New Roman_MSFontService,sans-serif" font-weight="700" font-size="83" transform="matrix(1 0 0 1 264.131 2621)">Block: 6</text><text font-family="Times New Roman,Times New Roman_MSFontService,sans-serif" font-weight="700" font-size="83" transform="matrix(1 0 0 1 1112.72 2637)">/fuse</text><text font-family="Microsoft YaHei,Microsoft YaHei_MSFontService,sans-serif" font-weight="700" font-size="83" transform="matrix(1 0 0 1 1277.72 2637)">文件结构</text><rect x="97.5001" y="1949.5" width="569" height="575" stroke="#FFFFFF" stroke-width="4.58333" stroke-miterlimit="8" fill="#705697"/><text fill="#FFFFFF" font-family="Times New Roman,Times New Roman_MSFontService,sans-serif" font-weight="700" font-size="83" transform="matrix(1 0 0 1 143.579 2168)">Lorem ipsum </text><text fill="#FFFFFF" font-family="Times New Roman,Times New Roman_MSFontService,sans-serif" font-weight="700" font-size="83" transform="matrix(1 0 0 1 129.096 2267)">dolor sit </text><text fill="#FFFFFF" font-family="Times New Roman,Times New Roman_MSFontService,sans-serif" font-weight="700" font-size="83" transform="matrix(1 0 0 1 439.273 2267)">amet</text><text fill="#FFFFFF" font-family="Times New Roman,Times New Roman_MSFontService,sans-serif" font-weight="700" font-size="83" transform="matrix(1 0 0 1 613.44 2267)">, </text><text fill="#FFFFFF" font-family="Times New Roman,Times New Roman_MSFontService,sans-serif" font-weight="700" font-size="83" transform="matrix(1 0 0 1 137.117 2366)">consectetur</text><text fill="#FFFFFF" font-family="Times New Roman,Times New Roman_MSFontService,sans-serif" font-weight="700" font-size="83" transform="matrix(1 0 0 1 540.45 2366)">…</text><path d="M0.824339-0.795864 337.963 348.406 336.315 349.997-0.824339 0.795864ZM-9.89206 9.55037C-15.1666 4.08714-15.0136-4.61754-9.55037-9.89206-4.08714-15.1666 4.61754-15.0136 9.89206-9.55037 15.1666-4.08714 15.0136 4.61754 9.55037 9.89206 4.08714 15.1666-4.61754 15.0136-9.89206 9.55037ZM343.848 336.354 353.057 365.689 324.064 355.455Z" transform="matrix(-1 0 0 1 1019.06 1871)"/><text font-family="Times New Roman,Times New Roman_MSFontService,sans-serif" font-weight="700" font-size="83" transform="matrix(1 0 0 1 264.131 1903)">Block: 8</text><text font-family="Times New Roman,Times New Roman_MSFontService,sans-serif" font-style="italic" font-weight="400" font-size="73" transform="matrix(1 0 0 1 1037.03 2132)">/fuse</text><text font-family="Microsoft YaHei,Microsoft YaHei_MSFontService,sans-serif" font-style="oblique" font-weight="400" font-size="73" transform="matrix(1 0 0 1 1176.25 2132)">文件</text><text fill="#C00000" font-family="Microsoft YaHei,Microsoft YaHei_MSFontService,sans-serif" font-style="oblique" font-weight="700" font-size="73" transform="matrix(1 0 0 1 1322.91 2132)">索引节点</text><text font-family="Times New Roman,Times New Roman_MSFontService,sans-serif" font-style="italic" font-weight="400" font-size="73" transform="matrix(1 0 0 1 128.638 1167)">/fuse</text><text font-family="Microsoft YaHei,Microsoft YaHei_MSFontService,sans-serif" font-style="oblique" font-weight="400" font-size="73" transform="matrix(1 0 0 1 267.856 1167)">文件</text><text fill="#C00000" font-family="Microsoft YaHei,Microsoft YaHei_MSFontService,sans-serif" font-style="oblique" font-weight="700" font-size="73" transform="matrix(1 0 0 1 414.523 1167)">数据块</text><rect x="1841.5" y="1073.5" width="672" height="639" stroke="#000000" stroke-width="6.875" stroke-miterlimit="8" stroke-dasharray="27.5 20.625" fill="#FFFFFF"/><rect x="1918.5" y="1263.5" width="174" height="183" stroke="#000000" stroke-width="4.58333" stroke-miterlimit="8" fill="#C4B7D7"/><rect x="2235.5" y="1100.5" width="174" height="176" stroke="#FFFFFF" stroke-width="4.58333" stroke-miterlimit="8" fill="#705697"/><text font-family="Times New Roman,Times New Roman_MSFontService,sans-serif" font-weight="700" font-size="83" transform="matrix(1 0 0 1 1891.37 1652)">/demo</text><text font-family="Microsoft YaHei,Microsoft YaHei_MSFontService,sans-serif" font-weight="700" font-size="83" transform="matrix(1 0 0 1 2106.78 1652)">文件结构</text><rect x="2235.5" y="1362.5" width="174" height="177" stroke="#FFFFFF" stroke-width="4.58333" stroke-miterlimit="8" fill="#705697"/><path d="M0.868915-0.746941 129.32 148.679 127.582 150.173-0.868915 0.746941ZM-10.427 8.9633C-15.3773 3.20464-14.722-5.47668-8.9633-10.427-3.20464-15.3773 5.47668-14.722 10.427-8.9633 15.3773-3.20464 14.722 5.47668 8.9633 10.427 3.20464 15.3773-5.47668 14.722-10.427 8.9633ZM135.89 136.987 143.389 166.804 115.036 154.914Z" transform="matrix(1 0 0 -1 2092 1354.8)"/><path d="M2092.64 1353.05 2216.99 1436.39 2215.71 1438.3 2091.36 1354.95ZM2084.34 1365.42C2078.04 1361.19 2076.35 1352.65 2080.58 1346.34 2084.81 1340.04 2093.35 1338.35 2099.66 1342.58 2105.96 1346.81 2107.65 1355.35 2103.42 1361.66 2099.19 1367.96 2090.65 1369.65 2084.34 1365.42ZM2220.2 1423.37 2235.39 1450.1 2204.89 1446.21Z"/><path d="M3.36417-0.706249 9.01416 26.2071 2.28583 27.6196-3.36417 0.706249ZM13.2517 46.3921 14.6642 53.1204 7.93582 54.5329 6.52332 47.8046ZM18.9016 73.3054 24.5516 100.219 17.8233 101.631 12.1733 74.7179ZM28.7891 120.404 30.2016 127.132 23.4733 128.545 22.0608 121.816ZM34.4391 147.317 40.0891 174.23 33.3608 175.643 27.7108 148.73ZM44.3266 194.415 45.7391 201.144 39.0108 202.556 37.5983 195.828ZM49.9766 221.329 55.6266 248.242 48.8983 249.655 43.2483 222.741ZM59.8641 268.427 61.2766 275.155 54.5483 276.568 53.1358 269.84ZM65.5141 295.34 71.1641 322.254 64.4358 323.666 58.7858 296.753ZM75.4016 342.439 76.8141 349.167 70.0858 350.58 68.6733 343.851ZM81.0516 369.352 86.7016 396.265 79.9733 397.678 74.3233 370.765ZM90.9391 416.45 92.3516 423.179 85.6233 424.591 84.2108 417.863ZM96.5891 443.364 102.239 470.277 95.5107 471.69 89.8607 444.776ZM106.477 490.462 107.889 497.19 101.161 498.603 99.7482 491.875ZM112.127 517.375 117.777 544.289 111.048 545.701 105.398 518.788ZM-13.4567 2.82499C-15.0169-4.60693-10.2569-11.8965-2.82499-13.4567 4.60693-15.0169 11.8965-10.2569 13.4567-2.82499 15.0169 4.60693 10.2569 11.8965 2.82499 13.4567-4.60693 15.0169-11.8965 10.2569-13.4567 2.82499ZM126.973 537.9 119.166 567.638 100.059 543.55Z" transform="matrix(-1 0 0 1 2124.67 695.5)"/><rect x="2734.5" y="1073.5" width="672" height="639" stroke="#000000" stroke-width="6.875" stroke-miterlimit="8" stroke-dasharray="27.5 20.625" fill="#FFFFFF"/><rect x="2811.5" y="1263.5" width="174" height="183" stroke="#000000" stroke-width="4.58333" stroke-miterlimit="8" fill="#C4B7D7"/><text font-family="Times New Roman,Times New Roman_MSFontService,sans-serif" font-weight="700" font-size="83" transform="matrix(1 0 0 1 2810.63 1185)">/hunt</text><text font-family="Microsoft YaHei,Microsoft YaHei_MSFontService,sans-serif" font-weight="700" font-size="83" transform="matrix(1 0 0 1 2998.55 1185)">目录结构</text><rect x="3128.5" y="1362.5" width="214" height="177" stroke="#000000" stroke-width="4.58333" stroke-miterlimit="8" fill="#705697"/><path d="M2985.64 1353.05 3109.99 1436.39 3108.71 1438.3 2984.36 1354.95ZM2977.34 1365.42C2971.04 1361.19 2969.35 1352.65 2973.58 1346.34 2977.81 1340.04 2986.35 1338.35 2992.66 1342.58 2998.96 1346.81 3000.65 1355.35 2996.42 1361.66 2992.19 1367.96 2983.65 1369.65 2977.34 1365.42ZM3113.2 1423.37 3128.39 1450.1 3097.89 1446.21Z"/><rect x="3132" y="1367" width="59.0002" height="169" fill="#EFF0F1"/><rect x="3197" y="1367" width="60.0002" height="169" fill="#EFF0F1"/><rect x="3260" y="1367" width="59.9998" height="169" fill="#EFF0F1"/><rect x="1841.5" y="2044.5" width="672" height="639" stroke="#000000" stroke-width="6.875" stroke-miterlimit="8" stroke-dasharray="27.5 20.625" fill="#FFFFFF"/><rect x="1918.5" y="2234.5" width="174" height="184" stroke="#000000" stroke-width="4.58333" stroke-miterlimit="8" fill="#C4B7D7"/><text font-family="Times New Roman,Times New Roman_MSFontService,sans-serif" font-weight="700" font-size="83" transform="matrix(1 0 0 1 1947.51 2625)">/hunt/test.sh</text><rect x="2235.5" y="2334.5" width="174" height="176" stroke="#FFFFFF" stroke-width="4.58333" stroke-miterlimit="8" fill="#705697"/><path d="M2092.64 2325.05 2216.99 2408.39 2215.71 2410.3 2091.36 2326.95ZM2084.34 2337.42C2078.04 2333.19 2076.35 2324.65 2080.58 2318.34 2084.81 2312.04 2093.35 2310.35 2099.66 2314.58 2105.96 2318.81 2107.65 2327.35 2103.42 2333.66 2099.19 2339.96 2090.65 2341.65 2084.34 2337.42ZM2220.2 2395.37 2235.39 2422.1 2204.89 2418.21Z"/><path d="M2288.84 692.979 2309 711.68 2304.33 716.721 2284.16 698.02ZM2324.12 725.705 2329.16 730.38 2324.49 735.421 2319.45 730.746ZM2344.29 744.405 2364.45 763.106 2359.77 768.147 2339.61 749.446ZM2379.57 777.131 2384.61 781.806 2379.94 786.847 2374.9 782.172ZM2399.73 795.831 2419.9 814.532 2415.22 819.573 2395.06 800.872ZM2435.02 828.557 2440.06 833.232 2435.39 838.273 2430.34 833.598ZM2455.18 847.257 2475.35 865.958 2470.67 870.999 2450.51 852.298ZM2490.47 879.983 2495.51 884.658 2490.83 889.699 2485.79 885.024ZM2510.63 898.683 2530.79 917.384 2526.12 922.425 2505.96 903.724ZM2545.92 931.409 2550.96 936.084 2546.28 941.125 2541.24 936.45ZM2566.08 950.109 2586.24 968.81 2581.57 973.851 2561.4 955.15ZM2601.36 982.835 2606.41 987.51 2601.73 992.551 2596.69 987.876ZM2621.53 1001.54 2641.69 1020.24 2637.02 1025.28 2616.85 1006.58ZM2656.81 1034.26 2661.85 1038.94 2657.18 1043.98 2652.14 1039.3ZM2676.98 1052.96 2697.14 1071.66 2692.46 1076.7 2672.3 1058ZM2712.26 1085.69 2717.3 1090.36 2712.63 1095.4 2707.59 1090.73ZM2732.42 1104.39 2752.59 1123.09 2747.91 1128.13 2727.75 1109.43ZM2767.71 1137.11 2772.75 1141.79 2768.07 1146.83 2763.03 1142.15ZM2787.87 1155.81 2808.04 1174.51 2803.36 1179.55 2783.2 1160.85ZM2823.16 1188.54 2828.2 1193.21 2823.52 1198.25 2818.48 1193.58ZM2843.32 1207.24 2863.48 1225.94 2858.81 1230.98 2838.65 1212.28ZM2878.61 1239.96 2883.65 1244.64 2878.97 1249.68 2873.93 1245.01ZM2277.15 705.581C2271.58 700.417 2271.25 691.718 2276.42 686.15 2281.58 680.582 2290.28 680.254 2295.85 685.418 2301.42 690.582 2301.75 699.282 2296.58 704.85 2291.42 710.418 2282.72 710.745 2277.15 705.581ZM2887.72 1234.36 2898.54 1263.14 2869.02 1254.52Z"/><path d="M1.7984-2.92953 25.2347 11.4577 21.6378 17.3167-1.7984 2.92953ZM42.8118 22.2481 48.6709 25.8449 45.0741 31.704 39.215 28.1072ZM66.2481 36.6353 89.6843 51.0225 86.0875 56.8816 62.6513 42.4944ZM107.262 61.813 113.121 65.4098 109.524 71.2688 103.665 67.672ZM130.698 76.2002 154.134 90.5874 150.537 96.4464 127.101 82.0592ZM171.711 101.378 177.57 104.975 173.973 110.834 168.114 107.237ZM195.147 115.765 218.584 130.152 214.987 136.011 191.551 121.624ZM236.161 140.943 242.02 144.539 238.423 150.399 232.564 146.802ZM259.597 155.33 283.033 169.717 279.437 175.576 256 161.189ZM300.611 180.507 306.47 184.104 302.873 189.963 297.014 186.367ZM324.047 194.895 347.483 209.282 343.886 215.141 320.45 200.754ZM365.06 220.072 370.919 223.669 367.323 229.528 361.464 225.931ZM388.497 234.46 411.933 248.847 408.336 254.706 384.9 240.319ZM429.51 259.637 435.369 263.234 431.772 269.093 425.913 265.496ZM452.946 274.024 476.383 288.412 472.786 294.271 449.349 279.883ZM493.96 299.202 499.819 302.799 496.222 308.658 490.363 305.061ZM517.396 313.589 540.832 327.977 537.235 333.836 513.799 319.448ZM558.409 338.767 564.268 342.364 560.672 348.223 554.812 344.626ZM581.846 353.154 605.282 367.541 601.685 373.4 578.249 359.013ZM622.859 378.332 628.718 381.929 625.121 387.788 619.262 384.191ZM646.295 392.719 669.731 407.106 666.135 412.965 642.698 398.578ZM687.309 417.897 693.168 421.493 689.571 427.352 683.712 423.756ZM710.745 432.284 734.181 446.671 730.584 452.53 707.148 438.143ZM751.758 457.461 757.617 461.058 754.021 466.917 748.161 463.32ZM775.195 471.849 798.631 486.236 795.034 492.095 771.598 477.708ZM816.208 497.026 822.067 500.623 818.47 506.482 812.611 502.885ZM839.644 511.413 863.081 525.801 859.484 531.66 836.047 517.273ZM880.658 536.591 886.517 540.188 882.92 546.047 877.061 542.45ZM904.094 550.978 927.53 565.366 923.933 571.225 900.497 556.837ZM945.107 576.156 950.966 579.753 947.37 585.612 941.511 582.015ZM968.544 590.543 991.98 604.93 988.383 610.789 964.947 596.402ZM1009.56 615.721 1015.42 619.318 1011.82 625.177 1005.96 621.58ZM1032.99 630.108 1056.43 644.495 1052.83 650.354 1029.4 635.967ZM1074.01 655.286 1079.87 658.883 1076.27 664.742 1070.41 661.145ZM1097.44 669.673 1118.91 682.851 1115.31 688.71 1093.85 675.532ZM-7.19358 11.7181C-13.6653 7.74524-15.691-0.721824-11.7181-7.19358-7.74524-13.6653 0.721824-15.691 7.19358-11.7181 13.6653-7.74524 15.691 0.721824 11.7181 7.19358 7.74524 13.6653-0.721824 15.691-7.19358 11.7181ZM1120.4 671.665 1136.64 697.771 1106.01 695.102Z" transform="matrix(-1 0 0 1 3151.14 1536.5)"/><rect x="2734.5" y="2048.5" width="672" height="639" stroke="#000000" stroke-width="6.875" stroke-miterlimit="8" stroke-dasharray="27.5 20.625" fill="#FFFFFF"/><rect x="2810.5" y="2237.5" width="174" height="184" stroke="#000000" stroke-width="4.58333" stroke-miterlimit="8" fill="#C4B7D7"/><text font-family="Times New Roman,Times New Roman_MSFontService,sans-serif" font-weight="700" font-size="83" transform="matrix(1 0 0 1 2862.95 2628)">/hunt/</text><text font-family="Times New Roman,Times New Roman_MSFontService,sans-serif" font-weight="700" font-size="83" transform="matrix(1 0 0 1 3073.78 2628)">bin.o</text><rect x="3128.5" y="2337.5" width="174" height="177" stroke="#FFFFFF" stroke-width="4.58333" stroke-miterlimit="8" fill="#705697"/><path d="M2984.64 2328.05 3108.99 2411.39 3107.71 2413.3 2983.36 2329.95ZM2976.34 2340.42C2970.04 2336.19 2968.35 2327.65 2972.58 2321.34 2976.81 2315.04 2985.35 2313.35 2991.66 2317.58 2997.96 2321.81 2999.65 2330.35 2995.42 2336.66 2991.19 2342.96 2982.65 2344.65 2976.34 2340.42ZM3112.2 2398.37 3127.39 2425.1 3096.89 2421.21Z"/><rect x="3128.5" y="2095.5" width="174" height="176" stroke="#FFFFFF" stroke-width="4.58333" stroke-miterlimit="8" fill="#705697"/><path d="M0.8187-0.801663 128.175 129.261 126.537 130.864-0.8187 0.801663ZM-9.8244 9.61996C-15.1374 4.19409-15.0458-4.51145-9.61996-9.8244-4.19409-15.1374 4.51145-15.0458 9.8244-9.61996 15.1374-4.19409 15.0458 4.51145 9.61996 9.8244 4.19409 15.1374-4.51145 15.0458-9.8244 9.61996ZM133.974 117.168 143.389 146.437 114.325 136.408Z" transform="matrix(1 0 0 -1 2984 2329.44)"/><path d="M3.11048-1.46333 14.8171 23.4205 8.59615 26.3472-3.11048 1.46333ZM23.5971 42.0834 26.5237 48.3043 20.3028 51.231 17.3761 45.01ZM35.3037 66.9672 47.0103 91.851 40.7894 94.7777 29.0827 69.8939ZM55.7903 110.514 58.7169 116.735 52.496 119.662 49.5693 113.441ZM67.4969 135.398 79.2035 160.282 72.9826 163.208 61.276 138.324ZM87.9835 178.944 90.9102 185.165 84.6892 188.092 81.7626 181.871ZM99.6901 203.828 111.397 228.712 105.176 231.639 93.4692 206.755ZM120.177 247.375 123.103 253.596 116.882 256.523 113.956 250.302ZM131.883 272.259 143.59 297.143 137.369 300.069 125.662 275.185ZM152.37 315.805 155.297 322.026 149.076 324.953 146.149 318.732ZM164.077 340.689 175.783 365.573 169.562 368.5 157.856 343.616ZM184.563 384.236 187.49 390.457 181.269 393.384 178.342 387.163ZM196.27 409.12 207.976 434.004 201.755 436.93 190.049 412.046ZM216.756 452.667 219.683 458.888 213.462 461.814 210.535 455.593ZM228.463 477.55 240.17 502.434 233.949 505.361 222.242 480.477ZM248.95 521.097 251.876 527.318 245.655 530.245 242.729 524.024ZM260.656 545.981 272.363 570.865 266.142 573.791 254.435 548.908ZM281.143 589.528 284.069 595.749 277.849 598.675 274.922 592.454ZM292.849 614.411 304.556 639.295 298.335 642.222 286.628 617.338ZM313.336 657.958 316.263 664.179 310.042 667.106 307.115 660.885ZM-12.4419 5.85332C-15.6746-1.01816-12.7248-9.20921-5.85332-12.4419 1.01816-15.6746 9.20921-12.7248 12.4419-5.85332 15.6746 1.01816 12.7248 9.20921 5.85332 12.4419-1.01816 15.6746-9.20921 12.7248-12.4419 5.85332ZM330.696 670.634 329.961 701.371 305.812 682.34Z" transform="matrix(-1 0 0 1 3227.46 1536.5)"/><rect x="3595.5" y="2048.5" width="672" height="639" stroke="#000000" stroke-width="6.875" stroke-miterlimit="8" stroke-dasharray="27.5 20.625" fill="#FFFFFF"/><rect x="3671.5" y="2237.5" width="174" height="184" stroke="#000000" stroke-width="4.58333" stroke-miterlimit="8" fill="#C4B7D7"/><text font-family="Times New Roman,Times New Roman_MSFontService,sans-serif" font-weight="700" font-size="83" transform="matrix(1 0 0 1 3709.94 2628)">/hunt/secret</text><rect x="3989.5" y="2095.5" width="174" height="176" stroke="#000000" stroke-width="4.58333" stroke-miterlimit="8" fill="#705697"/><path d="M0.8187-0.801663 128.175 129.261 126.537 130.864-0.8187 0.801663ZM-9.8244 9.61996C-15.1374 4.19409-15.0458-4.51145-9.61996-9.8244-4.19409-15.1374 4.51145-15.0458 9.8244-9.61996 15.1374-4.19409 15.0458 4.51145 9.61996 9.8244 4.19409 15.1374-4.51145 15.0458-9.8244 9.61996ZM133.974 117.168 143.389 146.437 114.325 136.408Z" transform="matrix(1 0 0 -1 3845 2329.44)"/><path d="M3293.36 1534.59 3308.62 1557.47 3302.91 1561.28 3287.64 1538.41ZM3320.07 1574.62 3323.89 1580.34 3318.17 1584.16 3314.36 1578.44ZM3335.34 1597.49 3350.6 1620.37 3344.89 1624.19 3329.62 1601.31ZM3362.05 1637.52 3365.87 1643.24 3360.15 1647.06 3356.34 1641.34ZM3377.32 1660.4 3392.59 1683.27 3386.87 1687.09 3371.6 1664.21ZM3404.03 1700.43 3407.85 1706.15 3402.13 1709.96 3398.32 1704.24ZM3419.3 1723.3 3434.57 1746.17 3428.85 1749.99 3413.58 1727.12ZM3446.02 1763.33 3449.83 1769.05 3444.11 1772.86 3440.3 1767.15ZM3461.28 1786.2 3476.55 1809.08 3470.83 1812.89 3455.56 1790.02ZM3488 1826.23 3491.81 1831.95 3486.09 1835.77 3482.28 1830.05ZM3503.26 1849.11 3518.53 1871.98 3512.81 1875.8 3497.54 1852.92ZM3529.98 1889.14 3533.79 1894.85 3528.07 1898.67 3524.26 1892.95ZM3545.24 1912.01 3560.51 1934.88 3554.79 1938.7 3539.52 1915.83ZM3571.96 1952.04 3575.77 1957.76 3570.05 1961.57 3566.24 1955.86ZM3587.22 1974.91 3602.49 1997.79 3596.77 2001.6 3581.5 1978.73ZM3613.94 2014.94 3617.75 2020.66 3612.04 2024.48 3608.22 2018.76ZM3629.2 2037.82 3644.47 2060.69 3638.75 2064.51 3623.48 2041.63ZM3655.92 2077.84 3659.73 2083.56 3654.02 2087.38 3650.2 2081.66ZM3671.18 2100.72 3686.45 2123.59 3680.73 2127.41 3665.46 2104.53ZM3697.9 2140.75 3701.71 2146.47 3696 2150.28 3692.18 2144.56ZM3713.16 2163.62 3728.43 2186.5 3722.71 2190.31 3707.45 2167.44ZM3739.88 2203.65 3743.69 2209.37 3737.98 2213.19 3734.16 2207.47ZM3279.06 1544.13C3274.85 1537.82 3276.55 1529.28 3282.87 1525.06 3289.18 1520.85 3297.72 1522.55 3301.94 1528.87 3306.15 1535.18 3304.45 1543.72 3298.13 1547.94 3291.82 1552.15 3283.28 1550.45 3279.06 1544.13ZM3754.76 2207.36 3758.58 2237.87 3731.88 2222.63Z"/><rect x="3996" y="2099" width="59.9998" height="169" fill="#EFF0F1"/><path d="M4029.31 2266.52 4045.17 2288.99 4039.55 2292.95 4023.69 2270.48ZM4057.06 2305.84 4061.02 2311.45 4055.41 2315.42 4051.44 2309.8ZM4072.91 2328.3 4088.77 2350.77 4083.15 2354.74 4067.3 2332.27ZM4100.66 2367.62 4104.63 2373.24 4099.01 2377.21 4095.05 2371.59ZM4116.52 2390.09 4132.38 2412.56 4126.76 2416.52 4110.9 2394.06ZM4144.27 2429.41 4148.23 2435.03 4142.62 2438.99 4138.65 2433.38ZM4160.13 2451.88 4175.98 2474.35 4170.37 2478.31 4154.51 2455.84ZM4187.88 2491.2 4191.84 2496.81 4186.22 2500.78 4182.26 2495.16ZM4203.73 2513.67 4219.59 2536.13 4213.97 2540.1 4198.12 2517.63ZM4231.48 2552.98 4235.45 2558.6 4229.83 2562.57 4225.87 2556.95ZM4247.34 2575.45 4263.2 2597.92 4257.58 2601.88 4241.72 2579.42ZM4275.09 2614.77 4279.05 2620.39 4273.44 2624.35 4269.47 2618.74ZM4290.95 2637.24 4306.8 2659.71 4301.19 2663.67 4285.33 2641.2ZM4318.7 2676.56 4322.66 2682.18 4317.04 2686.14 4313.08 2680.52ZM4334.55 2699.03 4341.98 2709.55 4336.36 2713.52 4328.94 2702.99ZM4015.27 2276.43C4010.89 2270.22 4012.37 2261.64 4018.57 2257.27 4024.78 2252.89 4033.35 2254.37 4037.73 2260.57 4042.11 2266.78 4040.63 2275.36 4034.43 2279.73 4028.22 2284.11 4019.64 2282.63 4015.27 2276.43ZM4347.76 2699.86 4352.39 2730.26 4325.3 2715.72Z"/><path d="M156.5 163.062 184 163.062 184 169.937 156.5 169.937ZM204.625 163.062 211.5 163.062 211.5 169.937 204.625 169.937ZM232.125 163.062 259.625 163.063 259.625 169.938 232.125 169.938ZM280.25 163.063 287.125 163.063 287.125 169.938 280.25 169.938ZM307.75 163.063 335.25 163.063 335.25 169.938 307.75 169.938ZM156.5 180.25C148.906 180.25 142.75 174.094 142.75 166.5 142.75 158.906 148.906 152.75 156.5 152.75 164.094 152.75 170.25 158.906 170.25 166.5 170.25 174.094 164.094 180.25 156.5 180.25ZM332.449 152.75 359.949 166.5 332.449 180.25Z"/><text font-family="Calibri,Calibri_MSFontService,sans-serif" font-weight="700" font-size="83" transform="matrix(1 0 0 1 128.142 321)">dentry</text><text font-family="Calibri,Calibri_MSFontService,sans-serif" font-weight="700" font-size="83" transform="matrix(1 0 0 1 354.054 321)">-</text><text font-family="Calibri,Calibri_MSFontService,sans-serif" font-weight="700" font-size="83" transform="matrix(1 0 0 1 379.263 321)">inode</text><text font-family="Microsoft YaHei,Microsoft YaHei_MSFontService,sans-serif" font-weight="700" font-size="83" transform="matrix(1 0 0 1 572.908 321)">指针</text><path d="M178 578.854 358.533 578.854 358.533 581.146 178 581.146ZM178 593.75C170.406 593.75 164.25 587.594 164.25 580 164.25 572.406 170.406 566.25 178 566.25 185.594 566.25 191.75 572.406 191.75 580 191.75 587.594 185.594 593.75 178 593.75ZM353.95 566.25 381.45 580 353.95 593.75Z"/><text font-family="Microsoft YaHei,Microsoft YaHei_MSFontService,sans-serif" font-weight="700" font-size="83" transform="matrix(1 0 0 1 150.748 735)">数据块索引指针</text></g></svg>