<svg width="1275" height="786" xmlns="http://www.w3.org/2000/svg" xmlns:xlink="http://www.w3.org/1999/xlink" overflow="hidden"><g transform="matrix(1 0 0 1 0 -17)"><rect x="6" y="312" width="495" height="470" stroke="#000000" stroke-width="2" stroke-miterlimit="8" stroke-dasharray="8 6" fill="#FFFFFF"/><rect x="267" y="20" width="495" height="226" stroke="#000000" stroke-width="2" stroke-miterlimit="8" stroke-dasharray="8 6" fill="#FFFFFF"/><rect x="295.5" y="55.5001" width="181" height="147" stroke="#000000" stroke-width="1.33333" stroke-miterlimit="8" fill="#C4B7D7"/><text font-family="Consolas,Consolas_MSFontService,sans-serif" font-weight="400" font-size="24" transform="translate(304.985 94)">...</text><text font-family="Consolas,Consolas_MSFontService,sans-serif" font-weight="400" font-size="24" transform="translate(304.985 122)">ftype</text><text font-family="Consolas,Consolas_MSFontService,sans-serif" font-weight="400" font-size="24" transform="translate(370.819 122)">: DIR</text><text font-family="Consolas,Consolas_MSFontService,sans-serif" font-weight="400" font-size="24" transform="translate(304.985 151)">pointer[0]:</text><text font-family="Consolas,Consolas_MSFontService,sans-serif" font-weight="400" font-size="24" transform="translate(304.985 180)">...</text><rect x="547.5" y="55.5001" width="181" height="147" stroke="#000000" stroke-width="1.33333" stroke-miterlimit="8" fill="#705697"/><rect x="547.5" y="55.5" width="47" height="147" stroke="#000000" stroke-width="1.33333" stroke-miterlimit="8" fill="#EFF0F1"/><text font-family="Consolas,Consolas_MSFontService,sans-serif" font-weight="400" font-size="24" transform="matrix(-1.83697e-16 -1 1 -1.83697e-16 579.287 168)">dentry</text><rect x="594.5" y="55.5" width="47" height="147" stroke="#000000" stroke-width="1.33333" stroke-miterlimit="8" fill="#EFF0F1"/><text font-family="Consolas,Consolas_MSFontService,sans-serif" font-weight="400" font-size="24" transform="matrix(-1.83697e-16 -1 1 -1.83697e-16 626.423 168)">dentry</text><rect x="641.5" y="55.5" width="48" height="147" stroke="#000000" stroke-width="1.33333" stroke-miterlimit="8" fill="#EFF0F1"/><text font-family="Consolas,Consolas_MSFontService,sans-serif" font-weight="400" font-size="24" transform="matrix(-1.83697e-16 -1 1 -1.83697e-16 673.559 168)">dentry</text><path d="M461.5 144.167 538.14 144.167 538.14 144.833 461.5 144.833ZM461.5 148.5C459.291 148.5 457.5 146.709 457.5 144.5 457.5 142.291 459.291 140.5 461.5 140.5 463.709 140.5 465.5 142.291 465.5 144.5 465.5 146.709 463.709 148.5 461.5 148.5ZM536.807 140.5 544.807 144.5 536.807 148.5Z"/><text font-family="Microsoft YaHei,Microsoft YaHei_MSFontService,sans-serif" font-style="oblique" font-weight="400" font-size="21" transform="translate(311.264 44)">根目录索引节点</text><text font-family="Microsoft YaHei,Microsoft YaHei_MSFontService,sans-serif" font-weight="700" font-size="24" transform="translate(293.211 235)">根目录</text><text font-family="Calibri,Calibri_MSFontService,sans-serif" font-weight="700" font-size="24" transform="translate(365.211 235)">“/”</text><text font-family="Microsoft YaHei,Microsoft YaHei_MSFontService,sans-serif" font-weight="700" font-size="24" transform="translate(396.544 235)">结构</text><text font-family="Microsoft YaHei,Microsoft YaHei_MSFontService,sans-serif" font-style="oblique" font-weight="400" font-size="21" transform="translate(573.664 44)">根目录数据块</text><path d="M0.728041-0.685533 6.21231 5.1388 4.75622 6.50986-0.728041 0.685533ZM10.3255 9.50705 11.6966 10.9631 10.2405 12.3342 8.86942 10.8781ZM15.8098 15.3314 21.294 21.1557 19.838 22.5268 14.3537 16.7024ZM25.4072 25.524 26.7783 26.98 25.3222 28.3511 23.9512 26.895ZM30.8915 31.3483 36.3758 37.1726 34.9197 38.5437 29.4354 32.7194ZM40.489 41.5409 41.86 42.9969 40.4039 44.368 39.0329 42.9119ZM45.9732 47.3652 51.4575 53.1895 50.0014 54.5606 44.5171 48.7363ZM55.5707 57.5578 56.9418 59.0139 55.4857 60.3849 54.1146 58.9288ZM61.055 63.3821 66.5392 69.2064 65.0831 70.5775 59.5989 64.7532ZM70.6524 73.5747 72.0235 75.0308 70.5674 76.4018 69.1963 74.9457ZM76.1367 79.399 81.621 85.2233 80.1649 86.5944 74.6806 80.7701ZM85.7342 89.5916 87.1052 91.0477 85.6491 92.4187 84.2781 90.9627ZM91.2184 95.4159 96.7027 101.24 95.2466 102.611 89.7623 96.787ZM100.816 105.608 102.187 107.065 100.731 108.436 99.3598 106.98ZM106.3 111.433 111.784 117.257 110.328 118.628 104.844 112.804ZM115.898 121.625 117.269 123.082 115.813 124.453 114.442 122.996ZM121.382 127.45 126.866 133.274 125.41 134.645 119.926 128.821ZM130.979 137.642 132.35 139.098 130.894 140.469 129.523 139.013ZM136.464 143.467 141.948 149.291 140.492 150.662 135.008 144.838ZM146.061 153.659 147.432 155.115 145.976 156.486 144.605 155.03ZM151.545 159.484 157.03 165.308 155.574 166.679 150.089 160.855ZM161.143 169.676 162.514 171.132 161.058 172.503 159.687 171.047ZM166.627 175.5 172.111 181.325 170.655 182.696 165.171 176.872ZM176.225 185.693 177.596 187.149 176.14 188.52 174.768 187.064ZM-2.91216 2.74214C-4.4266 1.13379-4.35048-1.39772-2.74214-2.91216-1.13379-4.4266 1.39772-4.35048 2.91216-2.74214 4.4266-1.13379 4.35048 1.39772 2.74214 2.91216 1.13379 4.4266-1.39772 4.35048-2.91216 2.74214ZM182.184 187.646 184.756 196.213 176.36 193.13Z" transform="matrix(-1 0 0 1 570.756 202)"/><rect x="295.5" y="398.5" width="181" height="192" stroke="#000000" stroke-width="1.33333" stroke-miterlimit="8" fill="#C4B7D7"/><text font-family="Consolas,Consolas_MSFontService,sans-serif" font-weight="400" font-size="24" transform="translate(304.985 431)">...</text><text font-family="Consolas,Consolas_MSFontService,sans-serif" font-weight="400" font-size="24" transform="translate(304.985 459)">ino: 111</text><text font-family="Consolas,Consolas_MSFontService,sans-serif" font-weight="400" font-size="24" transform="translate(304.985 488)">ftype</text><text font-family="Consolas,Consolas_MSFontService,sans-serif" font-weight="400" font-size="24" transform="translate(370.819 488)">: FILE</text><text font-family="Consolas,Consolas_MSFontService,sans-serif" font-weight="400" font-size="24" transform="translate(304.985 517)">pointer[0]:8</text><text font-family="Consolas,Consolas_MSFontService,sans-serif" font-weight="400" font-size="24" transform="translate(304.985 546)">pointer[1]:6</text><text font-family="Consolas,Consolas_MSFontService,sans-serif" font-weight="400" font-size="24" transform="translate(304.985 575)">...</text><rect x="28.5001" y="357.5" width="166" height="167" stroke="#FFFFFF" stroke-width="1.33333" stroke-miterlimit="8" fill="#705697"/><text fill="#FFFFFF" font-family="Times New Roman,Times New Roman_MSFontService,sans-serif" font-weight="700" font-size="24" transform="translate(41.7686 420)">Lorem ipsum</text><text fill="#FFFFFF" font-family="Times New Roman,Times New Roman_MSFontService,sans-serif" font-weight="700" font-size="24" transform="translate(37.5552 449)">dolor sit</text><text fill="#FFFFFF" font-family="Times New Roman,Times New Roman_MSFontService,sans-serif" font-weight="700" font-size="24" transform="translate(127.789 449)">amet</text><text fill="#FFFFFF" font-family="Times New Roman,Times New Roman_MSFontService,sans-serif" font-weight="700" font-size="24" transform="translate(178.455 449)">,</text><text fill="#FFFFFF" font-family="Times New Roman,Times New Roman_MSFontService,sans-serif" font-weight="700" font-size="24" transform="translate(39.8886 478)">consectetur</text><text fill="#FFFFFF" font-family="Times New Roman,Times New Roman_MSFontService,sans-serif" font-weight="700" font-size="24" transform="translate(157.222 478)">…</text><path d="M296.03 508.574 199.89 445.438 200.256 444.881 296.396 508.017ZM298.409 504.952C300.256 506.165 300.77 508.645 299.557 510.491 298.344 512.338 295.864 512.852 294.018 511.639 292.171 510.426 291.657 507.946 292.87 506.1 294.082 504.253 296.562 503.739 298.409 504.952ZM198.991 449.235 194.5 441.5 203.383 442.548Z"/><text font-family="Times New Roman,Times New Roman_MSFontService,sans-serif" font-weight="700" font-size="24" transform="translate(76.8382 762)">Block: 6</text><text font-family="Times New Roman,Times New Roman_MSFontService,sans-serif" font-weight="700" font-size="24" transform="translate(323.701 767)">/fuse</text><text font-family="Microsoft YaHei,Microsoft YaHei_MSFontService,sans-serif" font-weight="700" font-size="24" transform="translate(371.701 767)">文件结构</text><rect x="28.5001" y="567.5" width="166" height="167" stroke="#FFFFFF" stroke-width="1.33333" stroke-miterlimit="8" fill="#705697"/><text fill="#FFFFFF" font-family="Times New Roman,Times New Roman_MSFontService,sans-serif" font-weight="700" font-size="24" transform="translate(41.7686 630)">Lorem ipsum</text><text fill="#FFFFFF" font-family="Times New Roman,Times New Roman_MSFontService,sans-serif" font-weight="700" font-size="24" transform="translate(37.5552 659)">dolor sit</text><text fill="#FFFFFF" font-family="Times New Roman,Times New Roman_MSFontService,sans-serif" font-weight="700" font-size="24" transform="translate(127.789 659)">amet</text><text fill="#FFFFFF" font-family="Times New Roman,Times New Roman_MSFontService,sans-serif" font-weight="700" font-size="24" transform="translate(178.455 659)">,</text><text fill="#FFFFFF" font-family="Times New Roman,Times New Roman_MSFontService,sans-serif" font-weight="700" font-size="24" transform="translate(39.8886 688)">consectetur</text><text fill="#FFFFFF" font-family="Times New Roman,Times New Roman_MSFontService,sans-serif" font-weight="700" font-size="24" transform="translate(157.222 688)">…</text><path d="M0.239808-0.231524 98.3166 101.354 97.837 101.817-0.239808 0.231524ZM-2.87769 2.77829C-4.4121 1.18899-4.3676-1.34328-2.77829-2.87769-1.18899-4.4121 1.34328-4.3676 2.87769-2.77829 4.4121-1.18899 4.3676 1.34328 2.77829 2.87769 1.18899 4.4121-1.34328 4.3676-2.87769 2.77829ZM100.029 97.8485 102.707 106.382 94.2731 103.405Z" transform="matrix(-1 0 0 1 297.207 544.5)"/><text font-family="Times New Roman,Times New Roman_MSFontService,sans-serif" font-weight="700" font-size="24" transform="translate(76.8382 553)">Block: 8</text><text font-family="Times New Roman,Times New Roman_MSFontService,sans-serif" font-style="italic" font-weight="400" font-size="21" transform="translate(301.681 620)">/fuse</text><text font-family="Microsoft YaHei,Microsoft YaHei_MSFontService,sans-serif" font-style="oblique" font-weight="400" font-size="21" transform="translate(342.181 620)">文件索引节点</text><text font-family="Times New Roman,Times New Roman_MSFontService,sans-serif" font-style="italic" font-weight="400" font-size="21" transform="translate(37.4218 340)">/fuse</text><text font-family="Microsoft YaHei,Microsoft YaHei_MSFontService,sans-serif" font-style="oblique" font-weight="400" font-size="21" transform="translate(77.9218 340)">文件数据块</text><rect x="536" y="312" width="195" height="186" stroke="#000000" stroke-width="2" stroke-miterlimit="8" stroke-dasharray="8 6" fill="#FFFFFF"/><rect x="558.5" y="367.5" width="50" height="54" stroke="#000000" stroke-width="1.33333" stroke-miterlimit="8" fill="#C4B7D7"/><rect x="650.5" y="320.5" width="51" height="51" stroke="#FFFFFF" stroke-width="1.33333" stroke-miterlimit="8" fill="#705697"/><text font-family="Times New Roman,Times New Roman_MSFontService,sans-serif" font-weight="700" font-size="24" transform="translate(550.216 481)">/demo</text><text font-family="Microsoft YaHei,Microsoft YaHei_MSFontService,sans-serif" font-weight="700" font-size="24" transform="translate(612.883 481)">文件结构</text><rect x="650.5" y="396.5" width="51" height="52" stroke="#FFFFFF" stroke-width="1.33333" stroke-miterlimit="8" fill="#705697"/><path d="M0.252775-0.217292 37.6202 43.2521 37.1147 43.6867-0.252775 0.217292ZM-3.0333 2.60751C-4.47339 0.93226-4.28275-1.59322-2.60751-3.0333-0.93226-4.47339 1.59322-4.28275 3.0333-2.60751 4.47339-0.93226 4.28275 1.59322 2.60751 3.0333 0.93226 4.47339-1.59322 4.28275-3.0333 2.60751ZM39.5316 39.8508 41.7133 48.5249 33.465 45.0658Z" transform="matrix(1 0 0 -1 608.5 394.025)"/><path d="M608.686 394.223 644.861 418.469 644.49 419.022 608.314 394.777ZM606.273 397.823C604.438 396.593 603.947 394.108 605.177 392.273 606.407 390.438 608.892 389.947 610.727 391.177 612.562 392.407 613.053 394.892 611.823 396.727 610.593 398.562 608.108 399.053 606.273 397.823ZM645.795 414.68 650.213 422.457 641.341 421.326Z"/><path d="M0.978667-0.205454 2.6223 7.62388 0.664968 8.03479-0.978667 0.205454ZM3.85503 13.4959 4.26594 15.4532 2.3086 15.8641 1.89769 13.9068ZM5.49866 21.3252 7.1423 29.1545 5.18496 29.5655 3.54133 21.7361ZM8.37502 35.0265 8.78593 36.9839 6.8286 37.3948 6.41769 35.4375ZM10.0187 42.8559 11.6623 50.6852 9.70496 51.0961 8.06132 43.2668ZM12.895 56.5572 13.3059 58.5146 11.3486 58.9255 10.9377 56.9681ZM14.5387 64.3866 16.1823 72.2159 14.225 72.6268 12.5813 64.7975ZM17.415 78.0879 17.8259 80.0452 15.8686 80.4561 15.4577 78.4988ZM19.0586 85.9172 20.7023 93.7466 18.745 94.1575 17.1013 86.3281ZM21.935 99.6186 22.3459 101.576 20.3886 101.987 19.9777 100.029ZM23.5786 107.448 25.2223 115.277 23.2649 115.688 21.6213 107.859ZM26.455 121.149 26.8659 123.107 24.9086 123.517 24.4977 121.56ZM28.0986 128.979 29.7423 136.808 27.7849 137.219 26.1413 129.389ZM30.975 142.68 31.3859 144.637 29.4286 145.048 29.0177 143.091ZM32.6186 150.509 34.2623 158.339 32.3049 158.749 30.6613 150.92ZM-3.91467 0.821814C-4.36854-1.3402-2.98383-3.46079-0.821814-3.91467 1.3402-4.36854 3.46079-2.98383 3.91467-0.821814 4.36854 1.3402 2.98383 3.46079 0.821814 3.91467-1.3402 4.36854-3.46079 2.98383-3.91467 0.821814ZM36.9375 156.48 34.6665 165.131 29.1082 158.124Z" transform="matrix(-1 0 0 1 617.666 202)"/><rect x="795" y="312" width="196" height="186" stroke="#000000" stroke-width="2" stroke-miterlimit="8" stroke-dasharray="8 6" fill="#FFFFFF"/><rect x="818.5" y="367.5" width="50" height="54" stroke="#000000" stroke-width="1.33333" stroke-miterlimit="8" fill="#C4B7D7"/><text font-family="Times New Roman,Times New Roman_MSFontService,sans-serif" font-weight="700" font-size="24" transform="translate(817.637 345)">/</text><text font-family="Times New Roman,Times New Roman_MSFontService,sans-serif" font-weight="700" font-size="24" transform="translate(824.304 345)">hunt</text><text font-family="Microsoft YaHei,Microsoft YaHei_MSFontService,sans-serif" font-weight="700" font-size="24" transform="translate(872.304 345)">目录</text><text font-family="Microsoft YaHei,Microsoft YaHei_MSFontService,sans-serif" font-weight="700" font-size="24" transform="translate(920.304 345)">结构</text><rect x="910.5" y="396.5" width="62" height="52" stroke="#000000" stroke-width="1.33333" stroke-miterlimit="8" fill="#705697"/><path d="M868.686 394.223 904.861 418.469 904.49 419.022 868.314 394.777ZM866.273 397.823C864.438 396.593 863.947 394.108 865.177 392.273 866.407 390.438 868.892 389.947 870.727 391.177 872.562 392.407 873.053 394.892 871.823 396.727 870.593 398.562 868.108 399.053 866.273 397.823ZM905.795 414.68 910.213 422.457 901.341 421.326Z"/><rect x="911" y="398" width="17" height="49" fill="#EFF0F1"/><rect x="930" y="398" width="17" height="49" fill="#EFF0F1"/><rect x="948" y="398" width="18" height="49" fill="#EFF0F1"/><rect x="536" y="595" width="195" height="185" stroke="#000000" stroke-width="2" stroke-miterlimit="8" stroke-dasharray="8 6" fill="#FFFFFF"/><rect x="558.5" y="650.5" width="50" height="53" stroke="#000000" stroke-width="1.33333" stroke-miterlimit="8" fill="#C4B7D7"/><text font-family="Times New Roman,Times New Roman_MSFontService,sans-serif" font-weight="700" font-size="24" transform="translate(566.549 763)">/</text><text font-family="Times New Roman,Times New Roman_MSFontService,sans-serif" font-weight="700" font-size="24" transform="translate(573.216 763)">hunt/test.sh</text><rect x="650.5" y="679.5" width="51" height="51" stroke="#FFFFFF" stroke-width="1.33333" stroke-miterlimit="8" fill="#705697"/><path d="M608.686 677.223 644.861 701.469 644.49 702.022 608.314 677.777ZM606.273 680.823C604.438 679.593 603.947 677.108 605.177 675.273 606.407 673.438 608.892 672.947 610.727 674.177 612.562 675.407 613.053 677.892 611.823 679.727 610.593 681.562 608.108 682.053 606.273 680.823ZM645.795 697.68 650.213 705.457 641.341 704.326Z"/><path d="M665.68 201.267 671.546 206.707 670.186 208.173 664.32 202.733ZM675.945 210.787 677.411 212.147 676.051 213.613 674.585 212.253ZM681.81 216.227 687.676 221.667 686.316 223.134 680.45 217.693ZM692.075 225.747 693.542 227.107 692.182 228.574 690.715 227.214ZM697.941 231.187 703.806 236.627 702.446 238.094 696.581 232.654ZM708.206 240.708 709.672 242.068 708.312 243.534 706.846 242.174ZM714.071 246.148 719.937 251.588 718.577 253.054 712.711 247.614ZM724.336 255.668 725.802 257.028 724.442 258.494 722.976 257.134ZM730.202 261.108 736.067 266.548 734.707 268.014 728.842 262.574ZM740.466 270.628 741.933 271.988 740.573 273.455 739.106 272.095ZM746.332 276.068 752.198 281.508 750.838 282.975 744.972 277.535ZM756.597 285.588 758.063 286.948 756.703 288.415 755.237 287.055ZM762.462 291.029 768.328 296.469 766.968 297.935 761.102 292.495ZM772.727 300.549 774.194 301.909 772.834 303.375 771.367 302.015ZM778.593 305.989 784.458 311.429 783.098 312.895 777.233 307.455ZM788.858 315.509 790.324 316.869 788.964 318.335 787.498 316.975ZM794.723 320.949 800.589 326.389 799.229 327.856 793.363 322.415ZM804.988 330.469 806.454 331.829 805.094 333.296 803.628 331.936ZM810.854 335.909 816.719 341.349 815.359 342.816 809.494 337.376ZM821.118 345.43 822.585 346.79 821.225 348.256 819.758 346.896ZM826.984 350.87 832.85 356.31 831.49 357.776 825.624 352.336ZM837.249 360.39 838.715 361.75 837.355 363.216 835.889 361.856ZM662.28 204.933C660.66 203.431 660.565 200.9 662.067 199.28 663.569 197.66 666.1 197.565 667.72 199.067 669.34 200.569 669.435 203.1 667.933 204.72 666.431 206.34 663.9 206.435 662.28 204.933ZM839.901 358.758 843.047 367.131 834.461 364.624Z"/><path d="M0.523172-0.852227 7.34099 3.33314 6.29465 5.0376-0.523172 0.852227ZM12.4544 6.47217 14.1588 7.51852 13.1125 9.22297 11.408 8.17663ZM19.2722 10.6575 26.09 14.8429 25.0436 16.5474 18.2258 12.362ZM31.2034 17.9819 32.9078 19.0283 31.8615 20.7327 30.157 19.6864ZM38.0212 22.1673 44.839 26.3527 43.7926 28.0571 36.9748 23.8718ZM49.9524 29.4917 51.6568 30.5381 50.6105 32.2425 48.906 31.1962ZM56.7702 33.6771 63.588 37.8625 62.5417 39.5669 55.7238 35.3815ZM68.7014 41.0015 70.4058 42.0478 69.3595 43.7523 67.655 42.706ZM75.5192 45.1869 82.337 49.3722 81.2907 51.0767 74.4728 46.8913ZM87.4504 52.5113 89.1548 53.5576 88.1085 55.2621 86.404 54.2157ZM94.2682 56.6966 101.086 60.882 100.04 62.5865 93.2218 58.4011ZM106.199 64.021 107.904 65.0674 106.857 66.7718 105.153 65.7255ZM113.017 68.2064 119.835 72.3918 118.789 74.0962 111.971 69.9109ZM124.948 75.5308 126.653 76.5772 125.606 78.2816 123.902 77.2353ZM131.766 79.7162 138.584 83.9016 137.538 85.606 130.72 81.4206ZM143.697 87.0406 145.402 88.0869 144.355 89.7914 142.651 88.745ZM150.515 91.226 157.333 95.4113 156.287 97.1158 149.469 92.9304ZM162.446 98.5504 164.151 99.5967 163.104 101.301 161.4 100.255ZM169.264 102.736 176.082 106.921 175.036 108.626 168.218 104.44ZM181.195 110.06 182.9 111.106 181.853 112.811 180.149 111.765ZM188.013 114.246 194.831 118.431 193.785 120.135 186.967 115.95ZM199.944 121.57 201.649 122.616 200.602 124.321 198.898 123.274ZM206.762 125.755 213.58 129.941 212.534 131.645 205.716 127.46ZM218.693 133.08 220.398 134.126 219.351 135.83 217.647 134.784ZM225.511 137.265 232.329 141.45 231.283 143.155 224.465 138.97ZM237.442 144.589 239.147 145.636 238.1 147.34 236.396 146.294ZM244.26 148.775 251.078 152.96 250.032 154.665 243.214 150.479ZM256.191 156.099 257.896 157.146 256.849 158.85 255.145 157.804ZM263.009 160.285 269.827 164.47 268.781 166.174 261.963 161.989ZM274.94 167.609 276.645 168.655 275.598 170.36 273.894 169.313ZM281.758 171.794 288.576 175.98 287.53 177.684 280.712 173.499ZM293.689 179.119 295.394 180.165 294.347 181.87 292.643 180.823ZM300.507 183.304 307.325 187.49 306.279 189.194 299.461 185.009ZM312.438 190.629 314.143 191.675 313.096 193.379 311.392 192.333ZM319.256 194.814 325.501 198.648 324.455 200.352 318.21 196.518ZM-2.09268 3.40892C-3.97537 2.25316-4.56467-0.209985-3.40892-2.09268-2.25316-3.97537 0.209985-4.56467 2.09268-3.40892 3.97537-2.25316 4.56467 0.209985 3.40892 2.09268 2.25316 3.97537-0.209985 4.56467-2.09268 3.40892ZM325.935 195.394 330.66 202.988 321.749 202.211Z" transform="matrix(-1 0 0 1 916.66 447)"/><rect x="795" y="596" width="196" height="186" stroke="#000000" stroke-width="2" stroke-miterlimit="8" stroke-dasharray="8 6" fill="#FFFFFF"/><rect x="817.5" y="651.5" width="51" height="53" stroke="#000000" stroke-width="1.33333" stroke-miterlimit="8" fill="#C4B7D7"/><text font-family="Times New Roman,Times New Roman_MSFontService,sans-serif" font-weight="700" font-size="24" transform="translate(832.857 764)">/</text><text font-family="Times New Roman,Times New Roman_MSFontService,sans-serif" font-weight="700" font-size="24" transform="translate(839.524 764)">hunt/</text><text font-family="Times New Roman,Times New Roman_MSFontService,sans-serif" font-weight="700" font-size="24" transform="translate(894.191 764)">bin.o</text><rect x="910.5" y="680.5" width="50" height="51" stroke="#FFFFFF" stroke-width="1.33333" stroke-miterlimit="8" fill="#705697"/><path d="M868.686 678.223 904.861 702.469 904.49 703.022 868.314 678.777ZM866.273 681.823C864.438 680.593 863.947 678.108 865.177 676.273 866.407 674.438 868.892 673.947 870.727 675.177 872.562 676.407 873.053 678.892 871.823 680.727 870.593 682.562 868.108 683.053 866.273 681.823ZM905.795 698.68 910.213 706.457 901.341 705.326Z"/><rect x="910.5" y="609.5" width="50" height="52" stroke="#FFFFFF" stroke-width="1.33333" stroke-miterlimit="8" fill="#705697"/><path d="M0.238167-0.233211 37.2872 37.6032 36.8109 38.0697-0.238167 0.233211ZM-2.85801 2.79853C-4.4036 1.2201-4.37697-1.31242-2.79853-2.85801-1.2201-4.4036 1.31242-4.37697 2.85801-2.79853 4.4036-1.2201 4.37697 1.31242 2.79853 2.85801 1.2201 4.4036-1.31242 4.37697-2.85801 2.79853ZM38.9742 34.0852 41.7133 42.5998 33.2582 39.6823Z" transform="matrix(1 0 0 -1 868.5 678.1)"/><path d="M0.904866-0.425695 4.31043 6.81324 2.5007 7.66463-0.904866 0.425695ZM6.8646 12.2424 7.71599 14.0522 5.90626 14.9036 5.05487 13.0938ZM10.2702 19.4814 13.6757 26.7203 11.866 27.5717 8.46043 20.3328ZM16.2299 32.1495 17.0813 33.9592 15.2716 34.8106 14.4202 33.0009ZM19.6355 39.3884 23.041 46.6274 21.2313 47.4788 17.8257 40.2398ZM25.5952 52.0566 26.4466 53.8663 24.6369 54.7177 23.7855 52.908ZM29.0008 59.2955 32.4063 66.5344 30.5966 67.3858 27.191 60.1469ZM34.9605 71.9636 35.8119 73.7734 34.0022 74.6247 33.1508 72.815ZM38.3661 79.2026 41.7716 86.4415 39.9619 87.2929 36.5563 80.0539ZM44.3258 91.8707 45.1772 93.6804 43.3675 94.5318 42.5161 92.7221ZM47.7314 99.1096 51.1369 106.349 49.3272 107.2 45.9216 99.961ZM53.6911 111.778 54.5425 113.587 52.7328 114.439 51.8814 112.629ZM57.0967 119.017 60.5022 126.256 58.6925 127.107 55.2869 119.868ZM63.0564 131.685 63.9078 133.495 62.0981 134.346 61.2467 132.536ZM66.462 138.924 69.8675 146.163 68.0578 147.014 64.6522 139.775ZM72.4217 151.592 73.2731 153.402 71.4634 154.253 70.612 152.443ZM75.8273 158.831 79.2328 166.07 77.4231 166.921 74.0175 159.682ZM81.787 171.499 82.6384 173.309 80.8287 174.16 79.9773 172.35ZM85.1926 178.738 88.5981 185.977 86.7884 186.828 83.3828 179.589ZM91.1523 191.406 92.0037 193.216 90.194 194.067 89.3426 192.257ZM-3.61947 1.70278C-4.55989-0.296192-3.70176-2.67904-1.70278-3.61947 0.296192-4.55989 2.67904-3.70176 3.61947-1.70278 4.55989 0.296192 3.70176 2.67904 1.70278 3.61947-0.296192 4.55989-2.67904 3.70176-3.61947 1.70278ZM96.2025 195.093 95.9886 204.035 88.9635 198.499Z" transform="matrix(-1 0 0 1 938.989 447)"/><rect x="1046" y="596" width="195" height="186" stroke="#000000" stroke-width="2" stroke-miterlimit="8" stroke-dasharray="8 6" fill="#FFFFFF"/><rect x="1068.5" y="651.5" width="51" height="53" stroke="#000000" stroke-width="1.33333" stroke-miterlimit="8" fill="#C4B7D7"/><text font-family="Times New Roman,Times New Roman_MSFontService,sans-serif" font-weight="700" font-size="24" transform="translate(1079.26 764)">/</text><text font-family="Times New Roman,Times New Roman_MSFontService,sans-serif" font-weight="700" font-size="24" transform="translate(1085.92 764)">hunt/secret</text><rect x="1160.5" y="609.5" width="51" height="52" stroke="#000000" stroke-width="1.33333" stroke-miterlimit="8" fill="#705697"/><path d="M0.238167-0.233211 37.2872 37.6032 36.8109 38.0697-0.238167 0.233211ZM-2.85801 2.79853C-4.4036 1.2201-4.37697-1.31242-2.79853-2.85801-1.2201-4.4036 1.31242-4.37697 2.85801-2.79853 4.4036-1.2201 4.37697 1.31242 2.79853 2.85801 1.2201 4.4036-1.31242 4.37697-2.85801 2.79853ZM38.9742 34.0852 41.7133 42.5998 33.2582 39.6823Z" transform="matrix(1 0 0 -1 1119.5 678.1)"/><path d="M957.832 446.445 962.273 453.099 960.609 454.209 956.168 447.555ZM965.603 458.09 966.714 459.753 965.05 460.863 963.94 459.2ZM970.044 464.744 974.485 471.398 972.822 472.508 968.381 465.854ZM977.816 476.389 978.926 478.052 977.263 479.163 976.152 477.499ZM982.257 483.043 986.698 489.697 985.034 490.807 980.593 484.153ZM990.028 494.688 991.139 496.351 989.475 497.462 988.365 495.798ZM994.469 501.342 998.91 507.996 997.247 509.106 992.806 502.452ZM1002.24 512.987 1003.35 514.65 1001.69 515.761 1000.58 514.097ZM1006.68 519.641 1011.12 526.295 1009.46 527.405 1005.02 520.751ZM1014.45 531.286 1015.56 532.949 1013.9 534.06 1012.79 532.396ZM1018.89 537.94 1023.34 544.594 1021.67 545.704 1017.23 539.05ZM1026.67 549.585 1027.78 551.248 1026.11 552.359 1025 550.695ZM1031.11 556.239 1035.55 562.893 1033.88 564.004 1029.44 557.349ZM1038.88 567.884 1039.99 569.547 1038.33 570.658 1037.21 568.994ZM1043.32 574.538 1047.76 581.192 1046.1 582.303 1041.66 575.648ZM1051.09 586.183 1052.2 587.846 1050.54 588.957 1049.43 587.293ZM1055.53 592.837 1059.97 599.491 1058.31 600.602 1053.87 593.947ZM1063.3 604.482 1064.41 606.146 1062.75 607.256 1061.64 605.592ZM1067.74 611.136 1072.19 617.79 1070.52 618.901 1066.08 612.246ZM1075.52 622.781 1076.63 624.445 1074.96 625.555 1073.85 623.891ZM1079.96 629.435 1084.4 636.089 1082.73 637.2 1078.29 630.545ZM1087.73 641.08 1088.84 642.744 1087.18 643.854 1086.06 642.19ZM953.673 449.22C952.447 447.383 952.942 444.899 954.78 443.673 956.617 442.447 959.101 442.942 960.327 444.78 961.553 446.617 961.058 449.101 959.22 450.327 957.383 451.553 954.899 451.058 953.673 449.22ZM1092.06 642.161 1093.17 651.035 1085.4 646.601Z"/><rect x="1163" y="611" width="17" height="49" fill="#EFF0F1"/><path d="M1171.82 659.423 1176.43 665.96 1174.8 667.113 1170.18 660.577ZM1179.89 670.862 1181.04 672.496 1179.41 673.649 1178.26 672.015ZM1184.5 677.398 1189.12 683.934 1187.48 685.087 1182.87 678.551ZM1192.58 688.836 1193.73 690.47 1192.09 691.623 1190.94 689.989ZM1197.19 695.372 1201.8 701.908 1200.17 703.062 1195.55 696.525ZM1205.26 706.81 1206.41 708.444 1204.78 709.598 1203.63 707.964ZM1209.87 713.346 1214.49 719.883 1212.85 721.036 1208.24 714.5ZM1217.95 724.785 1219.1 726.419 1217.47 727.572 1216.31 725.938ZM1222.56 731.321 1227.17 737.857 1225.54 739.01 1220.92 732.474ZM1230.63 742.759 1231.78 744.393 1230.15 745.546 1229 743.912ZM1235.24 749.295 1239.86 755.831 1238.22 756.985 1233.61 750.448ZM1243.32 760.734 1244.47 762.368 1242.84 763.521 1241.68 761.887ZM1247.93 767.27 1252.54 773.806 1250.91 774.959 1246.3 768.423ZM1256 778.708 1257.16 780.342 1255.52 781.495 1254.37 779.861ZM1260.62 785.244 1262.78 788.306 1261.14 789.459 1258.98 786.397ZM1167.73 662.306C1166.46 660.502 1166.89 658.006 1168.69 656.732 1170.5 655.458 1172.99 655.889 1174.27 657.694 1175.54 659.498 1175.11 661.994 1173.31 663.268 1171.5 664.542 1169.01 664.111 1167.73 662.306ZM1264.46 785.487 1265.8 794.329 1257.92 790.1Z"/><path d="M45 47 53 47 53 49 45 49ZM59 47 61 47 61 49 59 49ZM67 47 75 47.0001 75 49.0001 67 49ZM81 47.0001 83 47.0001 83 49.0001 81 49.0001ZM89 47.0001 97 47.0001 97 49.0001 89 49.0001ZM45 52C42.7909 52 41 50.2091 41 48 41 45.7909 42.7909 44 45 44 47.2091 44 49 45.7909 49 48 49 50.2091 47.2091 52 45 52ZM96.1853 44.0001 104.185 48.0001 96.1853 52.0001Z"/><text font-family="Calibri,Calibri_MSFontService,sans-serif" font-weight="700" font-size="24" transform="translate(37.2776 94)">dentry</text><text font-family="Calibri,Calibri_MSFontService,sans-serif" font-weight="700" font-size="24" transform="translate(102.998 94)">-</text><text font-family="Calibri,Calibri_MSFontService,sans-serif" font-weight="700" font-size="24" transform="translate(110.331 94)">inode</text><text font-family="Microsoft YaHei,Microsoft YaHei_MSFontService,sans-serif" font-weight="700" font-size="24" transform="translate(166.664 94)">指针</text><path d="M52.5001 169.167 105.019 169.167 105.019 169.833 52.5001 169.833ZM52.5 173.5C50.2909 173.5 48.5 171.709 48.5001 169.5 48.5001 167.291 50.2909 165.5 52.5001 165.5 54.7092 165.5 56.5001 167.291 56.5001 169.5 56.5 171.709 54.7092 173.5 52.5 173.5ZM103.685 165.5 111.685 169.5 103.685 173.5Z"/><text font-family="Microsoft YaHei,Microsoft YaHei_MSFontService,sans-serif" font-weight="700" font-size="24" transform="translate(43.854 214)">数据块索引指针</text></g></svg>