<svg width="4034" height="1369" xmlns="http://www.w3.org/2000/svg" xmlns:xlink="http://www.w3.org/1999/xlink" xml:space="preserve" overflow="hidden"><g transform="translate(-21 -715)"><rect x="458.5" y="767.5" width="433" height="285" stroke="#000000" stroke-width="4.58333" stroke-miterlimit="8" fill="#FFFFFF"/><text font-family="Microsoft YaHei,Microsoft YaHei_MSFontService,sans-serif" font-weight="400" font-size="83" transform="matrix(1 0 0 1 496.547 888)">目录</text><text font-family="Calibri,Calibri_MSFontService,sans-serif" font-weight="400" font-size="83" transform="matrix(1 0 0 1 661.547 888)">inode</text><text font-family="Microsoft YaHei,Microsoft YaHei_MSFontService,sans-serif" font-weight="400" font-size="83" transform="matrix(1 0 0 1 509.449 987)">（内存）</text><rect x="645.5" y="1259.5" width="58.9998" height="230" stroke="#000000" stroke-width="4.58333" stroke-miterlimit="8" fill="#C4B7D7"/><rect x="891.5" y="1259.5" width="59.0001" height="230" stroke="#000000" stroke-width="4.58333" stroke-miterlimit="8" fill="#C4B7D7"/><rect x="1140.5" y="1259.5" width="58.9998" height="230" stroke="#000000" stroke-width="4.58333" stroke-miterlimit="8" fill="#C4B7D7"/><rect x="1389.5" y="1259.5" width="59.0001" height="230" stroke="#000000" stroke-width="4.58333" stroke-miterlimit="8" fill="#C4B7D7"/><path d="M675.146 1052 675.146 1236.25 672.855 1236.25 672.854 1052ZM660.25 1052C660.25 1044.41 666.406 1038.25 674 1038.25 681.594 1038.25 687.75 1044.41 687.75 1052 687.75 1059.59 681.594 1065.75 674 1065.75 666.406 1065.75 660.25 1059.59 660.25 1052ZM687.75 1231.67 674 1259.17 660.25 1231.67Z"/><path d="M704 1372.85 868.198 1372.85 868.198 1375.15 704 1375.15ZM704 1387.75C696.406 1387.75 690.25 1381.59 690.25 1374 690.25 1366.41 696.406 1360.25 704 1360.25 711.594 1360.25 717.75 1366.41 717.75 1374 717.75 1381.59 711.594 1387.75 704 1387.75ZM863.615 1360.25 891.115 1374 863.615 1387.75Z"/><path d="M950 1372.85 1117.64 1372.85 1117.64 1375.15 950 1375.15ZM950 1387.75C942.406 1387.75 936.25 1381.59 936.25 1374 936.25 1366.41 942.406 1360.25 950 1360.25 957.594 1360.25 963.75 1366.41 963.75 1374 963.75 1381.59 957.594 1387.75 950 1387.75ZM1113.05 1360.25 1140.55 1374 1113.05 1387.75Z"/><path d="M1199 1372.85 1366.64 1372.85 1366.64 1375.15 1199 1375.15ZM1199 1387.75C1191.41 1387.75 1185.25 1381.59 1185.25 1374 1185.25 1366.41 1191.41 1360.25 1199 1360.25 1206.59 1360.25 1212.75 1366.41 1212.75 1374 1212.75 1381.59 1206.59 1387.75 1199 1387.75ZM1362.05 1360.25 1389.55 1374 1362.05 1387.75Z"/><text font-family="Consolas,Consolas_MSFontService,sans-serif" font-weight="400" font-size="83" transform="matrix(1 0 0 1 70.9283 1183)">f</text><text font-family="Consolas,Consolas_MSFontService,sans-serif" font-weight="400" font-size="83" transform="matrix(1 0 0 1 116.189 1183)">irst_child</text><text font-family="Consolas,Consolas_MSFontService,sans-serif" font-weight="400" font-size="83" transform="matrix(1 0 0 1 886.417 1644)">brother</text><rect x="1900.5" y="767.5" width="433" height="285" stroke="#000000" stroke-width="4.58333" stroke-miterlimit="8" fill="#FFFFFF"/><text font-family="Microsoft YaHei,Microsoft YaHei_MSFontService,sans-serif" font-weight="400" font-size="83" transform="matrix(1 0 0 1 1938.24 888)">目录</text><text font-family="Calibri,Calibri_MSFontService,sans-serif" font-weight="400" font-size="83" transform="matrix(1 0 0 1 2103.24 888)">inode</text><text font-family="Microsoft YaHei,Microsoft YaHei_MSFontService,sans-serif" font-weight="400" font-size="83" transform="matrix(1 0 0 1 1951.14 987)">（内存）</text><rect x="2087.5" y="1259.5" width="57.9998" height="230" stroke="#000000" stroke-width="4.58333" stroke-miterlimit="8" fill="#C4B7D7"/><rect x="2333.5" y="1259.5" width="58" height="230" stroke="#000000" stroke-width="4.58333" stroke-miterlimit="8" fill="#C4B7D7"/><rect x="2582.5" y="1259.5" width="57.9998" height="230" stroke="#000000" stroke-width="4.58333" stroke-miterlimit="8" fill="#C4B7D7"/><rect x="2831.5" y="1259.5" width="59.0002" height="230" stroke="#000000" stroke-width="4.58333" stroke-miterlimit="8" fill="#C4B7D7"/><path d="M2117.15 1052 2117.15 1236.25 2114.85 1236.25 2114.85 1052ZM2102.25 1052C2102.25 1044.41 2108.41 1038.25 2116 1038.25 2123.59 1038.25 2129.75 1044.41 2129.75 1052 2129.75 1059.59 2123.59 1065.75 2116 1065.75 2108.41 1065.75 2102.25 1059.59 2102.25 1052ZM2129.75 1231.67 2116 1259.17 2102.25 1231.67Z"/><path d="M2145 1372.85 2309.2 1372.85 2309.2 1375.15 2145 1375.15ZM2145 1387.75C2137.41 1387.75 2131.25 1381.59 2131.25 1374 2131.25 1366.41 2137.41 1360.25 2145 1360.25 2152.59 1360.25 2158.75 1366.41 2158.75 1374 2158.75 1381.59 2152.59 1387.75 2145 1387.75ZM2304.61 1360.25 2332.11 1374 2304.61 1387.75Z"/><path d="M2391 1372.85 2558.64 1372.85 2558.64 1375.15 2391 1375.15ZM2391 1387.75C2383.41 1387.75 2377.25 1381.59 2377.25 1374 2377.25 1366.41 2383.41 1360.25 2391 1360.25 2398.59 1360.25 2404.75 1366.41 2404.75 1374 2404.75 1381.59 2398.59 1387.75 2391 1387.75ZM2554.05 1360.25 2581.55 1374 2554.05 1387.75Z"/><path d="M2640 1372.85 2807.64 1372.85 2807.64 1375.15 2640 1375.15ZM2640 1387.75C2632.41 1387.75 2626.25 1381.59 2626.25 1374 2626.25 1366.41 2632.41 1360.25 2640 1360.25 2647.59 1360.25 2653.75 1366.41 2653.75 1374 2653.75 1381.59 2647.59 1387.75 2640 1387.75ZM2803.05 1360.25 2830.55 1374 2803.05 1387.75Z"/><rect x="2087.5" y="1556.5" width="57.9998" height="230" stroke="#000000" stroke-width="4.58333" stroke-miterlimit="8" fill="#C4B7D7"/><rect x="2333.5" y="1556.5" width="58" height="230" stroke="#000000" stroke-width="4.58333" stroke-miterlimit="8" fill="#C4B7D7"/><rect x="2582.5" y="1556.5" width="57.9998" height="230" stroke="#000000" stroke-width="4.58333" stroke-miterlimit="8" fill="#C4B7D7"/><path d="M2145 1669.85 2309.2 1669.85 2309.2 1672.15 2145 1672.15ZM2145 1684.75C2137.41 1684.75 2131.25 1678.59 2131.25 1671 2131.25 1663.41 2137.41 1657.25 2145 1657.25 2152.59 1657.25 2158.75 1663.41 2158.75 1671 2158.75 1678.59 2152.59 1684.75 2145 1684.75ZM2304.61 1657.25 2332.11 1671 2304.61 1684.75Z"/><path d="M2391 1669.85 2558.64 1669.85 2558.64 1672.15 2391 1672.15ZM2391 1684.75C2383.41 1684.75 2377.25 1678.59 2377.25 1671 2377.25 1663.41 2383.41 1657.25 2391 1657.25 2398.59 1657.25 2404.75 1663.41 2404.75 1671 2404.75 1678.59 2398.59 1684.75 2391 1684.75ZM2554.05 1657.25 2581.55 1671 2554.05 1684.75Z"/><path d="M0 0 0.000360892 1126.04" stroke="#000000" stroke-width="6.875" stroke-miterlimit="8" stroke-dasharray="27.5 20.625" fill="none" fill-rule="evenodd" transform="matrix(1 0 0 -1 1650.5 1844.54)"/><rect x="3322.5" y="767.5" width="433" height="285" stroke="#000000" stroke-width="4.58333" stroke-miterlimit="8" fill="#FFFFFF"/><text font-family="Microsoft YaHei,Microsoft YaHei_MSFontService,sans-serif" font-weight="400" font-size="83" transform="matrix(1 0 0 1 3360.56 888)">目录</text><text font-family="Calibri,Calibri_MSFontService,sans-serif" font-weight="400" font-size="83" transform="matrix(1 0 0 1 3525.56 888)">inode</text><text font-family="Microsoft YaHei,Microsoft YaHei_MSFontService,sans-serif" font-weight="400" font-size="83" transform="matrix(1 0 0 1 3373.46 987)">（内存）</text><rect x="3509.5" y="1259.5" width="59.0002" height="230" stroke="#000000" stroke-width="4.58333" stroke-miterlimit="8" fill="#C4B7D7"/><path d="M3539.15 1052 3539.15 1236.25 3536.85 1236.25 3536.85 1052ZM3524.25 1052C3524.25 1044.41 3530.41 1038.25 3538 1038.25 3545.59 1038.25 3551.75 1044.41 3551.75 1052 3551.75 1059.59 3545.59 1065.75 3538 1065.75 3530.41 1065.75 3524.25 1059.59 3524.25 1052ZM3551.75 1231.67 3538 1259.17 3524.25 1231.67Z"/><path d="M3568.97 1373.39 3743.87 1651.08 3741.93 1652.31 3567.03 1374.61ZM3556.37 1381.33C3552.32 1374.9 3554.25 1366.41 3560.67 1362.37 3567.1 1358.32 3575.59 1360.25 3579.63 1366.67 3583.68 1373.1 3581.75 1381.59 3575.33 1385.63 3568.9 1389.68 3560.41 1387.75 3556.37 1381.33ZM3752.09 1640.49 3755.11 1671.09 3728.82 1655.14Z"/><rect x="3322.5" y="1556.5" width="58" height="230" stroke="#000000" stroke-width="4.58333" stroke-miterlimit="8" fill="#C4B7D7"/><rect x="3755.5" y="1556.5" width="59.0002" height="230" stroke="#000000" stroke-width="4.58333" stroke-miterlimit="8" fill="#C4B7D7"/><rect x="3994.5" y="1556.5" width="58" height="230" stroke="#000000" stroke-width="4.58333" stroke-miterlimit="8" fill="#C4B7D7"/><path d="M0.864724-0.751788 144.098 163.998 142.368 165.502-0.864724 0.751788ZM-10.3767 9.02146C-15.3591 3.29057-14.7523-5.39428-9.02146-10.3767-3.29057-15.3591 5.39428-14.7523 10.3767-9.02146 15.3591-3.29057 14.7523 5.39428 9.02146 10.3767 3.29057 15.3591-5.39428 14.7523-10.3767 9.02146ZM150.602 152.269 158.269 182.044 129.849 170.312Z" transform="matrix(-1 0 0 1 3509.27 1374)"/><path d="M3814 1669.85 3971.21 1669.85 3971.21 1672.15 3814 1672.15ZM3814 1684.75C3806.41 1684.75 3800.25 1678.59 3800.25 1671 3800.25 1663.41 3806.41 1657.25 3814 1657.25 3821.59 1657.25 3827.75 1663.41 3827.75 1671 3827.75 1678.59 3821.59 1684.75 3814 1684.75ZM3966.63 1657.25 3994.13 1671 3966.63 1684.75Z"/><path d="M0 0 0.000360892 1126.04" stroke="#000000" stroke-width="6.875" stroke-miterlimit="8" stroke-dasharray="27.5 20.625" fill="none" fill-rule="evenodd" transform="matrix(1 0 0 -1 3076.5 1861.54)"/><rect x="378" y="1919" width="1026" height="133" fill="#FFFFFF"/><text fill="#C00000" font-family="Microsoft YaHei,Microsoft YaHei_MSFontService,sans-serif" font-weight="700" font-size="83" transform="matrix(1 0 0 1 432.552 2014)">链表型（</text><text fill="#C00000" font-family="Times New Roman,Times New Roman_MSFontService,sans-serif" font-weight="700" font-size="83" transform="matrix(1 0 0 1 762.552 2014)">SimpleFS</text><text fill="#C00000" font-family="Microsoft YaHei,Microsoft YaHei_MSFontService,sans-serif" font-weight="700" font-size="83" transform="matrix(1 0 0 1 1101.72 2014)">实现）</text><rect x="1864" y="1919" width="1026" height="133" fill="#FFFFFF"/><text font-family="Microsoft YaHei,Microsoft YaHei_MSFontService,sans-serif" font-weight="700" font-size="83" transform="matrix(1 0 0 1 2211.97 2014)">哈希表型</text><rect x="3296" y="1919" width="756" height="133" fill="#FFFFFF"/><text font-family="Microsoft YaHei,Microsoft YaHei_MSFontService,sans-serif" font-weight="700" font-size="83" transform="matrix(1 0 0 1 3509.2 2014)">树状索引</text></g></svg>