<svg width="4699" height="1758" xmlns="http://www.w3.org/2000/svg" xmlns:xlink="http://www.w3.org/1999/xlink" xml:space="preserve" overflow="hidden"><g transform="translate(170 -432)"><rect x="-166.5" y="440.5" width="1749" height="1733" stroke="#000000" stroke-width="6.875" stroke-miterlimit="8" stroke-dasharray="27.5 20.625" fill="#FFFFFF"/><text font-family="Times New Roman,Times New Roman_MSFontService,sans-serif" font-weight="700" font-size="83" transform="matrix(1 0 0 1 -67.9957 936)">Byte </text><text font-family="Times New Roman,Times New Roman_MSFontService,sans-serif" font-weight="700" font-size="83" transform="matrix(1 0 0 1 -113.829 1035)">Cursor</text><text font-family="Times New Roman,Times New Roman_MSFontService,sans-serif" font-weight="700" font-size="83" transform="matrix(1 0 0 1 -63.6233 1248)">1 Byte</text><text font-family="Times New Roman,Times New Roman_MSFontService,sans-serif" font-weight="700" font-size="83" transform="matrix(1 0 0 1 -63.6233 1519)">1 Byte</text><text font-family="Times New Roman,Times New Roman_MSFontService,sans-serif" font-weight="700" font-size="83" transform="matrix(1 0 0 1 -63.6233 1791)">1 Byte</text><text font-family="Times New Roman,Times New Roman_MSFontService,sans-serif" font-weight="700" font-size="83" transform="matrix(1 0 0 1 -63.6233 2043)">1 Byte</text><rect x="247.5" y="880.5" width="143" height="152" stroke="#000000" stroke-width="4.58333" stroke-miterlimit="8" fill="#C4B7D7"/><rect x="390.5" y="880.5" width="143" height="152" stroke="#000000" stroke-width="4.58333" stroke-miterlimit="8" fill="#C4B7D7"/><rect x="533.5" y="880.5" width="142" height="152" stroke="#000000" stroke-width="4.58333" stroke-miterlimit="8" fill="#C4B7D7"/><rect x="675.5" y="880.5" width="143" height="152" stroke="#000000" stroke-width="4.58333" stroke-miterlimit="8" fill="#C4B7D7"/><rect x="818.5" y="880.5" width="142" height="152" stroke="#000000" stroke-width="4.58333" stroke-miterlimit="8" fill="#C4B7D7"/><rect x="960.5" y="880.5" width="143" height="152" stroke="#000000" stroke-width="4.58333" stroke-miterlimit="8" fill="#C4B7D7"/><rect x="1103.5" y="880.5" width="143" height="152" stroke="#000000" stroke-width="4.58333" stroke-miterlimit="8" fill="#C4B7D7"/><rect x="1246.5" y="880.5" width="142" height="152" stroke="#000000" stroke-width="4.58333" stroke-miterlimit="8" fill="#C4B7D7"/><rect x="247.5" y="1152.5" width="143" height="151" stroke="#000000" stroke-width="4.58333" stroke-miterlimit="8" fill="#C4B7D7"/><rect x="390.5" y="1152.5" width="143" height="151" stroke="#000000" stroke-width="4.58333" stroke-miterlimit="8" fill="#C4B7D7"/><rect x="533.5" y="1152.5" width="142" height="151" stroke="#000000" stroke-width="4.58333" stroke-miterlimit="8" fill="#C4B7D7"/><rect x="675.5" y="1152.5" width="143" height="151" stroke="#000000" stroke-width="4.58333" stroke-miterlimit="8" fill="#C4B7D7"/><rect x="818.5" y="1152.5" width="142" height="151" stroke="#000000" stroke-width="4.58333" stroke-miterlimit="8" fill="#C4B7D7"/><rect x="960.5" y="1152.5" width="143" height="151" stroke="#000000" stroke-width="4.58333" stroke-miterlimit="8" fill="#C4B7D7"/><rect x="1103.5" y="1152.5" width="143" height="151" stroke="#000000" stroke-width="4.58333" stroke-miterlimit="8" fill="#C4B7D7"/><rect x="1246.5" y="1152.5" width="142" height="151" stroke="#000000" stroke-width="4.58333" stroke-miterlimit="8" fill="#C4B7D7"/><rect x="247.5" y="1423.5" width="143" height="151" stroke="#000000" stroke-width="4.58333" stroke-miterlimit="8" fill="#C4B7D7"/><rect x="390.5" y="1423.5" width="143" height="151" stroke="#000000" stroke-width="4.58333" stroke-miterlimit="8" fill="#EFF0F1"/><rect x="533.5" y="1423.5" width="142" height="151" stroke="#000000" stroke-width="4.58333" stroke-miterlimit="8" fill="#C4B7D7"/><rect x="675.5" y="1423.5" width="143" height="151" stroke="#000000" stroke-width="4.58333" stroke-miterlimit="8" fill="#C4B7D7"/><rect x="818.5" y="1423.5" width="142" height="151" stroke="#000000" stroke-width="4.58333" stroke-miterlimit="8" fill="#EFF0F1"/><rect x="960.5" y="1423.5" width="143" height="151" stroke="#000000" stroke-width="4.58333" stroke-miterlimit="8" fill="#C4B7D7"/><rect x="1103.5" y="1423.5" width="143" height="151" stroke="#000000" stroke-width="4.58333" stroke-miterlimit="8" fill="#EFF0F1"/><rect x="1246.5" y="1423.5" width="142" height="151" stroke="#000000" stroke-width="4.58333" stroke-miterlimit="8" fill="#C4B7D7"/><rect x="247.5" y="1694.5" width="143" height="152" stroke="#000000" stroke-width="4.58333" stroke-miterlimit="8" fill="#EFF0F1"/><rect x="390.5" y="1694.5" width="143" height="152" stroke="#000000" stroke-width="4.58333" stroke-miterlimit="8" fill="#EFF0F1"/><rect x="533.5" y="1694.5" width="142" height="152" stroke="#000000" stroke-width="4.58333" stroke-miterlimit="8" fill="#EFF0F1"/><rect x="675.5" y="1694.5" width="143" height="152" stroke="#000000" stroke-width="4.58333" stroke-miterlimit="8" fill="#EFF0F1"/><rect x="818.5" y="1694.5" width="142" height="152" stroke="#000000" stroke-width="4.58333" stroke-miterlimit="8" fill="#EFF0F1"/><rect x="960.5" y="1694.5" width="143" height="152" stroke="#000000" stroke-width="4.58333" stroke-miterlimit="8" fill="#EFF0F1"/><rect x="1103.5" y="1694.5" width="143" height="152" stroke="#000000" stroke-width="4.58333" stroke-miterlimit="8" fill="#EFF0F1"/><rect x="1246.5" y="1694.5" width="142" height="152" stroke="#000000" stroke-width="4.58333" stroke-miterlimit="8" fill="#EFF0F1"/><path d="M0.0576549 1.14438-7.66702 1.53356-7.5569 1.52266-15.2211 2.65707-15.1188 2.63712-22.6621 4.46707-22.567 4.4396-29.929 6.91543-29.8404 6.88145-36.9607 9.95347-36.8774 9.91351-43.6956 13.532-43.6168 13.4861-50.0724 17.6015-49.9972 17.5492-56.0298 22.1117-55.9573 22.0521-61.5065 27.0121-61.4365 26.9439-66.4418 32.2516-66.3742 32.1731-70.7752 37.779-70.7106 37.6878-74.447 43.5422-74.387 43.4361-77.3982 49.4891-77.3456 49.3658-79.5713 55.5679-79.5305 55.426-80.9102 61.7275-80.8869 61.5676-81.3602 67.9188-81.3696 67.6641-81.1318 69.2538-81.2185 68.9566-80.5099 70.5456-80.6346 70.3317-79.4627 71.9191-79.5851 71.7787-77.9575 73.3638-78.0624 73.2733-75.9865 74.8552-76.0723 74.7958-73.5555 76.3739-73.625 76.3336-70.6748 77.907-70.7314 77.8788-67.3553 79.4468-67.4018 79.4264-63.6073 80.9882-63.6461 80.9731-59.4407 82.5278-59.4734 82.5163-54.8645 84.0633-54.8924 84.0543-49.8875 85.5928-49.9116 85.5857-44.5181 87.1148-44.5391 87.1091-38.7646 88.6282-38.7915 88.6214-26.1291 91.6262-26.1586 91.6196-12.0615 94.5747-12.0856 94.5699 3.3863 97.4691 3.36621 97.4655 20.1531 100.303 20.136 100.3 38.1782 103.069 38.1634 103.066 57.4011 105.761 57.388 105.759 77.7615 108.372 77.7497 108.371 99.1991 110.898 99.1885 110.896 121.654 113.33 121.644 113.329 145.066 115.663 145.057 115.662 169.376 117.891 169.368 117.89 194.523 120.007 194.515 120.006 220.448 122.005 220.44 122.004 247.09 123.879 247.083 123.878 274.39 125.622 274.383 125.622 302.288 127.229 302.281 127.229 330.724 128.693 330.718 128.693 359.639 130.009 359.632 130.008 388.972 131.169 388.962 131.168 448.658 132.998 448.644 132.998 509.297 134.132 509.283 134.132 570.412 134.521 631.55 134.911 692.216 136.045 751.924 137.876 781.272 139.036 810.2 140.352 838.65 141.817 866.562 143.425 893.877 145.169 920.535 147.044 946.475 149.044 971.639 151.161 995.966 153.39 1019.4 155.725 1041.87 158.16 1063.33 160.688 1083.72 163.303 1102.97 165.999 1121.03 168.77 1137.84 171.61 1153.33 174.513 1167.45 177.474 1180.14 180.486 1185.94 182.011 1191.36 183.546 1196.39 185.093 1201.03 186.65 1205.27 188.218 1209.11 189.797 1212.54 191.389 1215.55 192.997 1218.14 194.624 1220.32 196.279 1222.06 197.978 1223.36 199.741 1224.18 201.586 1224.46 203.457 1223.98 210.017 1222.56 216.47 1220.29 222.805 1217.22 228.973 1213.42 234.926 1208.95 240.616 1203.88 245.997 1198.26 251.021 1192.15 255.64 1185.62 259.804 1178.72 263.466 1171.47 266.595 1163.65 268.488 1163.11 266.261 1170.83 264.39 1170.65 264.452 1177.77 261.38 1177.69 261.42 1184.51 257.801 1184.43 257.847 1190.88 253.732 1190.81 253.784 1196.84 249.222 1196.77 249.281 1202.32 244.321 1202.25 244.389 1207.25 239.082 1207.18 239.16 1211.59 233.554 1211.52 233.645 1215.26 227.791 1215.2 227.897 1218.21 221.844 1218.16 221.968 1220.38 215.765 1220.34 215.907 1221.72 209.606 1221.7 209.766 1222.17 203.415 1222.18 203.669 1221.94 202.08 1222.03 202.377 1221.32 200.788 1221.44 201.002 1220.27 199.414 1220.39 199.555 1218.77 197.97 1218.87 198.06 1216.8 196.478 1216.88 196.538 1214.37 194.96 1214.43 195 1211.48 193.426 1211.54 193.455 1208.16 191.887 1208.21 191.907 1204.42 190.345 1204.46 190.36 1200.25 188.806 1200.28 188.817 1195.67 187.27 1195.7 187.279 1190.7 185.741 1190.72 185.748 1185.33 184.219 1185.35 184.224 1179.57 182.705 1179.6 182.712 1166.94 179.707 1166.97 179.714 1152.87 176.759 1152.9 176.764 1137.42 173.865 1137.44 173.868 1120.66 171.031 1120.67 171.034 1102.63 168.265 1102.65 168.267 1083.41 165.573 1083.42 165.575 1063.05 162.961 1063.06 162.963 1041.61 160.436 1041.62 160.437 1019.16 158.004 1019.17 158.005 995.743 155.671 995.752 155.672 971.434 153.443 971.442 153.444 946.287 151.328 946.295 151.328 920.362 149.33 920.37 149.33 893.72 147.456 893.727 147.456 866.42 145.712 866.427 145.713 838.522 144.105 838.529 144.106 810.086 142.641 810.093 142.641 781.171 141.326 781.178 141.326 751.838 140.166 751.848 140.166 692.152 138.336 692.166 138.337 631.514 137.202 631.528 137.202 570.398 136.813 509.261 136.424 448.595 135.289 388.887 133.459 359.538 132.298 330.61 130.982 302.16 129.517 274.248 127.909 246.933 126.165 220.275 124.29 194.335 122.29 169.171 120.173 144.844 117.944 121.412 115.609 98.9364 113.174 77.4757 110.646 57.0898 108.031 37.8381 105.335 19.7798 102.564 2.97425 99.7234-12.5197 96.8201-26.6435 93.8594-39.3342 90.848-45.1327 89.3226-50.5488 87.787-55.5798 86.2405-60.2191 84.6833-64.4603 83.1153-68.2976 81.5359-71.7253 79.944-74.7388 78.3368-77.3339 76.7096-79.5066 75.054-81.2509 73.3553-82.5522 71.5926-83.3751 69.7474-83.655 67.8764-83.1662 61.3165-81.7533 54.8635-79.4799 48.5285-76.4116 42.3607-72.6123 36.4078-68.1447 30.7171-63.0702 25.336-57.4496 20.3122-51.343 15.6937-44.8102 11.5292-37.9109 7.8676-30.7046 4.75845-23.2505 2.25168-15.6083 0.39774-7.83765-0.75242-0.0576549-1.14438ZM1170.27 280.126 1140.81 271.333 1165.52 253.04Z" transform="matrix(-1 0 0 1 1387.81 956)"/><path d="M0.0576549 1.14438-7.66702 1.53356-7.5569 1.52266-15.2211 2.65707-15.1188 2.63712-22.6621 4.46707-22.567 4.4396-29.929 6.91543-29.8404 6.88145-36.9607 9.95347-36.8774 9.91351-43.6956 13.532-43.6168 13.4861-50.0724 17.6015-49.9972 17.5492-56.0298 22.1117-55.9573 22.0521-61.5065 27.0121-61.4365 26.9439-66.4418 32.2516-66.3742 32.1731-70.7752 37.779-70.7106 37.6878-74.447 43.5422-74.387 43.4361-77.3982 49.4891-77.3456 49.3658-79.5713 55.5679-79.5305 55.426-80.9102 61.7275-80.8869 61.5676-81.3602 67.9188-81.3696 67.6641-81.1318 69.2538-81.2185 68.9566-80.5099 70.5456-80.6346 70.3317-79.4627 71.9191-79.5851 71.7787-77.9575 73.3638-78.0624 73.2733-75.9865 74.8552-76.0723 74.7958-73.5555 76.3739-73.625 76.3336-70.6748 77.907-70.7314 77.8788-67.3553 79.4468-67.4018 79.4264-63.6073 80.9882-63.6461 80.9731-59.4407 82.5278-59.4734 82.5163-54.8645 84.0633-54.8924 84.0543-49.8875 85.5928-49.9116 85.5857-44.5181 87.1148-44.5391 87.1091-38.7646 88.6282-38.7915 88.6214-26.1291 91.6262-26.1586 91.6196-12.0615 94.5747-12.0856 94.5699 3.3863 97.4691 3.36621 97.4655 20.1531 100.303 20.136 100.3 38.1782 103.069 38.1634 103.066 57.4011 105.761 57.388 105.759 77.7615 108.372 77.7497 108.371 99.1991 110.898 99.1885 110.896 121.654 113.33 121.644 113.329 145.066 115.663 145.057 115.662 169.376 117.891 169.368 117.89 194.523 120.007 194.515 120.006 220.448 122.005 220.44 122.004 247.09 123.879 247.083 123.878 274.39 125.622 274.383 125.622 302.288 127.229 302.281 127.229 330.724 128.693 330.718 128.693 359.639 130.009 359.632 130.008 388.972 131.169 388.962 131.168 448.658 132.998 448.644 132.998 509.297 134.132 509.283 134.132 570.412 134.521 631.55 134.911 692.216 136.045 751.924 137.876 781.272 139.036 810.2 140.352 838.65 141.817 866.562 143.425 893.877 145.169 920.535 147.044 946.475 149.044 971.639 151.161 995.966 153.39 1019.4 155.725 1041.87 158.16 1063.33 160.688 1083.72 163.303 1102.97 165.999 1121.03 168.77 1137.84 171.61 1153.33 174.513 1167.45 177.474 1180.14 180.486 1185.94 182.011 1191.36 183.546 1196.39 185.093 1201.03 186.65 1205.27 188.218 1209.11 189.797 1212.54 191.389 1215.55 192.997 1218.14 194.624 1220.32 196.279 1222.06 197.978 1223.36 199.741 1224.18 201.586 1224.46 203.457 1223.98 210.017 1222.56 216.47 1220.29 222.805 1217.22 228.973 1213.42 234.926 1208.95 240.616 1203.88 245.997 1198.26 251.021 1192.15 255.64 1185.62 259.804 1178.72 263.466 1171.47 266.595 1163.65 268.488 1163.11 266.261 1170.83 264.39 1170.65 264.452 1177.77 261.38 1177.69 261.42 1184.51 257.801 1184.43 257.847 1190.88 253.732 1190.81 253.784 1196.84 249.222 1196.77 249.281 1202.32 244.321 1202.25 244.389 1207.25 239.082 1207.18 239.16 1211.59 233.554 1211.52 233.645 1215.26 227.791 1215.2 227.897 1218.21 221.844 1218.16 221.968 1220.38 215.765 1220.34 215.907 1221.72 209.606 1221.7 209.766 1222.17 203.415 1222.18 203.669 1221.94 202.08 1222.03 202.377 1221.32 200.788 1221.44 201.002 1220.27 199.414 1220.39 199.555 1218.77 197.97 1218.87 198.06 1216.8 196.478 1216.88 196.538 1214.37 194.96 1214.43 195 1211.48 193.426 1211.54 193.455 1208.16 191.887 1208.21 191.907 1204.42 190.345 1204.46 190.36 1200.25 188.806 1200.28 188.817 1195.67 187.27 1195.7 187.279 1190.7 185.741 1190.72 185.748 1185.33 184.219 1185.35 184.224 1179.57 182.705 1179.6 182.712 1166.94 179.707 1166.97 179.714 1152.87 176.759 1152.9 176.764 1137.42 173.865 1137.44 173.868 1120.66 171.031 1120.67 171.034 1102.63 168.265 1102.65 168.267 1083.41 165.573 1083.42 165.575 1063.05 162.961 1063.06 162.963 1041.61 160.436 1041.62 160.437 1019.16 158.004 1019.17 158.005 995.743 155.671 995.752 155.672 971.434 153.443 971.442 153.444 946.287 151.328 946.295 151.328 920.362 149.33 920.37 149.33 893.72 147.456 893.727 147.456 866.42 145.712 866.427 145.713 838.522 144.105 838.529 144.106 810.086 142.641 810.093 142.641 781.171 141.326 781.178 141.326 751.838 140.166 751.848 140.166 692.152 138.336 692.166 138.337 631.514 137.202 631.528 137.202 570.398 136.813 509.261 136.424 448.595 135.289 388.887 133.459 359.538 132.298 330.61 130.982 302.16 129.517 274.248 127.909 246.933 126.165 220.275 124.29 194.335 122.29 169.171 120.173 144.844 117.944 121.412 115.609 98.9364 113.174 77.4757 110.646 57.0898 108.031 37.8381 105.335 19.7798 102.564 2.97425 99.7234-12.5197 96.8201-26.6435 93.8594-39.3342 90.848-45.1327 89.3226-50.5488 87.787-55.5798 86.2405-60.2191 84.6833-64.4603 83.1153-68.2976 81.5359-71.7253 79.944-74.7388 78.3368-77.3339 76.7096-79.5066 75.054-81.2509 73.3553-82.5522 71.5926-83.3751 69.7474-83.655 67.8764-83.1662 61.3165-81.7533 54.8635-79.4799 48.5285-76.4116 42.3607-72.6123 36.4078-68.1447 30.7171-63.0702 25.336-57.4496 20.3122-51.343 15.6937-44.8102 11.5292-37.9109 7.8676-30.7046 4.75845-23.2505 2.25168-15.6083 0.39774-7.83765-0.75242-0.0576549-1.14438ZM1170.27 280.126 1140.81 271.333 1165.52 253.04Z" transform="matrix(-1 0 0 1 1387.81 1227)"/><rect x="247.5" y="493.5" width="143" height="151" stroke="#000000" stroke-width="4.58333" stroke-miterlimit="8" fill="#EFF0F1"/><rect x="766.5" y="493.5" width="142" height="151" stroke="#000000" stroke-width="4.58333" stroke-miterlimit="8" fill="#C4B7D7"/><text font-family="Microsoft YaHei,Microsoft YaHei_MSFontService,sans-serif" font-weight="400" font-size="83" transform="matrix(1 0 0 1 423.012 593)">空闲</text><text font-family="Microsoft YaHei,Microsoft YaHei_MSFontService,sans-serif" font-weight="400" font-size="83" transform="matrix(1 0 0 1 980.602 593)">非</text><text font-family="Microsoft YaHei,Microsoft YaHei_MSFontService,sans-serif" font-weight="400" font-size="83" transform="matrix(1 0 0 1 1063.1 593)">空闲</text><rect x="1685.5" y="440.5" width="2801" height="1733" stroke="#000000" stroke-width="6.875" stroke-linejoin="round" stroke-miterlimit="10" stroke-dasharray="27.5 20.625" fill="none"/><text fill="#4B69C6" font-family="Consolas,Consolas_MSFontService,sans-serif" font-weight="400" font-size="83" transform="matrix(1 0 0 1 1717.74 535)">for</text><text fill="#777777" font-family="Consolas,Consolas_MSFontService,sans-serif" font-weight="400" font-size="83" transform="matrix(1 0 0 1 1898.79 535)">(</text><text fill="#7A3E9D" font-family="Consolas,Consolas_MSFontService,sans-serif" font-weight="400" font-size="83" transform="matrix(1 0 0 1 1944.05 535)">byte_cursor</text><text fill="#777777" font-family="Consolas,Consolas_MSFontService,sans-serif" font-weight="400" font-size="83" transform="matrix(1 0 0 1 2487.17 535)">=</text><text fill="#9C5D27" font-family="Consolas,Consolas_MSFontService,sans-serif" font-weight="400" font-size="83" transform="matrix(1 0 0 1 2577.69 535)">0</text><text fill="#777777" font-family="Consolas,Consolas_MSFontService,sans-serif" font-weight="400" font-size="83" transform="matrix(1 0 0 1 2622.95 535)">;</text><text fill="#7A3E9D" font-family="Consolas,Consolas_MSFontService,sans-serif" font-weight="400" font-size="83" transform="matrix(1 0 0 1 2713.47 535)">byte_cursor</text><text fill="#777777" font-family="Consolas,Consolas_MSFontService,sans-serif" font-weight="400" font-size="83" transform="matrix(1 0 0 1 3256.6 535)">&lt;</text><text fill="#AA3731" font-family="Consolas,Consolas_MSFontService,sans-serif" font-weight="700" font-size="83" transform="matrix(1 0 0 1 3347.12 535)">BLKS_SZ</text><text fill="#777777" font-family="Consolas,Consolas_MSFontService,sans-serif" font-weight="400" font-size="83" transform="matrix(1 0 0 1 3663.94 535)">(</text><text fill="#7A3E9D" font-family="Consolas,Consolas_MSFontService,sans-serif" font-weight="400" font-size="83" transform="matrix(1 0 0 1 3709.2 535)">map_inode_blks</text><text fill="#777777" font-family="Consolas,Consolas_MSFontService,sans-serif" font-weight="400" font-size="83" transform="matrix(1 0 0 1 4342.85 535)">);</text><text fill="#7A3E9D" font-family="Consolas,Consolas_MSFontService,sans-serif" font-weight="400" font-size="83" transform="matrix(1 0 0 1 1944.05 634)">byte_cursor</text><text fill="#777777" font-family="Consolas,Consolas_MSFontService,sans-serif" font-weight="400" font-size="83" transform="matrix(1 0 0 1 2441.91 634)">++)</text><text fill="#777777" font-family="Consolas,Consolas_MSFontService,sans-serif" font-weight="400" font-size="83" transform="matrix(1 0 0 1 1717.74 733)">{</text><text fill="#4B69C6" font-family="Consolas,Consolas_MSFontService,sans-serif" font-weight="400" font-size="83" transform="matrix(1 0 0 1 1898.79 832)">for</text><text fill="#777777" font-family="Consolas,Consolas_MSFontService,sans-serif" font-weight="400" font-size="83" transform="matrix(1 0 0 1 2079.83 832)">(</text><text fill="#7A3E9D" font-family="Consolas,Consolas_MSFontService,sans-serif" font-weight="400" font-size="83" transform="matrix(1 0 0 1 2125.09 832)">bit_cursor</text><text fill="#777777" font-family="Consolas,Consolas_MSFontService,sans-serif" font-weight="400" font-size="83" transform="matrix(1 0 0 1 2622.95 832)">=</text><text fill="#9C5D27" font-family="Consolas,Consolas_MSFontService,sans-serif" font-weight="400" font-size="83" transform="matrix(1 0 0 1 2713.47 832)">0</text><text fill="#777777" font-family="Consolas,Consolas_MSFontService,sans-serif" font-weight="400" font-size="83" transform="matrix(1 0 0 1 2758.73 832)">;</text><text fill="#7A3E9D" font-family="Consolas,Consolas_MSFontService,sans-serif" font-weight="400" font-size="83" transform="matrix(1 0 0 1 2849.25 832)">bit_cursor</text><text fill="#777777" font-family="Consolas,Consolas_MSFontService,sans-serif" font-weight="400" font-size="83" transform="matrix(1 0 0 1 3347.12 832)">&lt;</text><text fill="#AA3731" font-family="Consolas,Consolas_MSFontService,sans-serif" font-weight="700" font-size="83" transform="matrix(1 0 0 1 3437.64 832)">8</text><text fill="#777777" font-family="Consolas,Consolas_MSFontService,sans-serif" font-weight="400" font-size="83" transform="matrix(1 0 0 1 3482.9 832)">;</text><text fill="#7A3E9D" font-family="Consolas,Consolas_MSFontService,sans-serif" font-weight="400" font-size="83" transform="matrix(1 0 0 1 3573.42 832)">bit_cursor</text><text fill="#777777" font-family="Consolas,Consolas_MSFontService,sans-serif" font-weight="400" font-size="83" transform="matrix(1 0 0 1 4026.03 832)">++)</text><text fill="#777777" font-family="Consolas,Consolas_MSFontService,sans-serif" font-weight="400" font-size="83" transform="matrix(1 0 0 1 1898.79 931)">{</text><text fill="#4B69C6" font-family="Consolas,Consolas_MSFontService,sans-serif" font-weight="400" font-size="83" transform="matrix(1 0 0 1 2079.83 1030)">if</text><text fill="#777777" font-family="Consolas,Consolas_MSFontService,sans-serif" font-weight="400" font-size="83" transform="matrix(1 0 0 1 2170.35 1030)">((</text><text fill="#7A3E9D" font-family="Consolas,Consolas_MSFontService,sans-serif" font-weight="400" font-size="83" transform="matrix(1 0 0 1 2260.87 1030)">sfs_map_inode</text><text fill="#777777" font-family="Consolas,Consolas_MSFontService,sans-serif" font-weight="400" font-size="83" transform="matrix(1 0 0 1 2849.25 1030)">[</text><text fill="#7A3E9D" font-family="Consolas,Consolas_MSFontService,sans-serif" font-weight="400" font-size="83" transform="matrix(1 0 0 1 2894.51 1030)">byte_cursor</text><text fill="#777777" font-family="Consolas,Consolas_MSFontService,sans-serif" font-weight="400" font-size="83" transform="matrix(1 0 0 1 3392.38 1030)">]</text><text fill="#777777" font-family="Consolas,Consolas_MSFontService,sans-serif" font-weight="400" font-size="83" transform="matrix(1 0 0 1 3482.9 1030)">&amp;</text><text fill="#777777" font-family="Consolas,Consolas_MSFontService,sans-serif" font-weight="400" font-size="83" transform="matrix(1 0 0 1 3573.42 1030)">(</text><text fill="#4B69C6" font-family="Consolas,Consolas_MSFontService,sans-serif" font-weight="400" font-size="83" transform="matrix(1 0 0 1 3618.68 1030)">0x</text><text fill="#9C5D27" font-family="Consolas,Consolas_MSFontService,sans-serif" font-weight="400" font-size="83" transform="matrix(1 0 0 1 3709.2 1030)">1</text><text fill="#777777" font-family="Consolas,Consolas_MSFontService,sans-serif" font-weight="400" font-size="83" transform="matrix(1 0 0 1 3799.72 1030)">&lt;&lt;</text><text fill="#7A3E9D" font-family="Consolas,Consolas_MSFontService,sans-serif" font-weight="400" font-size="83" transform="matrix(1 0 0 1 3935.5 1030)">bit_cursor</text><text fill="#777777" font-family="Consolas,Consolas_MSFontService,sans-serif" font-weight="400" font-size="83" transform="matrix(1 0 0 1 4388.11 1030)">))</text><text fill="#777777" font-family="Consolas,Consolas_MSFontService,sans-serif" font-weight="400" font-size="83" transform="matrix(1 0 0 1 2260.87 1129)">==</text><text fill="#9C5D27" font-family="Consolas,Consolas_MSFontService,sans-serif" font-weight="400" font-size="83" transform="matrix(1 0 0 1 2396.65 1129)">0</text><text fill="#777777" font-family="Consolas,Consolas_MSFontService,sans-serif" font-weight="400" font-size="83" transform="matrix(1 0 0 1 2441.91 1129)">)</text><text fill="#777777" font-family="Consolas,Consolas_MSFontService,sans-serif" font-weight="400" font-size="83" transform="matrix(1 0 0 1 2079.83 1228)">{</text><text fill="#7A3E9D" font-family="Consolas,Consolas_MSFontService,sans-serif" font-weight="400" font-size="83" transform="matrix(1 0 0 1 2260.87 1327)">map_inode</text><text fill="#777777" font-family="Consolas,Consolas_MSFontService,sans-serif" font-weight="400" font-size="83" transform="matrix(1 0 0 1 2668.21 1327)">[</text><text fill="#7A3E9D" font-family="Consolas,Consolas_MSFontService,sans-serif" font-weight="400" font-size="83" transform="matrix(1 0 0 1 2713.47 1327)">byte_cursor</text><text fill="#777777" font-family="Consolas,Consolas_MSFontService,sans-serif" font-weight="400" font-size="83" transform="matrix(1 0 0 1 3211.34 1327)">]</text><text fill="#777777" font-family="Consolas,Consolas_MSFontService,sans-serif" font-weight="400" font-size="83" transform="matrix(1 0 0 1 3301.86 1327)">|=</text><text fill="#777777" font-family="Consolas,Consolas_MSFontService,sans-serif" font-weight="400" font-size="83" transform="matrix(1 0 0 1 3437.64 1327)">(</text><text fill="#4B69C6" font-family="Consolas,Consolas_MSFontService,sans-serif" font-weight="400" font-size="83" transform="matrix(1 0 0 1 3482.9 1327)">0x</text><text fill="#9C5D27" font-family="Consolas,Consolas_MSFontService,sans-serif" font-weight="400" font-size="83" transform="matrix(1 0 0 1 3573.42 1327)">1</text><text fill="#777777" font-family="Consolas,Consolas_MSFontService,sans-serif" font-weight="400" font-size="83" transform="matrix(1 0 0 1 3663.94 1327)">&lt;&lt;</text><text fill="#7A3E9D" font-family="Consolas,Consolas_MSFontService,sans-serif" font-weight="400" font-size="83" transform="matrix(1 0 0 1 3799.72 1327)">bit_cursor</text><text fill="#777777" font-family="Consolas,Consolas_MSFontService,sans-serif" font-weight="400" font-size="83" transform="matrix(1 0 0 1 4252.33 1327)">);</text><text fill="#7A3E9D" font-family="Consolas,Consolas_MSFontService,sans-serif" font-weight="400" font-size="83" transform="matrix(1 0 0 1 2260.87 1426)">is_find_free</text><text fill="#777777" font-family="Consolas,Consolas_MSFontService,sans-serif" font-weight="400" font-size="83" transform="matrix(1 0 0 1 2849.25 1426)">=</text><text fill="#AA3731" font-family="Consolas,Consolas_MSFontService,sans-serif" font-weight="700" font-size="83" transform="matrix(1 0 0 1 2939.78 1426)">TRUE</text><text fill="#777777" font-family="Consolas,Consolas_MSFontService,sans-serif" font-weight="400" font-size="83" transform="matrix(1 0 0 1 3120.82 1426)">;</text><text fill="#4B69C6" font-family="Consolas,Consolas_MSFontService,sans-serif" font-weight="400" font-size="83" transform="matrix(1 0 0 1 2260.87 1525)">break</text><text fill="#777777" font-family="Consolas,Consolas_MSFontService,sans-serif" font-weight="400" font-size="83" transform="matrix(1 0 0 1 2487.17 1525)">;</text><text fill="#777777" font-family="Consolas,Consolas_MSFontService,sans-serif" font-weight="400" font-size="83" transform="matrix(1 0 0 1 2079.83 1624)">}</text><text fill="#777777" font-family="Consolas,Consolas_MSFontService,sans-serif" font-weight="400" font-size="83" transform="matrix(1 0 0 1 1898.79 1723)">}</text><text fill="#4B69C6" font-family="Consolas,Consolas_MSFontService,sans-serif" font-weight="400" font-size="83" transform="matrix(1 0 0 1 1898.79 1822)">if</text><text fill="#777777" font-family="Consolas,Consolas_MSFontService,sans-serif" font-weight="400" font-size="83" transform="matrix(1 0 0 1 2034.57 1822)">(</text><text fill="#7A3E9D" font-family="Consolas,Consolas_MSFontService,sans-serif" font-weight="400" font-size="83" transform="matrix(1 0 0 1 2079.83 1822)">is_find_free</text><text fill="#777777" font-family="Consolas,Consolas_MSFontService,sans-serif" font-weight="400" font-size="83" transform="matrix(1 0 0 1 2622.95 1822)">)</text><text fill="#777777" font-family="Consolas,Consolas_MSFontService,sans-serif" font-weight="400" font-size="83" transform="matrix(1 0 0 1 2713.47 1822)">{</text><text fill="#4B69C6" font-family="Consolas,Consolas_MSFontService,sans-serif" font-weight="400" font-size="83" transform="matrix(1 0 0 1 2079.83 1921)">break</text><text fill="#777777" font-family="Consolas,Consolas_MSFontService,sans-serif" font-weight="400" font-size="83" transform="matrix(1 0 0 1 2306.13 1921)">;</text><text fill="#777777" font-family="Consolas,Consolas_MSFontService,sans-serif" font-weight="400" font-size="83" transform="matrix(1 0 0 1 1898.79 2020)">}</text><text fill="#777777" font-family="Consolas,Consolas_MSFontService,sans-serif" font-weight="400" font-size="83" transform="matrix(1 0 0 1 1717.74 2119)">}</text><rect x="247.5" y="1947.5" width="143" height="151" stroke="#000000" stroke-width="4.58333" stroke-miterlimit="8" fill="#EFF0F1"/><rect x="390.5" y="1947.5" width="143" height="151" stroke="#000000" stroke-width="4.58333" stroke-miterlimit="8" fill="#EFF0F1"/><rect x="533.5" y="1947.5" width="142" height="151" stroke="#000000" stroke-width="4.58333" stroke-miterlimit="8" fill="#EFF0F1"/><rect x="675.5" y="1947.5" width="143" height="151" stroke="#000000" stroke-width="4.58333" stroke-miterlimit="8" fill="#EFF0F1"/><rect x="818.5" y="1947.5" width="142" height="151" stroke="#000000" stroke-width="4.58333" stroke-miterlimit="8" fill="#EFF0F1"/><rect x="960.5" y="1947.5" width="143" height="151" stroke="#000000" stroke-width="4.58333" stroke-miterlimit="8" fill="#EFF0F1"/><rect x="1103.5" y="1947.5" width="143" height="151" stroke="#000000" stroke-width="4.58333" stroke-miterlimit="8" fill="#EFF0F1"/><rect x="1246.5" y="1947.5" width="142" height="151" stroke="#000000" stroke-width="4.58333" stroke-miterlimit="8" fill="#EFF0F1"/><path d="M0.0576549 1.14438-7.66702 1.53356-7.5569 1.52266-15.2211 2.65707-15.1188 2.63712-22.6621 4.46707-22.567 4.4396-29.929 6.91543-29.8404 6.88145-36.9607 9.95347-36.8774 9.91351-43.6956 13.532-43.6168 13.4861-50.0724 17.6015-49.9972 17.5492-56.0298 22.1117-55.9573 22.0521-61.5065 27.0121-61.4365 26.9439-66.4418 32.2516-66.3742 32.1731-70.7752 37.779-70.7106 37.6878-74.447 43.5422-74.387 43.4361-77.3982 49.4891-77.3456 49.3658-79.5713 55.5679-79.5305 55.426-80.9102 61.7275-80.8869 61.5676-81.3602 67.9188-81.3696 67.6641-81.1318 69.2538-81.2185 68.9566-80.5099 70.5456-80.6346 70.3317-79.4627 71.9191-79.5851 71.7787-77.9575 73.3638-78.0624 73.2733-75.9865 74.8552-76.0723 74.7958-73.5555 76.3739-73.625 76.3336-70.6748 77.907-70.7314 77.8788-67.3553 79.4468-67.4018 79.4264-63.6073 80.9882-63.6461 80.9731-59.4407 82.5278-59.4734 82.5163-54.8645 84.0633-54.8924 84.0543-49.8875 85.5928-49.9116 85.5857-44.5181 87.1148-44.5391 87.1091-38.7646 88.6282-38.7915 88.6214-26.1291 91.6262-26.1586 91.6196-12.0615 94.5747-12.0856 94.5699 3.3863 97.4691 3.36621 97.4655 20.1531 100.303 20.136 100.3 38.1782 103.069 38.1634 103.066 57.4011 105.761 57.388 105.759 77.7615 108.372 77.7497 108.371 99.1991 110.898 99.1885 110.896 121.654 113.33 121.644 113.329 145.066 115.663 145.057 115.662 169.376 117.891 169.368 117.89 194.523 120.007 194.515 120.006 220.448 122.005 220.44 122.004 247.09 123.879 247.083 123.878 274.39 125.622 274.383 125.622 302.288 127.229 302.281 127.229 330.724 128.693 330.718 128.693 359.639 130.009 359.632 130.008 388.972 131.169 388.962 131.168 448.658 132.998 448.644 132.998 509.297 134.132 509.283 134.132 570.412 134.521 631.55 134.911 692.216 136.045 751.924 137.876 781.272 139.036 810.2 140.352 838.65 141.817 866.562 143.425 893.877 145.169 920.535 147.044 946.475 149.044 971.639 151.161 995.966 153.39 1019.4 155.725 1041.87 158.16 1063.33 160.688 1083.72 163.303 1102.97 165.999 1121.03 168.77 1137.84 171.61 1153.33 174.513 1167.45 177.474 1180.14 180.486 1185.94 182.011 1191.36 183.546 1196.39 185.093 1201.03 186.65 1205.27 188.218 1209.11 189.797 1212.54 191.389 1215.55 192.997 1218.14 194.624 1220.32 196.279 1222.06 197.978 1223.36 199.741 1224.18 201.586 1224.46 203.457 1223.98 210.017 1222.56 216.47 1220.29 222.805 1217.22 228.973 1213.42 234.926 1208.95 240.616 1203.88 245.997 1198.26 251.021 1192.15 255.64 1185.62 259.804 1178.72 263.466 1171.47 266.595 1163.65 268.488 1163.11 266.261 1170.83 264.39 1170.65 264.452 1177.77 261.38 1177.69 261.42 1184.51 257.801 1184.43 257.847 1190.88 253.732 1190.81 253.784 1196.84 249.222 1196.77 249.281 1202.32 244.321 1202.25 244.389 1207.25 239.082 1207.18 239.16 1211.59 233.554 1211.52 233.645 1215.26 227.791 1215.2 227.897 1218.21 221.844 1218.16 221.968 1220.38 215.765 1220.34 215.907 1221.72 209.606 1221.7 209.766 1222.17 203.415 1222.18 203.669 1221.94 202.08 1222.03 202.377 1221.32 200.788 1221.44 201.002 1220.27 199.414 1220.39 199.555 1218.77 197.97 1218.87 198.06 1216.8 196.478 1216.88 196.538 1214.37 194.96 1214.43 195 1211.48 193.426 1211.54 193.455 1208.16 191.887 1208.21 191.907 1204.42 190.345 1204.46 190.36 1200.25 188.806 1200.28 188.817 1195.67 187.27 1195.7 187.279 1190.7 185.741 1190.72 185.748 1185.33 184.219 1185.35 184.224 1179.57 182.705 1179.6 182.712 1166.94 179.707 1166.97 179.714 1152.87 176.759 1152.9 176.764 1137.42 173.865 1137.44 173.868 1120.66 171.031 1120.67 171.034 1102.63 168.265 1102.65 168.267 1083.41 165.573 1083.42 165.575 1063.05 162.961 1063.06 162.963 1041.61 160.436 1041.62 160.437 1019.16 158.004 1019.17 158.005 995.743 155.671 995.752 155.672 971.434 153.443 971.442 153.444 946.287 151.328 946.295 151.328 920.362 149.33 920.37 149.33 893.72 147.456 893.727 147.456 866.42 145.712 866.427 145.713 838.522 144.105 838.529 144.106 810.086 142.641 810.093 142.641 781.171 141.326 781.178 141.326 751.838 140.166 751.848 140.166 692.152 138.336 692.166 138.337 631.514 137.202 631.528 137.202 570.398 136.813 509.261 136.424 448.595 135.289 388.887 133.459 359.538 132.298 330.61 130.982 302.16 129.517 274.248 127.909 246.933 126.165 220.275 124.29 194.335 122.29 169.171 120.173 144.844 117.944 121.412 115.609 98.9364 113.174 77.4757 110.646 57.0898 108.031 37.8381 105.335 19.7798 102.564 2.97425 99.7234-12.5197 96.8201-26.6435 93.8594-39.3342 90.848-45.1327 89.3226-50.5488 87.787-55.5798 86.2405-60.2191 84.6833-64.4603 83.1153-68.2976 81.5359-71.7253 79.944-74.7388 78.3368-77.3339 76.7096-79.5066 75.054-81.2509 73.3553-82.5522 71.5926-83.3751 69.7474-83.655 67.8764-83.1662 61.3165-81.7533 54.8635-79.4799 48.5285-76.4116 42.3607-72.6123 36.4078-68.1447 30.7171-63.0702 25.336-57.4496 20.3122-51.343 15.6937-44.8102 11.5292-37.9109 7.8676-30.7046 4.75845-23.2505 2.25168-15.6083 0.39774-7.83765-0.75242-0.0576549-1.14438ZM1170.27 280.126 1140.81 271.333 1165.52 253.04Z" transform="matrix(-1 0 0 1 1387.81 1499)"/><path d="M0.0536557 1.14458-7.67102 1.5067-7.56834 1.49724-15.2326 2.55277-15.1366 2.53537-22.6799 4.23809-22.5901 4.21392-29.9521 6.5176-29.8674 6.48741-36.9877 9.34581-36.9073 9.30986-43.7254 12.6768-43.6482 12.6349-50.1038 16.464-50.0289 16.4156-56.0615 20.6608-55.9883 20.6047-61.5374 25.2198-61.4653 25.1544-66.4707 30.093-66.3997 30.0163-70.8008 35.2322-70.7316 35.1415-74.4679 40.5885-74.4024 40.4807-77.4136 46.1126-77.355 45.9847-79.5807 51.7553-79.5344 51.6054-80.9142 57.4685-80.8873 57.2975-81.3607 63.2067-81.3715 62.9333-81.1337 64.4125-81.2317 64.0992-80.5231 65.5777-80.6588 65.3607-79.4869 66.8377-79.6152 66.7008-77.9875 68.1756-78.0942 68.09-76.0182 69.562-76.1036 69.507-73.5868 70.9753-73.6548 70.9386-70.7047 72.4026-70.7595 72.3772-67.3834 73.8361-67.4282 73.8179-63.6337 75.2711-63.6707 75.2576-59.4653 76.7043-59.4964 76.6941-54.8875 78.1335-54.914 78.1256-49.909 79.5571-49.9318 79.5508-44.5384 80.9737-44.5582 80.9686-38.7837 82.3821-38.809 82.3761-26.1466 85.172-26.1743 85.1662-12.0773 87.9158-12.0998 87.9117 3.37207 90.6092 3.35326 90.6061 20.1402 93.2459 20.1242 93.2435 38.1664 95.8198 38.1525 95.8179 57.3902 98.3248 57.378 98.3232 77.7515 100.755 77.7405 100.754 99.1899 103.105 99.18 103.104 121.646 105.368 121.637 105.367 145.059 107.539 145.05 107.538 169.369 109.611 169.361 109.611 194.516 111.58 194.509 111.58 220.442 113.439 220.434 113.439 247.084 115.183 247.078 115.183 274.385 116.805 274.378 116.805 302.284 118.301 302.277 118.3 330.72 119.663 330.714 119.663 359.635 120.887 359.629 120.887 388.969 121.966 388.96 121.966 448.656 123.669 448.643 123.668 509.295 124.724 509.282 124.724 570.412 125.086 631.549 125.448 692.214 126.504 751.921 128.207 781.268 129.287 810.196 130.511 838.646 131.874 866.558 133.37 893.872 134.993 920.529 136.738 946.469 138.598 971.632 140.568 995.959 142.642 1019.39 144.815 1041.86 147.08 1063.32 149.432 1083.71 151.865 1102.96 154.373 1121.02 156.952 1137.82 159.594 1153.31 162.295 1167.44 165.05 1180.13 167.851 1185.92 169.27 1191.34 170.699 1196.37 172.137 1201 173.586 1205.24 175.044 1209.08 176.513 1212.51 177.993 1215.52 179.488 1218.11 181.002 1220.29 182.542 1222.03 184.127 1223.34 185.778 1224.18 187.522 1224.47 189.301 1223.97 195.434 1222.56 201.458 1220.28 207.368 1217.2 213.118 1213.4 218.664 1208.93 223.964 1203.85 228.973 1198.23 233.649 1192.12 237.947 1185.59 241.821 1178.69 245.227 1171.45 248.136 1163.68 249.883 1163.17 247.647 1170.85 245.92 1170.68 245.975 1177.8 243.116 1177.72 243.152 1184.54 239.786 1184.46 239.827 1190.91 235.998 1190.84 236.047 1196.87 231.801 1196.8 231.858 1202.35 227.243 1202.28 227.308 1207.28 222.369 1207.21 222.446 1211.61 217.23 1211.54 217.321 1215.28 211.874 1215.21 211.982 1218.22 206.35 1218.16 206.478 1220.39 200.707 1220.34 200.857 1221.72 194.994 1221.7 195.165 1222.17 189.256 1222.18 189.529 1221.94 188.05 1222.04 188.363 1221.33 186.885 1221.47 187.102 1220.3 185.625 1220.42 185.762 1218.8 184.287 1218.9 184.372 1216.83 182.9 1216.91 182.955 1214.4 181.487 1214.46 181.524 1211.51 180.06 1211.57 180.085 1208.19 178.626 1208.24 178.644 1204.44 177.191 1204.48 177.205 1200.27 175.758 1200.31 175.768 1195.7 174.329 1195.72 174.337 1190.72 172.905 1190.74 172.912 1185.35 171.489 1185.37 171.494 1179.59 170.08 1179.62 170.086 1166.96 167.291 1166.98 167.296 1152.89 164.547 1152.91 164.551 1137.44 161.853 1137.46 161.856 1120.67 159.217 1120.69 159.219 1102.64 156.643 1102.66 156.645 1083.42 154.138 1083.43 154.139 1063.06 151.708 1063.07 151.709 1041.62 149.358 1041.63 149.359 1019.16 147.095 1019.17 147.096 995.751 144.924 995.76 144.925 971.441 142.852 971.449 142.852 946.294 140.883 946.301 140.883 920.368 139.024 920.376 139.024 893.726 137.28 893.732 137.281 866.425 135.658 866.432 135.658 838.526 134.163 838.533 134.163 810.09 132.8 810.096 132.8 781.175 131.576 781.181 131.577 751.841 130.497 751.851 130.497 692.155 128.795 692.168 128.795 631.515 127.74 631.529 127.74 570.398 127.378 509.262 127.015 448.597 125.96 388.889 124.257 359.542 123.177 330.614 121.952 302.164 120.589 274.252 119.093 246.938 117.47 220.281 115.726 194.341 113.865 169.178 111.895 144.851 109.821 121.42 107.648 98.9452 105.383 77.4853 103.031 57.1002 100.598 37.8494 98.0894 19.7922 95.511 2.98784 92.8685-12.5047 90.1673-26.6269 87.4128-39.3158 84.6111-45.113 83.1921-50.5278 81.7637-55.5575 80.3251-60.1952 78.8766-64.4348 77.4182-68.2703 75.9494-71.6963 74.4688-74.7082 72.9742-77.3023 71.4608-79.4756 69.9198-81.2237 68.3358-82.534 66.6842-83.37 64.9401-83.656 63.1611-83.1648 57.028-81.7471 51.004-79.4678 45.0942-76.3935 39.3444-72.5891 33.7981-68.1174 28.4985-63.0402 23.4889-57.4181 18.8133-51.3113 14.5158-44.7795 10.6414-37.8824 7.23554-30.6794 4.34395-23.23 2.01292-15.5936 0.289195-7.82988-0.780041-0.0536557-1.14458ZM1170.17 261.595 1140.81 252.462 1165.73 234.456Z" transform="matrix(-1 0 0 1 1387.81 1770)"/><path d="M139 954.854 224.161 954.854 224.161 957.146 139 957.146ZM139 969.75C131.406 969.75 125.25 963.594 125.25 956 125.25 948.406 131.406 942.25 139 942.25 146.594 942.25 152.75 948.406 152.75 956 152.75 963.594 146.594 969.75 139 969.75ZM219.578 942.25 247.078 956 219.578 969.75Z"/><text font-family="Times New Roman,Times New Roman_MSFontService,sans-serif" font-weight="700" font-size="83" transform="matrix(1 0 0 1 414.851 728)">Bit Cursor</text><path d="M605.146 765 605.146 857.23 602.854 857.23 602.854 765ZM590.25 765C590.25 757.406 596.406 751.25 604 751.25 611.594 751.25 617.75 757.406 617.75 765 617.75 772.594 611.594 778.75 604 778.75 596.406 778.75 590.25 772.594 590.25 765ZM617.75 852.647 604 880.147 590.25 852.647Z"/><text font-family="Microsoft YaHei,Microsoft YaHei_MSFontService,sans-serif" font-weight="700" font-size="83" transform="matrix(1 0 0 1 3553 2117)">参考</text><text font-family="Calibri,Calibri_MSFontService,sans-serif" font-weight="700" font-size="83" transform="matrix(1 0 0 1 3718 2117)">sfs_utils.c</text><text font-family="Calibri,Calibri_MSFontService,sans-serif" font-weight="700" font-size="83" transform="matrix(1 0 0 1 4051.09 2117)">: 161</text><text font-family="Calibri,Calibri_MSFontService,sans-serif" font-weight="700" font-size="83" transform="matrix(1 0 0 1 4218.39 2117)">-</text><text font-family="Calibri,Calibri_MSFontService,sans-serif" font-weight="700" font-size="83" transform="matrix(1 0 0 1 4243.59 2117)">176</text></g></svg>