<svg width="4316" height="2845" xmlns="http://www.w3.org/2000/svg" xmlns:xlink="http://www.w3.org/1999/xlink" xml:space="preserve" overflow="hidden"><g transform="translate(-45 200)"><rect x="85.5001" y="0.499836" width="1585" height="779" stroke="#000000" stroke-width="6.875" stroke-miterlimit="8" stroke-dasharray="27.5 20.625" fill="#FFFFFF"/><rect x="182.5" y="122.5" width="622" height="505" stroke="#000000" stroke-width="4.58333" stroke-miterlimit="8" fill="#C4B7D7"/><text font-family="Consolas,Consolas_MSFontService,sans-serif" font-weight="400" font-size="83" transform="matrix(1 0 0 1 214.871 255)">...</text><text font-family="Consolas,Consolas_MSFontService,sans-serif" font-weight="400" font-size="83" transform="matrix(1 0 0 1 214.871 354)">ftype</text><text font-family="Consolas,Consolas_MSFontService,sans-serif" font-weight="400" font-size="83" transform="matrix(1 0 0 1 441.173 354)">: DIR</text><text font-family="Consolas,Consolas_MSFontService,sans-serif" font-weight="400" font-size="83" transform="matrix(1 0 0 1 214.871 453)">pointer[0]:</text><text font-family="Consolas,Consolas_MSFontService,sans-serif" font-weight="400" font-size="83" transform="matrix(1 0 0 1 214.871 552)">...</text><rect x="1047.5" y="122.5" width="509" height="505" stroke="#000000" stroke-width="4.58333" stroke-miterlimit="8" fill="#705697"/><rect x="1047.5" y="122.5" width="162" height="505" stroke="#000000" stroke-width="4.58333" stroke-miterlimit="8" fill="#EFF0F1"/><text font-family="Consolas,Consolas_MSFontService,sans-serif" font-weight="400" font-size="83" transform="matrix(-1.83697e-16 -1 1 -1.83697e-16 1156.73 511)">dentry</text><rect x="1209.5" y="122.5" width="162" height="505" stroke="#000000" stroke-width="4.58333" stroke-miterlimit="8" fill="#EFF0F1"/><text font-family="Consolas,Consolas_MSFontService,sans-serif" font-weight="400" font-size="83" transform="matrix(-1.83697e-16 -1 1 -1.83697e-16 1318.76 511)">dentry</text><path d="M753 425.854 1016.45 425.854 1016.45 428.146 753 428.146ZM753 440.75C745.406 440.75 739.25 434.594 739.25 427 739.25 419.406 745.406 413.25 753 413.25 760.594 413.25 766.75 419.406 766.75 427 766.75 434.594 760.594 440.75 753 440.75ZM1011.87 413.25 1039.37 427 1011.87 440.75Z" fill="#C00000"/><text font-family="Microsoft YaHei,Microsoft YaHei_MSFontService,sans-serif" font-style="oblique" font-weight="400" font-size="73" transform="matrix(1 0 0 1 236.454 86)">根目录索引节点</text><text font-family="Microsoft YaHei,Microsoft YaHei_MSFontService,sans-serif" font-weight="700" font-size="83" transform="matrix(1 0 0 1 174.398 740)">根目录</text><text font-family="Calibri,Calibri_MSFontService,sans-serif" font-weight="700" font-size="83" transform="matrix(1 0 0 1 421.898 740)">“/”</text><text font-family="Microsoft YaHei,Microsoft YaHei_MSFontService,sans-serif" font-weight="700" font-size="83" transform="matrix(1 0 0 1 529.606 740)">结构</text><text font-family="Microsoft YaHei,Microsoft YaHei_MSFontService,sans-serif" font-style="oblique" font-weight="400" font-size="73" transform="matrix(1 0 0 1 1138.45 86)">根目录数据块</text><rect x="994.5" y="1005.5" width="672" height="639" stroke="#000000" stroke-width="6.875" stroke-miterlimit="8" stroke-dasharray="27.5 20.625" fill="#FFFFFF"/><rect x="1071.5" y="1195.5" width="174" height="184" stroke="#000000" stroke-width="4.58333" stroke-miterlimit="8" fill="#C4B7D7"/><text font-family="Times New Roman,Times New Roman_MSFontService,sans-serif" font-weight="700" font-size="83" transform="matrix(1 0 0 1 1070.6 1118)">/hunt</text><text font-family="Microsoft YaHei,Microsoft YaHei_MSFontService,sans-serif" font-weight="700" font-size="83" transform="matrix(1 0 0 1 1258.52 1118)">目录结构</text><rect x="1388.5" y="1295.5" width="214" height="176" stroke="#000000" stroke-width="4.58333" stroke-miterlimit="8" fill="#705697"/><path d="M1245.64 1286.05 1369.99 1369.39 1368.71 1371.3 1244.36 1287.95ZM1237.34 1298.42C1231.04 1294.19 1229.35 1285.65 1233.58 1279.34 1237.81 1273.04 1246.35 1271.35 1252.66 1275.58 1258.96 1279.81 1260.65 1288.35 1256.42 1294.66 1252.19 1300.96 1243.65 1302.65 1237.34 1298.42ZM1373.2 1356.37 1388.39 1383.1 1357.89 1379.21Z" fill="#C00000"/><rect x="1392" y="1300" width="59.0001" height="169" fill="#EFF0F1"/><rect x="1457" y="1300" width="59.9998" height="169" fill="#C00000"/><rect x="1520" y="1300" width="59.9998" height="169" fill="#EFF0F1"/><rect x="101.5" y="1977.5" width="672" height="638" stroke="#000000" stroke-width="6.875" stroke-miterlimit="8" stroke-dasharray="27.5 20.625" fill="#FFFFFF"/><rect x="178.5" y="2166.5" width="174" height="184" stroke="#000000" stroke-width="4.58333" stroke-miterlimit="8" fill="#C4B7D7"/><text font-family="Times New Roman,Times New Roman_MSFontService,sans-serif" font-weight="700" font-size="83" transform="matrix(1 0 0 1 207.485 2557)">/hunt/test.sh</text><rect x="495.5" y="2266.5" width="174" height="177" stroke="#FFFFFF" stroke-width="4.58333" stroke-miterlimit="8" fill="#705697"/><path d="M352.638 2257.05 476.991 2340.39 475.715 2342.3 351.362 2258.95ZM344.345 2269.42C338.037 2265.19 336.35 2256.65 340.578 2250.34 344.806 2244.04 353.347 2242.35 359.655 2246.58 365.963 2250.81 367.65 2259.35 363.422 2265.66 359.194 2271.96 350.653 2273.65 344.345 2269.42ZM480.201 2327.37 495.389 2354.1 464.89 2350.21Z"/><path d="M3.34758-0.781092 9.59632 25.9996 2.90115 27.5617-3.34758 0.781092ZM14.2829 46.0851 15.8451 52.7802 9.14989 54.3424 7.5877 47.6472ZM20.5316 72.8657 26.7803 99.6463 20.0852 101.209 13.8364 74.4279ZM31.4669 119.732 33.0291 126.427 26.3339 127.989 24.7717 121.294ZM37.7156 146.512 43.9644 173.293 37.2692 174.855 31.0205 148.075ZM48.6509 193.379 50.2131 200.074 43.5179 201.636 41.9557 194.941ZM54.8996 220.159 61.1484 246.94 54.4532 248.502 48.2045 221.721ZM65.8349 267.025 67.3971 273.721 60.7019 275.283 59.1398 268.588ZM72.0837 293.806 78.3324 320.587 71.6372 322.149 65.3885 295.368ZM83.0189 340.672 84.5811 347.367 77.886 348.93 76.3238 342.234ZM89.2677 367.453 95.5164 394.234 88.8213 395.796 82.5725 369.015ZM100.203 414.319 101.765 421.014 95.07 422.576 93.5078 415.881ZM106.452 441.1 112.7 467.88 106.005 469.443 99.7565 442.662ZM117.387 487.966 118.949 494.661 112.254 496.223 110.692 489.528ZM123.636 514.746 129.884 541.527 123.189 543.089 116.941 516.309ZM-13.3903 3.12437C-15.1159-4.27091-10.5196-11.6648-3.12437-13.3903 4.27091-15.1159 11.6648-10.5196 13.3903-3.12437 15.1159 4.27091 10.5196 11.6648 3.12437 13.3903-4.27091 15.1159-11.6648 10.5196-13.3903 3.12437ZM139.589 537.733 132.447 567.638 112.808 543.982Z" fill="#C00000" transform="matrix(-1 0 0 1 1290.95 627.5)"/><path d="M1.7984-2.92953 25.2347 11.4577 21.6378 17.3167-1.7984 2.92953ZM42.8118 22.2481 48.6709 25.8449 45.0741 31.704 39.215 28.1072ZM66.2481 36.6353 89.6843 51.0225 86.0875 56.8816 62.6513 42.4944ZM107.262 61.813 113.121 65.4098 109.524 71.2688 103.665 67.672ZM130.698 76.2002 154.134 90.5874 150.537 96.4464 127.101 82.0592ZM171.711 101.378 177.57 104.975 173.973 110.834 168.114 107.237ZM195.147 115.765 218.584 130.152 214.987 136.011 191.551 121.624ZM236.161 140.943 242.02 144.539 238.423 150.399 232.564 146.802ZM259.597 155.33 283.033 169.717 279.437 175.576 256 161.189ZM300.611 180.507 306.47 184.104 302.873 189.963 297.014 186.367ZM324.047 194.895 347.483 209.282 343.886 215.141 320.45 200.754ZM365.06 220.072 370.919 223.669 367.323 229.528 361.464 225.931ZM388.497 234.46 411.933 248.847 408.336 254.706 384.9 240.319ZM429.51 259.637 435.369 263.234 431.772 269.093 425.913 265.496ZM452.946 274.024 476.383 288.412 472.786 294.271 449.349 279.883ZM493.96 299.202 499.819 302.799 496.222 308.658 490.363 305.061ZM517.396 313.589 540.832 327.977 537.235 333.836 513.799 319.448ZM558.409 338.767 564.268 342.364 560.672 348.223 554.812 344.626ZM581.846 353.154 605.282 367.541 601.685 373.4 578.249 359.013ZM622.859 378.332 628.718 381.929 625.121 387.788 619.262 384.191ZM646.295 392.719 669.731 407.106 666.135 412.965 642.698 398.578ZM687.309 417.897 693.168 421.493 689.571 427.352 683.712 423.756ZM710.745 432.284 734.181 446.671 730.584 452.53 707.148 438.143ZM751.758 457.461 757.617 461.058 754.021 466.917 748.161 463.32ZM775.195 471.849 798.631 486.236 795.034 492.095 771.598 477.708ZM816.208 497.026 822.067 500.623 818.47 506.482 812.611 502.885ZM839.644 511.413 863.081 525.801 859.484 531.66 836.047 517.273ZM880.658 536.591 886.517 540.188 882.92 546.047 877.061 542.45ZM904.094 550.978 927.53 565.366 923.933 571.225 900.497 556.837ZM945.107 576.156 950.966 579.753 947.37 585.612 941.511 582.015ZM968.544 590.543 991.98 604.93 988.383 610.789 964.947 596.402ZM1009.56 615.721 1015.42 619.318 1011.82 625.177 1005.96 621.58ZM1032.99 630.108 1056.43 644.495 1052.83 650.354 1029.4 635.967ZM1074.01 655.286 1079.87 658.883 1076.27 664.742 1070.41 661.145ZM1097.44 669.673 1118.91 682.851 1115.31 688.71 1093.85 675.532ZM-7.19358 11.7181C-13.6653 7.74524-15.691-0.721824-11.7181-7.19358-7.74524-13.6653 0.721824-15.691 7.19358-11.7181 13.6653-7.74524 15.691 0.721824 11.7181 7.19358 7.74524 13.6653-0.721824 15.691-7.19358 11.7181ZM1120.4 671.665 1136.64 697.771 1106.01 695.102Z" transform="matrix(-1 0 0 1 1411.14 1469.5)"/><rect x="993.5" y="1980.5" width="673" height="639" stroke="#000000" stroke-width="6.875" stroke-miterlimit="8" stroke-dasharray="27.5 20.625" fill="#FFFFFF"/><rect x="1070.5" y="2170.5" width="174" height="184" stroke="#000000" stroke-width="4.58333" stroke-miterlimit="8" fill="#C4B7D7"/><text font-family="Times New Roman,Times New Roman_MSFontService,sans-serif" font-weight="700" font-size="83" transform="matrix(1 0 0 1 1122.92 2561)">/hunt/</text><text font-family="Times New Roman,Times New Roman_MSFontService,sans-serif" font-weight="700" font-size="83" transform="matrix(1 0 0 1 1333.75 2561)">bin.o</text><rect x="1388.5" y="2270.5" width="174" height="176" stroke="#FFFFFF" stroke-width="4.58333" stroke-miterlimit="8" fill="#705697"/><path d="M1244.64 2261.05 1368.99 2344.39 1367.71 2346.29 1243.36 2262.95ZM1236.34 2273.42C1230.04 2269.19 1228.35 2260.65 1232.58 2254.34 1236.81 2248.04 1245.35 2246.35 1251.66 2250.58 1257.96 2254.81 1259.65 2263.35 1255.42 2269.66 1251.19 2275.96 1242.65 2277.65 1236.34 2273.42ZM1372.2 2331.37 1387.39 2358.1 1356.89 2354.21Z"/><rect x="1388.5" y="2027.5" width="174" height="177" stroke="#FFFFFF" stroke-width="4.58333" stroke-miterlimit="8" fill="#705697"/><path d="M0.8187-0.801663 128.175 129.261 126.537 130.864-0.8187 0.801663ZM-9.8244 9.61996C-15.1374 4.19409-15.0458-4.51145-9.61996-9.8244-4.19409-15.1374 4.51145-15.0458 9.8244-9.61996 15.1374-4.19409 15.0458 4.51145 9.61996 9.8244 4.19409 15.1374-4.51145 15.0458-9.8244 9.61996ZM133.974 117.168 143.389 146.437 114.325 136.408Z" transform="matrix(1 0 0 -1 1244 2261.44)"/><path d="M3.11048-1.46333 14.8171 23.4205 8.59615 26.3472-3.11048 1.46333ZM23.5971 42.0834 26.5237 48.3043 20.3028 51.231 17.3761 45.01ZM35.3037 66.9672 47.0103 91.851 40.7894 94.7777 29.0827 69.8939ZM55.7903 110.514 58.7169 116.735 52.496 119.662 49.5693 113.441ZM67.4969 135.398 79.2035 160.282 72.9826 163.208 61.276 138.324ZM87.9835 178.944 90.9102 185.165 84.6892 188.092 81.7626 181.871ZM99.6901 203.828 111.397 228.712 105.176 231.639 93.4692 206.755ZM120.177 247.375 123.103 253.596 116.882 256.523 113.956 250.302ZM131.883 272.259 143.59 297.143 137.369 300.069 125.662 275.185ZM152.37 315.805 155.297 322.026 149.076 324.953 146.149 318.732ZM164.077 340.689 175.783 365.573 169.562 368.5 157.856 343.616ZM184.563 384.236 187.49 390.457 181.269 393.384 178.342 387.163ZM196.27 409.12 207.976 434.004 201.755 436.93 190.049 412.046ZM216.756 452.667 219.683 458.888 213.462 461.814 210.535 455.593ZM228.463 477.55 240.17 502.434 233.949 505.361 222.242 480.477ZM248.95 521.097 251.876 527.318 245.655 530.245 242.729 524.024ZM260.656 545.981 272.363 570.865 266.142 573.791 254.435 548.908ZM281.143 589.528 284.069 595.749 277.849 598.675 274.922 592.454ZM292.849 614.411 304.556 639.295 298.335 642.222 286.628 617.338ZM313.336 657.958 316.263 664.179 310.042 667.106 307.115 660.885ZM-12.4419 5.85332C-15.6746-1.01816-12.7248-9.20921-5.85332-12.4419 1.01816-15.6746 9.20921-12.7248 12.4419-5.85332 15.6746 1.01816 12.7248 9.20921 5.85332 12.4419-1.01816 15.6746-9.20921 12.7248-12.4419 5.85332ZM330.696 670.634 329.961 701.371 305.812 682.34Z" transform="matrix(-1 0 0 1 1487.46 1469.5)"/><rect x="101.5" y="1001.5" width="672" height="638" stroke="#000000" stroke-width="6.875" stroke-miterlimit="8" stroke-dasharray="27.5 20.625" fill="#FFFFFF"/><rect x="178.5" y="1190.5" width="174" height="184" stroke="#000000" stroke-width="4.58333" stroke-miterlimit="8" fill="#C4B7D7"/><rect x="495.5" y="1027.5" width="174" height="176" stroke="#FFFFFF" stroke-width="4.58333" stroke-miterlimit="8" fill="#705697"/><text font-family="Times New Roman,Times New Roman_MSFontService,sans-serif" font-weight="700" font-size="83" transform="matrix(1 0 0 1 151.339 1580)">/demo</text><text font-family="Microsoft YaHei,Microsoft YaHei_MSFontService,sans-serif" font-weight="700" font-size="83" transform="matrix(1 0 0 1 366.755 1580)">文件结构</text><rect x="495.5" y="1290.5" width="174" height="176" stroke="#FFFFFF" stroke-width="4.58333" stroke-miterlimit="8" fill="#705697"/><path d="M0.868915-0.746941 129.32 148.679 127.582 150.173-0.868915 0.746941ZM-10.427 8.9633C-15.3773 3.20464-14.722-5.47668-8.9633-10.427-3.20464-15.3773 5.47668-14.722 10.427-8.9633 15.3773-3.20464 14.722 5.47668 8.9633 10.427 3.20464 15.3773-5.47668 14.722-10.427 8.9633ZM135.89 136.987 143.389 166.804 115.036 154.914Z" transform="matrix(1 0 0 -1 352 1281.8)"/><path d="M352.638 1281.05 476.991 1364.39 475.715 1366.3 351.362 1282.95ZM344.345 1293.42C338.037 1289.19 336.35 1280.65 340.578 1274.34 344.806 1268.04 353.347 1266.35 359.655 1270.58 365.963 1274.81 367.65 1283.35 363.422 1289.66 359.194 1295.96 350.653 1297.65 344.345 1293.42ZM480.201 1351.37 495.389 1378.1 464.89 1374.21Z"/><path d="M1.87659-2.88007 24.9171 12.1327 21.164 17.8928-1.87659 2.88007ZM42.1976 23.3923 47.9577 27.1455 44.2045 32.9056 38.4444 29.1524ZM65.2381 38.405 88.2787 53.4178 84.5255 59.1779 61.4849 44.1652ZM105.559 64.6774 111.319 68.4305 107.566 74.1907 101.806 70.4375ZM128.6 79.6901 151.64 94.7029 147.887 100.463 124.846 85.4502ZM168.921 105.962 174.681 109.716 170.928 115.476 165.167 111.723ZM191.961 120.975 215.002 135.988 211.249 141.748 188.208 126.735ZM232.282 147.248 238.042 151.001 234.289 156.761 228.529 153.008ZM255.323 162.26 278.363 177.273 274.61 183.033 251.569 168.02ZM295.644 188.533 301.404 192.286 297.651 198.046 291.89 194.293ZM318.684 203.545 341.725 218.558 337.972 224.318 314.931 209.306ZM359.005 229.818 364.765 233.571 361.012 239.331 355.252 235.578ZM382.046 244.83 405.086 259.843 401.333 265.603 378.293 250.591ZM422.367 271.103 428.127 274.856 424.374 280.616 418.614 276.863ZM445.407 286.116 468.448 301.128 464.695 306.888 441.654 291.876ZM485.728 312.388 491.488 316.141 487.735 321.901 481.975 318.148ZM508.769 327.401 531.809 342.413 528.056 348.174 505.016 333.161ZM549.09 353.673 554.85 357.426 551.097 363.186 545.337 359.433ZM572.13 368.686 595.171 383.699 591.418 389.459 568.377 374.446ZM612.451 394.958 618.211 398.711 614.458 404.471 608.698 400.718ZM635.492 409.971 658.532 424.984 654.779 430.744 631.739 415.731ZM675.813 436.243 681.573 439.996 677.82 445.757 672.06 442.003ZM698.853 451.256 721.894 466.269 718.141 472.029 695.1 457.016ZM739.174 477.528 744.935 481.281 741.181 487.042 735.421 483.288ZM762.215 492.541 785.256 507.554 781.502 513.314 758.462 498.301ZM802.536 518.813 808.296 522.567 804.543 528.327 798.783 524.573ZM825.577 533.826 846.326 547.346 842.573 553.106 821.823 539.586ZM-7.5064 11.5203C-13.8689 7.37459-15.6659-1.14393-11.5203-7.5064-7.37459-13.8689 1.14393-15.6659 7.5064-11.5203 13.8689-7.37459 15.6659 1.14393 11.5203 7.5064 7.37459 13.8689-1.14393 15.6659-7.5064 11.5203ZM848.115 536.203 863.649 562.736 833.102 559.244Z" transform="matrix(-1 0 0 1 1129.15 627.5)"/><path d="M1553.77 1468.44 1562.23 1494.61 1555.68 1496.72 1547.23 1470.56ZM1568.57 1514.24 1570.68 1520.78 1564.14 1522.89 1562.02 1516.35ZM1577.02 1540.41 1585.48 1566.57 1578.93 1568.69 1570.48 1542.52ZM1591.82 1586.2 1593.93 1592.74 1587.39 1594.86 1585.28 1588.31ZM1600.27 1612.37 1608.73 1638.54 1602.18 1640.65 1593.73 1614.48ZM1615.07 1658.16 1617.18 1664.7 1610.64 1666.82 1608.53 1660.28ZM1623.52 1684.33 1631.98 1710.5 1625.43 1712.61 1616.98 1686.44ZM1638.32 1730.12 1640.43 1736.67 1633.89 1738.78 1631.78 1732.24ZM1646.77 1756.29 1655.23 1782.46 1648.68 1784.57 1640.23 1758.41ZM1661.57 1802.09 1663.68 1808.63 1657.14 1810.74 1655.03 1804.2ZM1670.02 1828.25 1678.48 1854.42 1671.94 1856.54 1663.48 1830.37ZM1684.82 1874.05 1686.93 1880.59 1680.39 1882.7 1678.28 1876.16ZM1537.42 1473.73C1535.08 1466.5 1539.05 1458.75 1546.27 1456.42 1553.5 1454.08 1561.25 1458.05 1563.58 1465.27 1565.92 1472.5 1561.95 1480.25 1554.73 1482.58 1547.5 1484.92 1539.75 1480.95 1537.42 1473.73ZM1700.35 1888.57 1695.72 1918.97 1674.18 1897.03Z"/><rect x="2324.5" y="15.5" width="1584" height="779" stroke="#000000" stroke-width="6.875" stroke-miterlimit="8" stroke-dasharray="27.5 20.625" fill="#FFFFFF"/><rect x="2420.5" y="137.5" width="622" height="506" stroke="#000000" stroke-width="4.58333" stroke-miterlimit="8" fill="#C4B7D7"/><text font-family="Consolas,Consolas_MSFontService,sans-serif" font-weight="400" font-size="83" transform="matrix(1 0 0 1 2452.92 270)">...</text><text font-family="Consolas,Consolas_MSFontService,sans-serif" font-weight="400" font-size="83" transform="matrix(1 0 0 1 2452.92 369)">ftype</text><text font-family="Consolas,Consolas_MSFontService,sans-serif" font-weight="400" font-size="83" transform="matrix(1 0 0 1 2679.22 369)">: DIR</text><text font-family="Consolas,Consolas_MSFontService,sans-serif" font-weight="400" font-size="83" transform="matrix(1 0 0 1 2452.92 468)">pointer[0]:</text><text font-family="Consolas,Consolas_MSFontService,sans-serif" font-weight="400" font-size="83" transform="matrix(1 0 0 1 2452.92 567)">...</text><rect x="3285.5" y="137.5" width="509" height="506" stroke="#000000" stroke-width="4.58333" stroke-miterlimit="8" fill="#705697"/><rect x="3285.5" y="137.5" width="162" height="506" stroke="#000000" stroke-width="4.58333" stroke-miterlimit="8" fill="#EFF0F1"/><text font-family="Consolas,Consolas_MSFontService,sans-serif" font-weight="400" font-size="83" transform="matrix(-1.83697e-16 -1 1 -1.83697e-16 3394.78 526)">dentry</text><rect x="3447.5" y="137.5" width="162" height="506" stroke="#000000" stroke-width="4.58333" stroke-miterlimit="8" fill="#C00000"/><text fill="#FFFFFF" font-family="Consolas,Consolas_MSFontService,sans-serif" font-weight="400" font-size="83" transform="matrix(-1.83697e-16 -1 1 -1.83697e-16 3556.81 526)">dentry</text><path d="M2991 440.854 3254.45 440.855 3254.45 443.146 2991 443.146ZM2991 455.75C2983.41 455.75 2977.25 449.594 2977.25 442 2977.25 434.406 2983.41 428.25 2991 428.25 2998.59 428.25 3004.75 434.406 3004.75 442 3004.75 449.594 2998.59 455.75 2991 455.75ZM3249.87 428.25 3277.37 442 3249.87 455.75Z" fill="#C00000"/><text font-family="Microsoft YaHei,Microsoft YaHei_MSFontService,sans-serif" font-style="oblique" font-weight="400" font-size="73" transform="matrix(1 0 0 1 2474.5 101)">根目录索引节点</text><text font-family="Microsoft YaHei,Microsoft YaHei_MSFontService,sans-serif" font-weight="700" font-size="83" transform="matrix(1 0 0 1 2412.45 755)">根目录</text><text font-family="Calibri,Calibri_MSFontService,sans-serif" font-weight="700" font-size="83" transform="matrix(1 0 0 1 2659.95 755)">“/”</text><text font-family="Microsoft YaHei,Microsoft YaHei_MSFontService,sans-serif" font-weight="700" font-size="83" transform="matrix(1 0 0 1 2767.66 755)">结构</text><text font-family="Microsoft YaHei,Microsoft YaHei_MSFontService,sans-serif" font-style="oblique" font-weight="400" font-size="73" transform="matrix(1 0 0 1 3376.5 101)">根目录数据块</text><rect x="3232.5" y="1021.5" width="672" height="638" stroke="#000000" stroke-width="6.875" stroke-miterlimit="8" stroke-dasharray="27.5 20.625" fill="#FFFFFF"/><rect x="3309.5" y="1210.5" width="174" height="184" stroke="#000000" stroke-width="4.58333" stroke-miterlimit="8" fill="#C4B7D7"/><text font-family="Times New Roman,Times New Roman_MSFontService,sans-serif" font-weight="700" font-size="83" transform="matrix(1 0 0 1 3308.65 1133)">/hunt</text><text font-family="Microsoft YaHei,Microsoft YaHei_MSFontService,sans-serif" font-weight="700" font-size="83" transform="matrix(1 0 0 1 3496.57 1133)">目录结构</text><rect x="3626.5" y="1310.5" width="214" height="176" stroke="#000000" stroke-width="4.58333" stroke-miterlimit="8" fill="#705697"/><path d="M3483.64 1301.05 3607.99 1384.39 3606.71 1386.3 3482.36 1302.95ZM3475.34 1313.42C3469.04 1309.19 3467.35 1300.65 3471.58 1294.34 3475.81 1288.04 3484.35 1286.35 3490.66 1290.58 3496.96 1294.81 3498.65 1303.35 3494.42 1309.66 3490.19 1315.96 3481.65 1317.65 3475.34 1313.42ZM3611.2 1371.37 3626.39 1398.1 3595.89 1394.21Z" fill="#C00000"/><rect x="3630" y="1315" width="59.0002" height="169" fill="#EFF0F1"/><rect x="3695" y="1315" width="60.0002" height="169" fill="#EFF0F1"/><rect x="2339.5" y="1992.5" width="672" height="639" stroke="#000000" stroke-width="6.875" stroke-miterlimit="8" stroke-dasharray="27.5 20.625" fill="#FFFFFF"/><rect x="2416.5" y="2182.5" width="174" height="184" stroke="#000000" stroke-width="4.58333" stroke-miterlimit="8" fill="#C4B7D7"/><text font-family="Times New Roman,Times New Roman_MSFontService,sans-serif" font-weight="700" font-size="83" transform="matrix(1 0 0 1 2445.53 2572)">/hunt/test.sh</text><rect x="2733.5" y="2282.5" width="174" height="176" stroke="#FFFFFF" stroke-width="4.58333" stroke-miterlimit="8" fill="#705697"/><path d="M2590.64 2273.05 2714.99 2356.39 2713.72 2358.3 2589.36 2274.95ZM2582.34 2285.42C2576.04 2281.19 2574.35 2272.65 2578.58 2266.34 2582.81 2260.04 2591.35 2258.35 2597.66 2262.58 2603.96 2266.81 2605.65 2275.35 2601.42 2281.66 2597.19 2287.96 2588.65 2289.65 2582.34 2285.42ZM2718.2 2343.37 2733.39 2370.1 2702.89 2366.21Z"/><path d="M3.34758-0.781092 9.59632 25.9996 2.90115 27.5617-3.34758 0.781092ZM14.2829 46.0851 15.8451 52.7802 9.14989 54.3424 7.5877 47.6472ZM20.5316 72.8657 26.7803 99.6463 20.0852 101.209 13.8364 74.4279ZM31.4669 119.732 33.0291 126.427 26.3339 127.989 24.7717 121.294ZM37.7156 146.512 43.9644 173.293 37.2692 174.855 31.0205 148.075ZM48.6509 193.379 50.2131 200.074 43.5179 201.636 41.9557 194.941ZM54.8996 220.159 61.1484 246.94 54.4532 248.502 48.2045 221.721ZM65.8349 267.025 67.3971 273.721 60.7019 275.283 59.1398 268.588ZM72.0837 293.806 78.3324 320.587 71.6372 322.149 65.3885 295.368ZM83.0189 340.672 84.5811 347.367 77.886 348.93 76.3238 342.234ZM89.2677 367.453 95.5164 394.234 88.8213 395.796 82.5725 369.015ZM100.203 414.319 101.765 421.014 95.07 422.576 93.5078 415.881ZM106.452 441.1 112.7 467.88 106.005 469.443 99.7565 442.662ZM117.387 487.966 118.949 494.661 112.254 496.223 110.692 489.528ZM123.636 514.746 129.884 541.527 123.189 543.089 116.941 516.309ZM-13.3903 3.12437C-15.1159-4.27091-10.5196-11.6648-3.12437-13.3903 4.27091-15.1159 11.6648-10.5196 13.3903-3.12437 15.1159 4.27091 10.5196 11.6648 3.12437 13.3903-4.27091 15.1159-11.6648 10.5196-13.3903 3.12437ZM139.589 537.733 132.447 567.638 112.808 543.982Z" fill="#C00000" transform="matrix(-1 0 0 1 3528.95 643.5)"/><path d="M1.7984-2.92953 25.2347 11.4577 21.6378 17.3167-1.7984 2.92953ZM42.8118 22.2481 48.6709 25.8449 45.0741 31.704 39.215 28.1072ZM66.2481 36.6353 89.6843 51.0225 86.0875 56.8816 62.6513 42.4944ZM107.262 61.813 113.121 65.4098 109.524 71.2688 103.665 67.672ZM130.698 76.2002 154.134 90.5874 150.537 96.4464 127.101 82.0592ZM171.711 101.378 177.57 104.975 173.973 110.834 168.114 107.237ZM195.147 115.765 218.584 130.152 214.987 136.011 191.551 121.624ZM236.161 140.943 242.02 144.539 238.423 150.399 232.564 146.802ZM259.597 155.33 283.033 169.717 279.437 175.576 256 161.189ZM300.611 180.507 306.47 184.104 302.873 189.963 297.014 186.367ZM324.047 194.895 347.483 209.282 343.886 215.141 320.45 200.754ZM365.06 220.072 370.919 223.669 367.323 229.528 361.464 225.931ZM388.497 234.46 411.933 248.847 408.336 254.706 384.9 240.319ZM429.51 259.637 435.369 263.234 431.772 269.093 425.913 265.496ZM452.946 274.024 476.383 288.412 472.786 294.271 449.349 279.883ZM493.96 299.202 499.819 302.799 496.222 308.658 490.363 305.061ZM517.396 313.589 540.832 327.977 537.235 333.836 513.799 319.448ZM558.409 338.767 564.268 342.364 560.672 348.223 554.812 344.626ZM581.846 353.154 605.282 367.541 601.685 373.4 578.249 359.013ZM622.859 378.332 628.718 381.929 625.121 387.788 619.262 384.191ZM646.295 392.719 669.731 407.106 666.135 412.965 642.698 398.578ZM687.309 417.897 693.168 421.493 689.571 427.352 683.712 423.756ZM710.745 432.284 734.181 446.671 730.584 452.53 707.148 438.143ZM751.758 457.461 757.617 461.058 754.021 466.917 748.161 463.32ZM775.195 471.849 798.631 486.236 795.034 492.095 771.598 477.708ZM816.208 497.026 822.067 500.623 818.47 506.482 812.611 502.885ZM839.644 511.413 863.081 525.801 859.484 531.66 836.047 517.273ZM880.658 536.591 886.517 540.188 882.92 546.047 877.061 542.45ZM904.094 550.978 927.53 565.366 923.933 571.225 900.497 556.837ZM945.107 576.156 950.966 579.753 947.37 585.612 941.511 582.015ZM968.544 590.543 991.98 604.93 988.383 610.789 964.947 596.402ZM1009.56 615.721 1015.42 619.318 1011.82 625.177 1005.96 621.58ZM1032.99 630.108 1056.43 644.495 1052.83 650.354 1029.4 635.967ZM1074.01 655.286 1079.87 658.883 1076.27 664.742 1070.41 661.145ZM1097.44 669.673 1118.91 682.851 1115.31 688.71 1093.85 675.532ZM-7.19358 11.7181C-13.6653 7.74524-15.691-0.721824-11.7181-7.19358-7.74524-13.6653 0.721824-15.691 7.19358-11.7181 13.6653-7.74524 15.691 0.721824 11.7181 7.19358 7.74524 13.6653-0.721824 15.691-7.19358 11.7181ZM1120.4 671.665 1136.64 697.771 1106.01 695.102Z" transform="matrix(-1 0 0 1 3649.14 1484.5)"/><rect x="3232.5" y="1996.5" width="672" height="638" stroke="#000000" stroke-width="6.875" stroke-miterlimit="8" stroke-dasharray="27.5 20.625" fill="#FFFFFF"/><rect x="3308.5" y="2185.5" width="174" height="184" stroke="#000000" stroke-width="4.58333" stroke-miterlimit="8" fill="#C4B7D7"/><text font-family="Times New Roman,Times New Roman_MSFontService,sans-serif" font-weight="700" font-size="83" transform="matrix(1 0 0 1 3360.97 2576)">/hunt/</text><text font-family="Times New Roman,Times New Roman_MSFontService,sans-serif" font-weight="700" font-size="83" transform="matrix(1 0 0 1 3571.8 2576)">bin.o</text><rect x="3626.5" y="2285.5" width="174" height="176" stroke="#FFFFFF" stroke-width="4.58333" stroke-miterlimit="8" fill="#705697"/><path d="M3482.64 2276.05 3606.99 2359.39 3605.71 2361.3 3481.36 2277.95ZM3474.34 2288.42C3468.04 2284.19 3466.35 2275.65 3470.58 2269.34 3474.81 2263.04 3483.35 2261.35 3489.66 2265.58 3495.96 2269.81 3497.65 2278.35 3493.42 2284.66 3489.19 2290.96 3480.65 2292.65 3474.34 2288.42ZM3610.2 2346.37 3625.39 2373.1 3594.89 2369.21Z"/><rect x="3626.5" y="2043.5" width="174" height="176" stroke="#FFFFFF" stroke-width="4.58333" stroke-miterlimit="8" fill="#705697"/><path d="M0.8187-0.801663 128.175 129.261 126.537 130.864-0.8187 0.801663ZM-9.8244 9.61996C-15.1374 4.19409-15.0458-4.51145-9.61996-9.8244-4.19409-15.1374 4.51145-15.0458 9.8244-9.61996 15.1374-4.19409 15.0458 4.51145 9.61996 9.8244 4.19409 15.1374-4.51145 15.0458-9.8244 9.61996ZM133.974 117.168 143.389 146.437 114.325 136.408Z" transform="matrix(1 0 0 -1 3482 2277.44)"/><path d="M3.11048-1.46333 14.8171 23.4205 8.59615 26.3472-3.11048 1.46333ZM23.5971 42.0834 26.5237 48.3043 20.3028 51.231 17.3761 45.01ZM35.3037 66.9672 47.0103 91.851 40.7894 94.7777 29.0827 69.8939ZM55.7903 110.514 58.7169 116.735 52.496 119.662 49.5693 113.441ZM67.4969 135.398 79.2035 160.282 72.9826 163.208 61.276 138.324ZM87.9835 178.944 90.9102 185.165 84.6892 188.092 81.7626 181.871ZM99.6901 203.828 111.397 228.712 105.176 231.639 93.4692 206.755ZM120.177 247.375 123.103 253.596 116.882 256.523 113.956 250.302ZM131.883 272.259 143.59 297.143 137.369 300.069 125.662 275.185ZM152.37 315.805 155.297 322.026 149.076 324.953 146.149 318.732ZM164.077 340.689 175.783 365.573 169.562 368.5 157.856 343.616ZM184.563 384.236 187.49 390.457 181.269 393.384 178.342 387.163ZM196.27 409.12 207.976 434.004 201.755 436.93 190.049 412.046ZM216.756 452.667 219.683 458.888 213.462 461.814 210.535 455.593ZM228.463 477.55 240.17 502.434 233.949 505.361 222.242 480.477ZM248.95 521.097 251.876 527.318 245.655 530.245 242.729 524.024ZM260.656 545.981 272.363 570.865 266.142 573.791 254.435 548.908ZM281.143 589.528 284.069 595.749 277.849 598.675 274.922 592.454ZM292.849 614.411 304.556 639.295 298.335 642.222 286.628 617.338ZM313.336 657.958 316.263 664.179 310.042 667.106 307.115 660.885ZM-12.4419 5.85332C-15.6746-1.01816-12.7248-9.20921-5.85332-12.4419 1.01816-15.6746 9.20921-12.7248 12.4419-5.85332 15.6746 1.01816 12.7248 9.20921 5.85332 12.4419-1.01816 15.6746-9.20921 12.7248-12.4419 5.85332ZM330.696 670.634 329.961 701.371 305.812 682.34Z" transform="matrix(-1 0 0 1 3725.46 1484.5)"/><rect x="2339.5" y="1016.5" width="672" height="639" stroke="#000000" stroke-width="6.875" stroke-miterlimit="8" stroke-dasharray="27.5 20.625" fill="#FFFFFF"/><rect x="2416.5" y="1205.5" width="174" height="184" stroke="#000000" stroke-width="4.58333" stroke-miterlimit="8" fill="#C4B7D7"/><rect x="2733.5" y="1042.5" width="174" height="177" stroke="#FFFFFF" stroke-width="4.58333" stroke-miterlimit="8" fill="#705697"/><text font-family="Times New Roman,Times New Roman_MSFontService,sans-serif" font-weight="700" font-size="83" transform="matrix(1 0 0 1 2389.39 1595)">/demo</text><text font-family="Microsoft YaHei,Microsoft YaHei_MSFontService,sans-serif" font-weight="700" font-size="83" transform="matrix(1 0 0 1 2604.81 1595)">文件结构</text><rect x="2733.5" y="1305.5" width="174" height="177" stroke="#FFFFFF" stroke-width="4.58333" stroke-miterlimit="8" fill="#705697"/><path d="M0.868915-0.746941 129.32 148.679 127.582 150.173-0.868915 0.746941ZM-10.427 8.9633C-15.3773 3.20464-14.722-5.47668-8.9633-10.427-3.20464-15.3773 5.47668-14.722 10.427-8.9633 15.3773-3.20464 14.722 5.47668 8.9633 10.427 3.20464 15.3773-5.47668 14.722-10.427 8.9633ZM135.89 136.987 143.389 166.804 115.036 154.914Z" transform="matrix(1 0 0 -1 2590 1297.8)"/><path d="M2590.64 1296.05 2714.99 1379.39 2713.72 1381.3 2589.36 1297.95ZM2582.34 1308.42C2576.04 1304.19 2574.35 1295.65 2578.58 1289.34 2582.81 1283.04 2591.35 1281.35 2597.66 1285.58 2603.96 1289.81 2605.65 1298.35 2601.42 1304.66 2597.19 1310.96 2588.65 1312.65 2582.34 1308.42ZM2718.2 1366.37 2733.39 1393.1 2702.89 1389.21Z"/><path d="M1.87659-2.88007 24.9171 12.1327 21.164 17.8928-1.87659 2.88007ZM42.1976 23.3923 47.9577 27.1455 44.2045 32.9056 38.4444 29.1524ZM65.2381 38.405 88.2787 53.4178 84.5255 59.1779 61.4849 44.1652ZM105.559 64.6774 111.319 68.4305 107.566 74.1907 101.806 70.4375ZM128.6 79.6901 151.64 94.7029 147.887 100.463 124.846 85.4502ZM168.921 105.962 174.681 109.716 170.928 115.476 165.167 111.723ZM191.961 120.975 215.002 135.988 211.249 141.748 188.208 126.735ZM232.282 147.248 238.042 151.001 234.289 156.761 228.529 153.008ZM255.323 162.26 278.363 177.273 274.61 183.033 251.569 168.02ZM295.644 188.533 301.404 192.286 297.651 198.046 291.89 194.293ZM318.684 203.545 341.725 218.558 337.972 224.318 314.931 209.306ZM359.005 229.818 364.765 233.571 361.012 239.331 355.252 235.578ZM382.046 244.83 405.086 259.843 401.333 265.603 378.293 250.591ZM422.367 271.103 428.127 274.856 424.374 280.616 418.614 276.863ZM445.407 286.116 468.448 301.128 464.695 306.888 441.654 291.876ZM485.728 312.388 491.488 316.141 487.735 321.901 481.975 318.148ZM508.769 327.401 531.809 342.413 528.056 348.174 505.016 333.161ZM549.09 353.673 554.85 357.426 551.097 363.186 545.337 359.433ZM572.13 368.686 595.171 383.699 591.418 389.459 568.377 374.446ZM612.451 394.958 618.211 398.711 614.458 404.471 608.698 400.718ZM635.492 409.971 658.532 424.984 654.779 430.744 631.739 415.731ZM675.813 436.243 681.573 439.996 677.82 445.757 672.06 442.003ZM698.853 451.256 721.894 466.269 718.141 472.029 695.1 457.016ZM739.174 477.528 744.935 481.281 741.181 487.042 735.421 483.288ZM762.215 492.541 785.256 507.554 781.502 513.314 758.462 498.301ZM802.536 518.813 808.296 522.567 804.543 528.327 798.783 524.573ZM825.577 533.826 846.326 547.346 842.573 553.106 821.823 539.586ZM-7.5064 11.5203C-13.8689 7.37459-15.6659-1.14393-11.5203-7.5064-7.37459-13.8689 1.14393-15.6659 7.5064-11.5203 13.8689-7.37459 15.6659 1.14393 11.5203 7.5064 7.37459 13.8689-1.14393 15.6659-7.5064 11.5203ZM848.115 536.203 863.649 562.736 833.102 559.244Z" transform="matrix(-1 0 0 1 3367.15 643.5)"/><path d="M0 0 6.82592 2784.78" stroke="#000000" stroke-width="6.875" stroke-miterlimit="8" stroke-dasharray="27.5 20.625" fill="none" fill-rule="evenodd" transform="matrix(1 0 0 -1 2078.5 2622.28)"/><rect x="92.0001" y="-191" width="1560" height="133" fill="#FFFFFF"/><text fill="#C00000" font-family="Consolas,Consolas_MSFontService,sans-serif" font-weight="700" font-size="83" transform="matrix(1 0 0 1 442.17 -97)">lookup(/hunt/</text><text fill="#C00000" font-family="Consolas,Consolas_MSFontService,sans-serif" font-weight="700" font-size="83" transform="matrix(1 0 0 1 1030.56 -97)">bin.o</text><text fill="#C00000" font-family="Consolas,Consolas_MSFontService,sans-serif" font-weight="700" font-size="83" transform="matrix(1 0 0 1 1256.86 -97)">)</text><rect x="2324" y="-187" width="1559" height="133" fill="#FFFFFF"/><text fill="#C00000" font-family="Consolas,Consolas_MSFontService,sans-serif" font-weight="700" font-size="83" transform="matrix(1 0 0 1 2582.87 -92)">lookup(/hunt/YBYB,YBBB)</text><rect x="1553" y="832" width="491" height="134" fill="#FFFFFF"/><text fill="#C00000" font-family="Microsoft YaHei,Microsoft YaHei_MSFontService,sans-serif" font-weight="700" font-size="83" transform="matrix(1 0 0 1 1592.41 927)">找到并返回</text><path d="M1800.04 966 1800.04 975.166 1797.75 975.166 1797.75 966ZM1800.04 982.041 1800.04 991.208 1797.75 991.208 1797.75 982.041ZM1800.04 998.083 1800.04 1007.25 1797.75 1007.25 1797.75 998.083ZM1800.04 1014.12 1800.04 1023.29 1797.75 1023.29 1797.75 1014.12ZM1800.04 1030.17 1800.04 1039.33 1797.75 1039.33 1797.75 1030.17ZM1800.04 1046.21 1800.04 1055.37 1797.75 1055.37 1797.75 1046.21ZM1800.04 1062.25 1800.04 1071.42 1797.75 1071.42 1797.75 1062.25ZM1800.04 1078.29 1800.04 1087.46 1797.75 1087.46 1797.75 1078.29ZM1800.04 1094.33 1800.04 1103.5 1797.75 1103.5 1797.75 1094.33ZM1800.04 1110.37 1800.04 1119.54 1797.75 1119.54 1797.75 1110.37ZM1800.04 1126.42 1800.04 1135.58 1797.75 1135.58 1797.75 1126.42ZM1800.04 1142.46 1800.04 1151.62 1797.75 1151.62 1797.75 1142.46ZM1800.04 1158.5 1800.04 1167.67 1797.75 1167.67 1797.75 1158.5ZM1800.04 1174.54 1800.04 1183.71 1797.75 1183.71 1797.75 1174.54ZM1800.04 1190.58 1800.04 1199.75 1797.75 1199.75 1797.75 1190.58ZM1800.04 1206.62 1800.04 1215.79 1797.75 1215.79 1797.75 1206.62ZM1800.04 1222.67 1800.04 1231.83 1797.75 1231.83 1797.75 1222.67ZM1800.04 1238.71 1800.04 1247.87 1797.75 1247.87 1797.75 1238.71ZM1800.04 1254.75 1800.04 1263.92 1797.75 1263.92 1797.75 1254.75ZM1800.04 1270.79 1800.04 1279.96 1797.75 1279.96 1797.75 1270.79ZM1800.04 1286.83 1800.04 1296 1797.75 1296 1797.75 1286.83ZM1800.04 1302.87 1800.04 1312.04 1797.75 1312.04 1797.75 1302.87ZM1800.04 1318.92 1800.04 1328.08 1797.75 1328.08 1797.75 1318.92ZM1800.04 1334.96 1800.04 1344.12 1797.75 1344.12 1797.75 1334.96ZM1800.04 1351 1800.04 1360.17 1797.75 1360.17 1797.75 1351ZM1800.04 1367.04 1800.04 1376.21 1797.75 1376.21 1797.75 1367.04ZM1800.04 1383.08 1800.04 1385.62 1791.11 1385.62 1791.11 1383.32 1798.9 1383.32 1797.75 1384.47 1797.75 1383.08ZM1784.24 1385.62 1775.07 1385.62 1775.07 1383.32 1784.24 1383.32ZM1768.2 1385.62 1759.03 1385.62 1759.03 1383.32 1768.2 1383.32ZM1752.16 1385.62 1742.99 1385.62 1742.99 1383.32 1752.16 1383.32ZM1736.11 1385.62 1726.95 1385.62 1726.95 1383.32 1736.11 1383.32ZM1720.07 1385.62 1710.91 1385.62 1710.91 1383.32 1720.07 1383.32ZM1704.03 1385.62 1694.86 1385.62 1694.86 1383.32 1704.03 1383.32ZM1687.99 1385.62 1678.82 1385.62 1678.82 1383.32 1687.99 1383.32ZM1671.95 1385.62 1662.78 1385.62 1662.78 1383.32 1671.95 1383.32ZM1655.91 1385.62 1646.74 1385.62 1646.74 1383.32 1655.91 1383.32ZM1639.86 1385.62 1630.7 1385.62 1630.7 1383.32 1639.86 1383.32ZM1623.82 1385.62 1614.66 1385.62 1614.66 1383.32 1623.82 1383.32ZM1607.78 1385.62 1598.61 1385.62 1598.61 1383.32 1607.78 1383.32ZM1591.74 1385.62 1582.57 1385.62 1582.57 1383.32 1591.74 1383.32ZM1575.7 1385.62 1566.53 1385.62 1566.53 1383.32 1575.7 1383.32ZM1559.66 1385.62 1550.49 1385.62 1550.49 1383.32 1559.66 1383.32ZM1543.61 1385.62 1539.92 1385.62 1539.92 1383.32 1543.61 1383.32ZM1785.15 966C1785.15 958.406 1791.3 952.25 1798.9 952.25 1806.49 952.25 1812.65 958.406 1812.65 966 1812.65 973.594 1806.49 979.75 1798.9 979.75 1791.3 979.75 1785.15 973.594 1785.15 966ZM1544.5 1398.22 1517 1384.47 1544.5 1370.72Z" fill="#C00000"/><rect x="3981" y="1322" width="365" height="133" fill="#FFFFFF"/><text fill="#C00000" font-family="Microsoft YaHei,Microsoft YaHei_MSFontService,sans-serif" font-weight="700" font-size="83" transform="matrix(1 0 0 1 4039.74 1416)">未</text><text fill="#C00000" font-family="Microsoft YaHei,Microsoft YaHei_MSFontService,sans-serif" font-weight="700" font-size="83" transform="matrix(1 0 0 1 4122.24 1416)">找到</text><path d="M0.0357306-1.14528 9.19794-0.859431 9.12648 1.43112-0.0357306 1.14528ZM16.0696-0.645047 17.4857-0.600866 25.2723 0.119092 25.0613 2.40103 17.3096 1.68429 17.3793 1.6886 15.9981 1.6455ZM32.1181 0.752067 34.9352 1.01254 41.2673 1.97683 40.9223 4.24238 34.6236 3.28318 34.6906 3.29137 31.9071 3.034ZM48.0639 3.01186 52.3138 3.65906 57.1404 4.67753 56.6673 6.91982 51.8725 5.90808 51.9366 5.91971 47.7189 5.27741ZM63.8673 6.09696 69.5873 7.30393 72.8547 8.18274 72.2595 10.3958 69.0224 9.52511 69.0834 9.53974 63.3942 8.33925ZM79.4938 9.9684 86.7217 11.9124 88.378 12.4532 87.6668 14.6317 86.0392 14.1003 86.0972 14.1176 78.8985 12.1814ZM94.9136 14.5869 103.628 17.4318 102.916 19.6103 94.2023 16.7654ZM110.101 19.9139 118.659 23.1991 117.838 25.3386 109.28 22.0533ZM125.036 25.9122 133.421 29.6149 132.496 31.7113 124.11 28.0086ZM139.698 32.5467 147.898 36.6451 146.873 38.695 138.674 34.5965ZM154.073 39.7842 162.073 44.258 160.955 46.2582 152.954 41.7844ZM168.074 47.6134 169.118 48.1973 175.936 52.4243 174.729 54.372 167.933 50.1586 167.977 50.1848 166.956 49.6136ZM181.779 56.0469 184.705 57.861 189.474 61.1171 188.182 63.0097 183.434 59.7678 183.476 59.7954 180.572 57.9946ZM195.152 64.9938 199.916 68.2466 202.677 70.3119 201.304 72.1468 198.563 70.0964 198.603 70.1252 193.86 66.8864ZM208.181 74.4304 214.717 79.3197 215.533 79.9863 214.083 81.7612 213.286 81.11 213.324 81.1401 206.809 76.2654ZM220.857 84.3355 227.957 90.1343 226.507 91.9091 219.408 86.1103ZM233.169 94.6895 240.018 100.782 238.495 102.494 231.646 96.4018ZM245.105 105.475 251.694 111.848 250.1 113.495 243.512 107.122ZM256.655 116.676 262.972 123.318 261.312 124.898 254.994 118.255ZM267.71 128.3 269.138 129.802 273.84 135.178 272.115 136.687 267.429 131.328 267.461 131.364 266.05 129.879ZM278.366 140.353 281.379 143.798 284.283 147.414 282.496 148.849 279.607 145.252 279.638 145.289 276.641 141.862ZM288.588 152.775 293.006 158.277 294.285 160.016 292.439 161.374 291.175 159.654 291.204 159.693 286.801 154.21ZM298.359 165.554 303.791 172.938 301.945 174.296 296.513 166.912ZM307.661 178.679 312.771 186.29 310.868 187.567 305.759 179.956ZM316.475 192.139 321.246 199.966 319.289 201.159 314.518 193.332ZM324.778 205.923 329.194 213.956 327.185 215.06 322.769 207.027ZM332.506 219.98 332.697 220.328 336.588 228.246 334.531 229.257 330.651 221.362 330.676 221.409 330.497 221.084ZM339.62 234.416 340.744 236.704 343.401 242.824 341.299 243.737 338.653 237.641 338.676 237.69 337.564 235.427ZM346.139 249.13 347.974 253.357 349.603 257.674 347.459 258.484 345.84 254.192 345.861 254.244 344.037 250.043ZM352.031 264.107 354.351 270.253 355.162 272.781 352.98 273.481 352.178 270.981 352.197 271.035 349.887 264.916ZM357.263 279.327 359.841 287.357 360.043 288.123 357.828 288.709 357.633 287.972 357.65 288.029 355.081 280.027ZM361.801 294.77 364.145 303.632 361.929 304.218 359.586 295.356ZM365.608 310.411 367.47 319.387 365.226 319.852 363.364 310.877ZM368.648 326.223 370.005 335.288 367.739 335.627 366.381 326.562ZM370.848 342.191 371.547 351.331 369.262 351.505 368.563 342.365ZM-0.428767 13.7433C-8.01899 13.5065-13.9801 7.16145-13.7433-0.428767-13.5065-8.01899-7.16145-13.9801 0.428767-13.7433 8.01899-13.5065 13.9801-7.16145 13.7433 0.428767 13.5065 8.01899 7.16145 13.9801-0.428767 13.7433ZM383.935 346.629 371.642 374.811 356.472 348.068Z" fill="#C00000" transform="matrix(1 0 0 -1 3609 389.811)"/><rect x="3926" y="276" width="435" height="333" fill="#FFFFFF"/><text fill="#C00000" font-family="Microsoft YaHei,Microsoft YaHei_MSFontService,sans-serif" font-weight="700" font-size="83" transform="matrix(1 0 0 1 4061.12 371)">返回</text><text fill="#C00000" font-family="Consolas,Consolas_MSFontService,sans-serif" font-weight="700" font-size="83" transform="matrix(1 0 0 1 3989.23 469)">/hunt</text><text fill="#C00000" font-family="Microsoft YaHei,Microsoft YaHei_MSFontService,sans-serif" font-weight="700" font-size="83" transform="matrix(1 0 0 1 4215.53 469)">的</text><text fill="#C00000" font-family="Microsoft YaHei,Microsoft YaHei_MSFontService,sans-serif" font-weight="700" font-size="83" transform="matrix(1 0 0 1 4019.87 568)">目录项</text><text fill="#C00000" font-family="Microsoft YaHei,Microsoft YaHei_MSFontService,sans-serif" font-weight="700" font-size="83" transform="matrix(1 0 0 1 864.972 370)">①</text><text fill="#C00000" font-family="Microsoft YaHei,Microsoft YaHei_MSFontService,sans-serif" font-weight="700" font-size="83" transform="matrix(1 0 0 1 1113.1 906)">②</text><text fill="#C00000" font-family="Microsoft YaHei,Microsoft YaHei_MSFontService,sans-serif" font-weight="700" font-size="83" transform="matrix(1 0 0 1 1292.21 1288)">③</text><text fill="#C00000" font-family="Microsoft YaHei,Microsoft YaHei_MSFontService,sans-serif" font-weight="700" font-size="83" transform="matrix(1 0 0 1 1841.28 1395)">④</text><text fill="#C00000" font-family="Microsoft YaHei,Microsoft YaHei_MSFontService,sans-serif" font-weight="700" font-size="83" transform="matrix(1 0 0 1 3107.84 376)">①</text><text fill="#C00000" font-family="Microsoft YaHei,Microsoft YaHei_MSFontService,sans-serif" font-weight="700" font-size="83" transform="matrix(1 0 0 1 3355.97 912)">②</text><text fill="#C00000" font-family="Microsoft YaHei,Microsoft YaHei_MSFontService,sans-serif" font-weight="700" font-size="83" transform="matrix(1 0 0 1 3535.08 1294)">③</text><text fill="#C00000" font-family="Microsoft YaHei,Microsoft YaHei_MSFontService,sans-serif" font-weight="700" font-size="83" transform="matrix(1 0 0 1 4095.03 242)">④</text></g></svg>