<svg width="1236" height="347" xmlns="http://www.w3.org/2000/svg" xmlns:xlink="http://www.w3.org/1999/xlink" overflow="hidden"><g transform="translate(6 -254)"><rect x="334.5" y="468.5" width="103" height="41" stroke="#000000" stroke-width="1.33333" stroke-miterlimit="8" fill="#EFF0F1"/><text font-family="Calibri,Calibri_MSFontService,sans-serif" font-weight="700" font-size="24" transform="translate(360.941 496)">EXT2</text><path d="M12 402 527.183 403.263" stroke="#000000" stroke-width="2" stroke-miterlimit="8" stroke-dasharray="8 6" fill="none" fill-rule="evenodd"/><text font-family="Calibri,Calibri_MSFontService,sans-serif" font-weight="700" font-size="24" transform="translate(9.6 375)">User Space</text><text font-family="Calibri,Calibri_MSFontService,sans-serif" font-weight="700" font-size="24" transform="translate(9.6 441)">Kernel Space</text><rect x="147.5" y="468.5" width="103" height="41" stroke="#000000" stroke-width="1.33333" stroke-miterlimit="8" fill="#C4B7D7"/><text font-family="Calibri,Calibri_MSFontService,sans-serif" font-weight="700" font-size="24" transform="translate(180.407 496)">VFS</text><path d="M0.666637-0.00626469 1.68721 108.594 0.353931 108.607-0.666637 0.00626469ZM-3.99982 0.0375882C-4.02058-2.17145-2.24663-3.97906-0.0375882-3.99982 2.17145-4.02058 3.97906-2.24663 3.99982-0.0375882 4.02058 2.17145 2.24663 3.97906 0.0375882 3.99982-2.17145 4.02058-3.97906 2.24663-3.99982 0.0375882ZM7.67441 107.205 1.13333 120.6-5.65833 107.33Z" transform="matrix(-1 0 0 1 212.633 342.5)"/><path d="M260.501 478.833 318.234 478.889 318.233 480.222 260.499 480.167ZM260.496 483.5C258.287 483.498 256.498 481.705 256.5 479.496 256.502 477.287 258.295 475.498 260.504 475.5 262.713 475.502 264.502 477.295 264.5 479.504 264.498 481.713 262.705 483.502 260.496 483.5ZM316.906 472.887 330.233 479.567 316.894 486.221Z"/><text font-family="Calibri,Calibri_MSFontService,sans-serif" font-weight="400" font-size="27" transform="translate(338.656 450)">read</text><text font-family="Microsoft YaHei,Microsoft YaHei_MSFontService,sans-serif" font-weight="400" font-size="27" transform="translate(387.803 450)">接口实现</text><text font-family="Calibri,Calibri_MSFontService,sans-serif" font-weight="400" font-size="27" transform="translate(154.027 309)">read</text><text font-family="Microsoft YaHei,Microsoft YaHei_MSFontService,sans-serif" font-weight="400" font-size="27" transform="translate(203.174 309)">请求</text><path d="M0.66664-0.00594882 1.62623 107.528 0.292948 107.54-0.66664 0.00594882ZM-3.99984 0.0356929C-4.01955-2.17336-2.24474-3.98013-0.0356929-3.99984 2.17336-4.01955 3.98013-2.24474 3.99984-0.0356929 4.01955 2.17336 2.24474 3.98013 0.0356929 3.99984-2.17336 4.01955-3.98013 2.24474-3.99984 0.0356929ZM7.61409 106.141 1.06667 119.533-5.71871 106.26Z" transform="matrix(1 0 0 -1 185.5 455.033)"/><path d="M0.000637348-0.666666 57.7339-0.611472 57.7327 0.721861-0.000637348 0.666666ZM-0.00382409 4C-2.21296 3.99789-4.00211 2.20531-4-0.00382409-3.99789-2.21296-2.20531-4.00211 0.00382409-4 2.21296-3.99789 4.00211-2.20531 4 0.00382409 3.99789 2.21296 2.20531 4.00211-0.00382409 4ZM56.4064-6.61274 69.7333 0.0666667 56.3936 6.72058Z" transform="matrix(-1 0 0 1 325.233 500.5)"/><text font-family="Microsoft YaHei,Microsoft YaHei_MSFontService,sans-serif" font-weight="400" font-size="27" transform="translate(220.667 389)">①</text><text font-family="Microsoft YaHei,Microsoft YaHei_MSFontService,sans-serif" font-weight="400" font-size="27" transform="translate(279.725 467)">②</text><text font-family="Microsoft YaHei,Microsoft YaHei_MSFontService,sans-serif" font-weight="400" font-size="27" transform="translate(279.612 531)">③</text><text font-family="Microsoft YaHei,Microsoft YaHei_MSFontService,sans-serif" font-weight="400" font-size="27" transform="translate(152.733 429)">④</text><text font-family="Microsoft YaHei,Microsoft YaHei_MSFontService,sans-serif" font-weight="700" font-size="24" transform="translate(156.467 580)">内核文件系统</text><rect x="949.5" y="468.5" width="103" height="41" stroke="#000000" stroke-width="1.33333" stroke-miterlimit="8" fill="#EFF0F1"/><text font-family="Calibri,Calibri_MSFontService,sans-serif" font-weight="700" font-size="24" transform="translate(975.425 496)">FUSE</text><path d="M627 402 1142.18 403.263" stroke="#000000" stroke-width="2" stroke-miterlimit="8" stroke-dasharray="8 6" fill="none" fill-rule="evenodd"/><text font-family="Calibri,Calibri_MSFontService,sans-serif" font-weight="700" font-size="24" transform="translate(624.5 375)">User Space</text><text font-family="Calibri,Calibri_MSFontService,sans-serif" font-weight="700" font-size="24" transform="translate(624.5 441)">Kernel Space</text><rect x="762.5" y="468.5" width="103" height="41" stroke="#000000" stroke-width="1.33333" stroke-miterlimit="8" fill="#C4B7D7"/><text font-family="Calibri,Calibri_MSFontService,sans-serif" font-weight="700" font-size="24" transform="translate(795.307 496)">VFS</text><path d="M0.666637-0.00626469 1.68721 108.594 0.353931 108.607-0.666637 0.00626469ZM-3.99982 0.0375882C-4.02058-2.17145-2.24663-3.97906-0.0375882-3.99982 2.17145-4.02058 3.97906-2.24663 3.99982-0.0375882 4.02058 2.17145 2.24663 3.97906 0.0375882 3.99982-2.17145 4.02058-3.97906 2.24663-3.99982 0.0375882ZM7.67441 107.205 1.13333 120.6-5.65833 107.33Z" transform="matrix(-1 0 0 1 827.633 342.5)"/><path d="M875.501 478.833 933.234 478.889 933.233 480.222 875.499 480.167ZM875.496 483.5C873.287 483.498 871.498 481.705 871.5 479.496 871.502 477.287 873.295 475.498 875.504 475.5 877.713 475.502 879.502 477.295 879.5 479.504 879.498 481.713 877.705 483.502 875.496 483.5ZM931.906 472.887 945.233 479.567 931.894 486.221Z"/><text font-family="Calibri,Calibri_MSFontService,sans-serif" font-weight="400" font-size="27" transform="translate(1057.08 288)">read</text><text font-family="Microsoft YaHei,Microsoft YaHei_MSFontService,sans-serif" font-weight="400" font-size="27" transform="translate(1106.22 288)">接口实现</text><text font-family="Calibri,Calibri_MSFontService,sans-serif" font-weight="400" font-size="27" transform="translate(1074.32 320)">(</text><text font-family="Microsoft YaHei,Microsoft YaHei_MSFontService,sans-serif" font-weight="400" font-size="27" transform="translate(1082.49 320)">本次实验</text><text font-family="Calibri,Calibri_MSFontService,sans-serif" font-weight="400" font-size="27" transform="translate(1189.16 320)">)</text><text font-family="Calibri,Calibri_MSFontService,sans-serif" font-weight="400" font-size="27" transform="translate(768.927 309)">read</text><text font-family="Microsoft YaHei,Microsoft YaHei_MSFontService,sans-serif" font-weight="400" font-size="27" transform="translate(818.074 309)">请求</text><path d="M0.66664-0.00594882 1.62623 107.528 0.292948 107.54-0.66664 0.00594882ZM-3.99984 0.0356929C-4.01955-2.17336-2.24474-3.98013-0.0356929-3.99984 2.17336-4.01955 3.98013-2.24474 3.99984-0.0356929 4.01955 2.17336 2.24474 3.98013 0.0356929 3.99984-2.17336 4.01955-3.98013 2.24474-3.99984 0.0356929ZM7.61409 106.141 1.06667 119.533-5.71871 106.26Z" transform="matrix(1 0 0 -1 800.5 455.033)"/><path d="M0.000637348-0.666666 57.7339-0.611472 57.7327 0.721861-0.000637348 0.666666ZM-0.00382409 4C-2.21296 3.99789-4.00211 2.20531-4-0.00382409-3.99789-2.21296-2.20531-4.00211 0.00382409-4 2.21296-3.99789 4.00211-2.20531 4 0.00382409 3.99789 2.21296 2.20531 4.00211-0.00382409 4ZM56.4064-6.61274 69.7333 0.0666667 56.3936 6.72058Z" transform="matrix(-1 0 0 1 940.233 500.5)"/><text font-family="Microsoft YaHei,Microsoft YaHei_MSFontService,sans-serif" font-weight="400" font-size="27" transform="translate(835.567 389)">①</text><text font-family="Microsoft YaHei,Microsoft YaHei_MSFontService,sans-serif" font-weight="400" font-size="27" transform="translate(894.625 467)">②</text><text font-family="Microsoft YaHei,Microsoft YaHei_MSFontService,sans-serif" font-weight="400" font-size="27" transform="translate(894.512 531)">⑤</text><text font-family="Microsoft YaHei,Microsoft YaHei_MSFontService,sans-serif" font-weight="400" font-size="27" transform="translate(767.633 429)">⑥</text><text font-family="Calibri,Calibri_MSFontService,sans-serif" font-weight="700" font-size="24" transform="translate(831.221 580)">FUSE</text><text font-family="Microsoft YaHei,Microsoft YaHei_MSFontService,sans-serif" font-weight="700" font-size="24" transform="translate(880.888 580)">文件系统</text><rect x="945.5" y="281.5" width="102" height="40" stroke="#000000" stroke-width="1.33333" stroke-miterlimit="8" fill="#C00000"/><text fill="#FFFFFF" font-family="Calibri,Calibri_MSFontService,sans-serif" font-weight="700" font-size="19" transform="translate(972.612 296)">Young</text><text fill="#FFFFFF" font-family="Calibri,Calibri_MSFontService,sans-serif" font-weight="700" font-size="19" transform="translate(977.025 319)">EXT2</text><path d="M0.666637-0.00626469 1.68721 108.594 0.353931 108.607-0.666637 0.00626469ZM-3.99982 0.0375882C-4.02058-2.17145-2.24663-3.97906-0.0375882-3.99982 2.17145-4.02058 3.97906-2.24663 3.99982-0.0375882 4.02058 2.17145 2.24663 3.97906 0.0375882 3.99982-2.17145 4.02058-3.97906 2.24663-3.99982 0.0375882ZM7.67441 107.205 1.13333 120.6-5.65833 107.33Z" transform="matrix(-1 0 0 1 1009.63 342.5)"/><path d="M0.66664-0.00594882 1.62623 107.528 0.292948 107.54-0.66664 0.00594882ZM-3.99984 0.0356929C-4.01955-2.17336-2.24474-3.98013-0.0356929-3.99984 2.17336-4.01955 3.98013-2.24474 3.99984-0.0356929 4.01955 2.17336 2.24474 3.98013 0.0356929 3.99984-2.17336 4.01955-3.98013 2.24474-3.99984 0.0356929ZM7.61409 106.141 1.06667 119.533-5.71871 106.26Z" transform="matrix(1 0 0 -1 982.5 455.033)"/><text font-family="Microsoft YaHei,Microsoft YaHei_MSFontService,sans-serif" font-weight="400" font-size="27" transform="translate(949.608 431)">③</text><text font-family="Microsoft YaHei,Microsoft YaHei_MSFontService,sans-serif" font-weight="400" font-size="27" transform="translate(1017.15 388)">④</text></g></svg>